solid ECT-bottom-ago
facet normal 0.0 0.0 -1.0
  outer loop
    vertex -77.27406610312546 20.70552360820168 2.18289
    vertex -77.27406610312548 -20.705523608201627 2.18289
    vertex -80.0 9.797174393178826e-15 2.18289
  endloop
endfacet
facet normal 0.0 0.0 -1.0
  outer loop
    vertex -77.27406610312548 -20.705523608201627 2.18289
    vertex -77.27406610312546 20.70552360820168 2.18289
    vertex -69.28203230275511 -39.999999999999986 2.18289
  endloop
endfacet
facet normal 0.0 0.0 -1.0
  outer loop
    vertex -69.28203230275511 -39.999999999999986 2.18289
    vertex -77.27406610312546 20.70552360820168 2.18289
    vertex -69.28203230275508 40.00000000000003 2.18289
  endloop
endfacet
facet normal 0.0 0.0 -1.0
  outer loop
    vertex -69.28203230275511 -39.999999999999986 2.18289
    vertex -69.28203230275508 40.00000000000003 2.18289
    vertex -56.56854249492383 -56.568542494923776 2.18289
  endloop
endfacet
facet normal 0.0 0.0 -1.0
  outer loop
    vertex -56.56854249492383 -56.568542494923776 2.18289
    vertex -69.28203230275508 40.00000000000003 2.18289
    vertex -56.5685424949238 56.56854249492381 2.18289
  endloop
endfacet
facet normal 0.0 0.0 -1.0
  outer loop
    vertex -56.56854249492383 -56.568542494923776 2.18289
    vertex -56.5685424949238 56.56854249492381 2.18289
    vertex -40.000000000000036 -69.28203230275507 2.18289
  endloop
endfacet
facet normal 0.0 0.0 -1.0
  outer loop
    vertex -40.000000000000036 -69.28203230275507 2.18289
    vertex -56.5685424949238 56.56854249492381 2.18289
    vertex -39.999999999999986 69.28203230275511 2.18289
  endloop
endfacet
facet normal 0.0 0.0 -1.0
  outer loop
    vertex -40.000000000000036 -69.28203230275507 2.18289
    vertex -39.999999999999986 69.28203230275511 2.18289
    vertex -20.705523608201716 -77.27406610312545 2.18289
  endloop
endfacet
facet normal 0.0 0.0 -1.0
  outer loop
    vertex -20.705523608201716 -77.27406610312545 2.18289
    vertex -39.999999999999986 69.28203230275511 2.18289
    vertex -20.70552360820165 77.27406610312546 2.18289
  endloop
endfacet
facet normal 0.0 0.0 -1.0
  outer loop
    vertex -20.705523608201716 -77.27406610312545 2.18289
    vertex -20.70552360820165 77.27406610312546 2.18289
    vertex -1.4695761589768237e-14 -80.0 2.18289
  endloop
endfacet
facet normal 0.0 0.0 -1.0
  outer loop
    vertex -1.4695761589768237e-14 -80.0 2.18289
    vertex -20.70552360820165 77.27406610312546 2.18289
    vertex 4.898587196589413e-15 80.0 2.18289
  endloop
endfacet
facet normal 0.0 0.0 -1.0
  outer loop
    vertex -1.4695761589768237e-14 -80.0 2.18289
    vertex 4.898587196589413e-15 80.0 2.18289
    vertex 20.705523608201624 -77.27406610312548 2.18289
  endloop
endfacet
facet normal 0.0 0.0 -1.0
  outer loop
    vertex 20.705523608201624 -77.27406610312548 2.18289
    vertex 4.898587196589413e-15 80.0 2.18289
    vertex 20.705523608201677 77.27406610312546 2.18289
  endloop
endfacet
facet normal 0.0 0.0 -1.0
  outer loop
    vertex 20.705523608201624 -77.27406610312548 2.18289
    vertex 20.705523608201677 77.27406610312546 2.18289
    vertex 39.99999999999994 -69.28203230275513 2.18289
  endloop
endfacet
facet normal 0.0 0.0 -1.0
  outer loop
    vertex 39.99999999999994 -69.28203230275513 2.18289
    vertex 20.705523608201677 77.27406610312546 2.18289
    vertex 40.000000000000014 69.28203230275508 2.18289
  endloop
endfacet
facet normal 0.0 0.0 -1.0
  outer loop
    vertex 39.99999999999994 -69.28203230275513 2.18289
    vertex 40.000000000000014 69.28203230275508 2.18289
    vertex 56.5685424949238 -56.56854249492382 2.18289
  endloop
endfacet
facet normal 0.0 0.0 -1.0
  outer loop
    vertex 56.5685424949238 -56.56854249492382 2.18289
    vertex 40.000000000000014 69.28203230275508 2.18289
    vertex 56.56854249492381 56.5685424949238 2.18289
  endloop
endfacet
facet normal 0.0 0.0 -1.0
  outer loop
    vertex 56.5685424949238 -56.56854249492382 2.18289
    vertex 56.56854249492381 56.5685424949238 2.18289
    vertex 69.28203230275507 -40.000000000000036 2.18289
  endloop
endfacet
facet normal 0.0 0.0 -1.0
  outer loop
    vertex 69.28203230275507 -40.000000000000036 2.18289
    vertex 56.56854249492381 56.5685424949238 2.18289
    vertex 69.2820323027551 39.99999999999999 2.18289
  endloop
endfacet
facet normal 0.0 0.0 -1.0
  outer loop
    vertex 69.28203230275507 -40.000000000000036 2.18289
    vertex 69.2820323027551 39.99999999999999 2.18289
    vertex 77.27406610312545 -20.705523608201723 2.18289
  endloop
endfacet
facet normal 0.0 0.0 -1.0
  outer loop
    vertex 77.27406610312545 -20.705523608201723 2.18289
    vertex 69.2820323027551 39.99999999999999 2.18289
    vertex 77.27406610312546 20.70552360820166 2.18289
  endloop
endfacet
facet normal 0.0 0.0 -1.0
  outer loop
    vertex 77.27406610312545 -20.705523608201723 2.18289
    vertex 77.27406610312546 20.70552360820166 2.18289
    vertex 80.0 0.0 2.18289
  endloop
endfacet
facet normal 0.0 0.0 1.0
  outer loop
    vertex -67.6148078402348 -18.11733315717645 7.000000000000004
    vertex -67.61480784023479 18.11733315717649 7.000000000000004
    vertex -70.00000000000001 2.255973186038318e-14 7.000000000000004
  endloop
endfacet
facet normal 0.0 0.0 1.0
  outer loop
    vertex -67.61480784023479 18.11733315717649 7.000000000000004
    vertex -67.6148078402348 -18.11733315717645 7.000000000000004
    vertex -60.62177826491073 -35.0 7.000000000000004
  endloop
endfacet
facet normal 0.0 0.0 1.0
  outer loop
    vertex -67.61480784023479 18.11733315717649 7.000000000000004
    vertex -60.62177826491073 -35.0 7.000000000000004
    vertex -60.621778264910695 35.00000000000005 7.000000000000004
  endloop
endfacet
facet normal 0.0 0.0 1.0
  outer loop
    vertex -60.621778264910695 35.00000000000005 7.000000000000004
    vertex -60.62177826491073 -35.0 7.000000000000004
    vertex -49.49747468305836 -49.497474683058314 7.000000000000004
  endloop
endfacet
facet normal 0.0 0.0 1.0
  outer loop
    vertex -60.621778264910695 35.00000000000005 7.000000000000004
    vertex -49.49747468305836 -49.497474683058314 7.000000000000004
    vertex -49.497474683058314 49.49747468305837 7.000000000000004
  endloop
endfacet
facet normal 0.0 0.0 1.0
  outer loop
    vertex -49.497474683058314 49.49747468305837 7.000000000000004
    vertex -49.49747468305836 -49.497474683058314 7.000000000000004
    vertex -35.00000000000005 -60.621778264910695 7.000000000000004
  endloop
endfacet
facet normal 0.0 0.0 1.0
  outer loop
    vertex -49.497474683058314 49.49747468305837 7.000000000000004
    vertex -35.00000000000005 -60.621778264910695 7.000000000000004
    vertex -34.99999999999996 60.62177826491075 7.000000000000004
  endloop
endfacet
facet normal 0.0 0.0 1.0
  outer loop
    vertex -34.99999999999996 60.62177826491075 7.000000000000004
    vertex -35.00000000000005 -60.621778264910695 7.000000000000004
    vertex -18.117333157176525 -67.61480784023479 7.000000000000004
  endloop
endfacet
facet normal 0.0 0.0 1.0
  outer loop
    vertex -34.99999999999996 60.62177826491075 7.000000000000004
    vertex -18.117333157176525 -67.61480784023479 7.000000000000004
    vertex -18.117333157176386 67.61480784023482 7.000000000000004
  endloop
endfacet
facet normal 0.0 0.0 1.0
  outer loop
    vertex -18.117333157176386 67.61480784023482 7.000000000000004
    vertex -18.117333157176525 -67.61480784023479 7.000000000000004
    vertex -8.741896095898482e-14 -70.00000000000001 7.000000000000004
  endloop
endfacet
facet normal 0.0 0.0 1.0
  outer loop
    vertex -18.117333157176386 67.61480784023482 7.000000000000004
    vertex -8.741896095898482e-14 -70.00000000000001 7.000000000000004
    vertex 8.177902799388902e-14 70.00000000000003 7.000000000000004
  endloop
endfacet
facet normal 0.0 0.0 1.0
  outer loop
    vertex 8.177902799388902e-14 70.00000000000003 7.000000000000004
    vertex -8.741896095898482e-14 -70.00000000000001 7.000000000000004
    vertex 18.117333157176347 -67.61480784023483 7.000000000000004
  endloop
endfacet
facet normal 0.0 0.0 1.0
  outer loop
    vertex 8.177902799388902e-14 70.00000000000003 7.000000000000004
    vertex 18.117333157176347 -67.61480784023483 7.000000000000004
    vertex 18.11733315717653 67.61480784023479 7.000000000000004
  endloop
endfacet
facet normal 0.0 0.0 1.0
  outer loop
    vertex 18.11733315717653 67.61480784023479 7.000000000000004
    vertex 18.117333157176347 -67.61480784023483 7.000000000000004
    vertex 34.99999999999989 -60.62177826491079 7.000000000000004
  endloop
endfacet
facet normal 0.0 0.0 1.0
  outer loop
    vertex 18.11733315717653 67.61480784023479 7.000000000000004
    vertex 34.99999999999989 -60.62177826491079 7.000000000000004
    vertex 35.00000000000007 60.62177826491069 7.000000000000004
  endloop
endfacet
facet normal 0.0 0.0 1.0
  outer loop
    vertex 35.00000000000007 60.62177826491069 7.000000000000004
    vertex 34.99999999999989 -60.62177826491079 7.000000000000004
    vertex 49.49747468305823 -49.49747468305845 7.000000000000004
  endloop
endfacet
facet normal 0.0 0.0 1.0
  outer loop
    vertex 35.00000000000007 60.62177826491069 7.000000000000004
    vertex 49.49747468305823 -49.49747468305845 7.000000000000004
    vertex 49.497474683058385 49.4974746830583 7.000000000000004
  endloop
endfacet
facet normal 0.0 0.0 1.0
  outer loop
    vertex 49.497474683058385 49.4974746830583 7.000000000000004
    vertex 49.49747468305823 -49.49747468305845 7.000000000000004
    vertex 60.62177826491063 -35.00000000000016 7.000000000000004
  endloop
endfacet
facet normal 0.0 0.0 1.0
  outer loop
    vertex 49.497474683058385 49.4974746830583 7.000000000000004
    vertex 60.62177826491063 -35.00000000000016 7.000000000000004
    vertex 60.62177826491075 34.99999999999996 7.000000000000004
  endloop
endfacet
facet normal 0.0 0.0 1.0
  outer loop
    vertex 60.62177826491075 34.99999999999996 7.000000000000004
    vertex 60.62177826491063 -35.00000000000016 7.000000000000004
    vertex 67.61480784023479 -18.11733315717651 7.000000000000004
  endloop
endfacet
facet normal 0.0 0.0 1.0
  outer loop
    vertex 60.62177826491075 34.99999999999996 7.000000000000004
    vertex 67.61480784023479 -18.11733315717651 7.000000000000004
    vertex 67.61480784023482 18.1173331571764 7.000000000000004
  endloop
endfacet
facet normal 0.0 0.0 1.0
  outer loop
    vertex 67.61480784023482 18.1173331571764 7.000000000000004
    vertex 67.61480784023479 -18.11733315717651 7.000000000000004
    vertex 70.00000000000001 -5.921929613350585e-14 7.000000000000004
  endloop
endfacet
facet normal -0.9950894815834624 -0.09897941019199863 9.82288462553733e-16
  outer loop
    vertex 68.08499796999008 19.252472545325453 110.0
    vertex 70.00000000000001 -5.921929613350585e-14 7.000000000000004
    vertex 70.00000000000011 -5.884600413248934e-14 110.0
  endloop
endfacet
facet normal -0.9914272269920718 -0.13052387060965115 0.005964292069174671
  outer loop
    vertex 68.08499796999008 19.252472545325453 110.0
    vertex 67.61480784023482 18.1173331571764 7.000000000000004
    vertex 70.00000000000001 -5.921929613350585e-14 7.000000000000004
  endloop
endfacet
facet normal 0.608361796744158 -0.7928325293842526 0.03622850552242385
  outer loop
    vertex -34.999999999999986 65.32836626491084 110.0
    vertex -49.497474683058314 49.49747468305837 7.000000000000004
    vertex -34.99999999999996 60.62177826491075 7.000000000000004
  endloop
endfacet
facet normal 0.5817438622384882 -0.812236872207101 0.04295744609579142
  outer loop
    vertex -50.15284771437394 54.47552708104291 110.0
    vertex -49.497474683058314 49.49747468305837 7.000000000000004
    vertex -34.999999999999986 65.32836626491084 110.0
  endloop
endfacet
facet normal 0.9232481046608911 -0.3824218863857968 0.03696536288474946
  outer loop
    vertex -60.621778264910695 35.00000000000005 7.000000000000004
    vertex -69.67678465768395 23.095385555160984 110.0
    vertex -67.61480784023479 18.11733315717649 7.000000000000004
  endloop
endfacet
facet normal 0.9102881610468003 -0.4127112116937819 0.03232521616764809
  outer loop
    vertex -61.980453189293094 40.07064384876475 110.0
    vertex -69.67678465768395 23.095385555160984 110.0
    vertex -60.621778264910695 35.00000000000005 7.000000000000004
  endloop
endfacet
facet normal -0.9355337055339333 -0.35314311285384736 0.008162576421838779
  outer loop
    vertex 61.252341491763794 37.35329400000001 110.0
    vertex 67.61480784023482 18.1173331571764 7.000000000000004
    vertex 68.08499796999008 19.252472545325453 110.0
  endloop
endfacet
facet normal -0.9237837684741116 -0.38264376560210334 0.014397838365945157
  outer loop
    vertex 61.252341491763794 37.35329400000001 110.0
    vertex 60.62177826491075 34.99999999999996 7.000000000000004
    vertex 67.61480784023482 18.1173331571764 7.000000000000004
  endloop
endfacet
facet normal -0.8121471028308025 -0.5831657962408416 0.01829583171979768
  outer loop
    vertex 49.96766481281362 53.068923294909354 110.0
    vertex 60.62177826491075 34.99999999999996 7.000000000000004
    vertex 61.252341491763794 37.35329400000001 110.0
  endloop
endfacet
facet normal -0.7931108553646955 -0.6085753637804076 0.024722412953150478
  outer loop
    vertex 49.96766481281362 53.068923294909354 110.0
    vertex 49.497474683058385 49.4974746830583 7.000000000000004
    vertex 60.62177826491075 34.99999999999996 7.000000000000004
  endloop
endfacet
facet normal -0.6084823951222091 -0.7929896962504496 0.030274022972836358
  outer loop
    vertex 49.96766481281362 53.068923294909354 110.0
    vertex 35.00000000000007 60.62177826491069 7.000000000000004
    vertex 49.497474683058385 49.4974746830583 7.000000000000004
  endloop
endfacet
facet normal -0.6332499532300501 -0.7731405958549935 0.035328682046253064
  outer loop
    vertex 49.96766481281362 53.068923294909354 110.0
    vertex 35.000000000000384 65.32836626491083 109.99999999999922
    vertex 35.00000000000007 60.62177826491069 7.000000000000004
  endloop
endfacet
facet normal 0.7927055983063211 -0.6082643991024493 0.0404011781802693
  outer loop
    vertex -49.497474683058314 49.49747468305837 7.000000000000004
    vertex -61.980453189293094 40.07064384876475 110.0
    vertex -60.621778264910695 35.00000000000005 7.000000000000004
  endloop
endfacet
facet normal 0.7723682869492872 -0.6341785096116019 0.03556469122361463
  outer loop
    vertex -50.15284771437394 54.47552708104291 110.0
    vertex -61.980453189293094 40.07064384876475 110.0
    vertex -49.497474683058314 49.49747468305837 7.000000000000004
  endloop
endfacet
facet normal 0.7932902031927477 0.6087129822091089 0.012615815808043059
  outer loop
    vertex -60.62177826491073 -35.0 7.000000000000004
    vertex -53.480908005425235 -46.440878789991615 110.0
    vertex -49.49747468305836 -49.497474683058314 7.000000000000004
  endloop
endfacet
facet normal 0.8129592399936053 0.5822612396692074 0.008314017554576598
  outer loop
    vertex -64.33374718929315 -31.288031075617685 110.0
    vertex -53.480908005425235 -46.440878789991615 110.0
    vertex -60.62177826491073 -35.0 7.000000000000004
  endloop
endfacet
facet normal -0.3826340881121963 0.9237604049467302 -0.016058295899676642
  outer loop
    vertex 14.837201727876273 -67.18297034515264 110.0
    vertex 34.99999999999989 -60.62177826491079 7.000000000000004
    vertex 18.117333157176347 -67.61480784023483 7.000000000000004
  endloop
endfacet
facet normal -0.35200882138237943 0.9359506112443164 -0.009286709879098827
  outer loop
    vertex 32.28265015123524 -60.621778264910844 110.0
    vertex 34.99999999999989 -60.62177826491079 7.000000000000004
    vertex 14.837201727876273 -67.18297034515264 110.0
  endloop
endfacet
facet normal -0.7727836392185665 0.6345195483201406 -0.01379817943474242
  outer loop
    vertex 59.26310334052834 -35.36405584876485 110.0
    vertex 49.49747468305823 -49.49747468305845 7.000000000000004
    vertex 47.435497865609165 -49.76893908104297 110.0
  endloop
endfacet
facet normal -0.7933259259686819 0.6087403932591712 -0.008313170310006729
  outer loop
    vertex 60.62177826491063 -35.00000000000016 7.000000000000004
    vertex 49.49747468305823 -49.49747468305845 7.000000000000004
    vertex 59.26310334052834 -35.36405584876485 110.0
  endloop
endfacet
facet normal -0.9865870933952787 0.163130969556268 -0.005847556539922592
  outer loop
    vertex 70.00000000000011 -5.884600413248934e-14 110.0
    vertex 67.61480784023479 -18.11733315717651 7.000000000000004
    vertex 66.95943480891924 -18.388797555161023 110.0
  endloop
endfacet
facet normal -0.9914448613738105 0.13052619222005238 -2.4669022662799663e-18
  outer loop
    vertex 70.00000000000011 -5.884600413248934e-14 110.0
    vertex 70.00000000000001 -5.921929613350585e-14 7.000000000000004
    vertex 67.61480784023479 -18.11733315717651 7.000000000000004
  endloop
endfacet
facet normal 0.6087614290087213 0.7933533402912347 8.138751387527375e-16
  outer loop
    vertex -53.480908005425235 -46.440878789991615 110.0
    vertex -35.00000000000005 -60.621778264910695 7.000000000000004
    vertex -49.49747468305836 -49.497474683058314 7.000000000000004
  endloop
endfacet
facet normal 0.6345623294887011 0.7728357425575735 0.007454194749083475
  outer loop
    vertex -39.07602477314708 -58.26848426491075 110.0
    vertex -35.00000000000005 -60.621778264910695 7.000000000000004
    vertex -53.480908005425235 -46.440878789991615 110.0
  endloop
endfacet
facet normal 0.13051853216545323 0.9913866774825844 -0.010833673034472809
  outer loop
    vertex -22.10076647954337 -65.9648157333016 110.0
    vertex -8.741896095898482e-14 -70.00000000000001 7.000000000000004
    vertex -18.117333157176525 -67.61480784023479 7.000000000000004
  endloop
endfacet
facet normal 0.16313267317663646 0.986597396588323 -0.003648011429304076
  outer loop
    vertex -3.7119689243824405 -69.00538092438241 110.0
    vertex -8.741896095898482e-14 -70.00000000000001 7.000000000000004
    vertex -22.10076647954337 -65.9648157333016 110.0
  endloop
endfacet
facet normal 0.9911058848733597 0.1304815651171432 0.026147392489033697
  outer loop
    vertex -70.00000000000001 2.255973186038318e-14 7.000000000000004
    vertex -70.89493926953494 -13.842582652258736 110.0
    vertex -67.6148078402348 -18.11733315717645 7.000000000000004
  endloop
endfacet
facet normal 0.994972239528827 0.09775358528692513 0.02178254187514899
  outer loop
    vertex -72.71734984876475 4.7065880000000275 110.0
    vertex -70.89493926953494 -13.842582652258736 110.0
    vertex -70.00000000000001 2.255973186038318e-14 7.000000000000004
  endloop
endfacet
facet normal -0.6086829336379673 0.7932510431324227 -0.016058295899676826
  outer loop
    vertex 32.28265015123524 -60.621778264910844 110.0
    vertex 49.49747468305823 -49.49747468305845 7.000000000000004
    vertex 34.99999999999989 -60.62177826491079 7.000000000000004
  endloop
endfacet
facet normal -0.5822550127220805 0.8129505458648241 -0.009513681626719034
  outer loop
    vertex 47.435497865609165 -49.76893908104297 110.0
    vertex 49.49747468305823 -49.49747468305845 7.000000000000004
    vertex 32.28265015123524 -60.621778264910844 110.0
  endloop
endfacet
facet normal -0.9107133997819675 0.4129040086576022 -0.010553818837403106
  outer loop
    vertex 66.95943480891924 -18.388797555161023 110.0
    vertex 60.62177826491063 -35.00000000000016 7.000000000000004
    vertex 59.26310334052834 -35.36405584876485 110.0
  endloop
endfacet
facet normal -0.923868577328682 0.3826788945798787 -0.004869852954588021
  outer loop
    vertex 67.61480784023479 -18.11733315717651 7.000000000000004
    vertex 60.62177826491063 -35.00000000000016 7.000000000000004
    vertex 66.95943480891924 -18.388797555161023 110.0
  endloop
endfacet
facet normal 0.9237038595194423 0.38261066622932505 0.01950020503580393
  outer loop
    vertex -67.6148078402348 -18.11733315717645 7.000000000000004
    vertex -64.33374718929315 -31.288031075617685 110.0
    vertex -60.62177826491073 -35.0 7.000000000000004
  endloop
endfacet
facet normal 0.9358828998206814 0.35198335527536334 0.015195901826799807
  outer loop
    vertex -70.89493926953494 -13.842582652258736 110.0
    vertex -64.33374718929315 -31.288031075617685 110.0
    vertex -67.6148078402348 -18.11733315717645 7.000000000000004
  endloop
endfacet
facet normal 0.38267662574780487 0.9238630998835208 -0.005964292069173502
  outer loop
    vertex -39.07602477314708 -58.26848426491075 110.0
    vertex -18.117333157176525 -67.61480784023479 7.000000000000004
    vertex -35.00000000000005 -60.621778264910695 7.000000000000004
  endloop
endfacet
facet normal 0.41292661279896237 0.9107632561505078 0.0013797421862365054
  outer loop
    vertex -22.10076647954337 -65.9648157333016 110.0
    vertex -18.117333157176525 -67.61480784023479 7.000000000000004
    vertex -39.07602477314708 -58.26848426491075 110.0
  endloop
endfacet
facet normal -0.13051288990412932 0.9913438202529468 -0.014276400637618236
  outer loop
    vertex -3.7119689243824405 -69.00538092438241 110.0
    vertex 18.117333157176347 -67.61480784023483 7.000000000000004
    vertex -8.741896095898482e-14 -70.00000000000001 7.000000000000004
  endloop
endfacet
facet normal -0.0977741891707544 0.9951819534986828 -0.007286107503137811
  outer loop
    vertex 14.837201727876273 -67.18297034515264 110.0
    vertex 18.117333157176347 -67.61480784023483 7.000000000000004
    vertex -3.7119689243824405 -69.00538092438241 110.0
  endloop
endfacet
facet normal 0.9909337993871961 -0.13045890963309184 0.032104176198765585
  outer loop
    vertex -67.61480784023479 18.11733315717649 7.000000000000004
    vertex -72.71734984876475 4.7065880000000275 110.0
    vertex -70.00000000000001 2.255973186038318e-14 7.000000000000004
  endloop
endfacet
facet normal 0.9862274357096309 -0.1630715005977093 0.02762482120154309
  outer loop
    vertex -69.67678465768395 23.095385555160984 110.0
    vertex -72.71734984876475 4.7065880000000275 110.0
    vertex -67.61480784023479 18.11733315717649 7.000000000000004
  endloop
endfacet
facet normal -0.9238792990529429 0.38268333566347784 0.0007109057021407387
  outer loop
    vertex -69.19906930275508 40.00000000000003 110.0
    vertex -77.27406610312546 20.70552360820168 2.18289
    vertex -77.19110310312546 20.70552360820168 110.0
  endloop
endfacet
facet normal -0.9238792990529429 0.38268333566347784 0.0007109057021407387
  outer loop
    vertex -77.27406610312546 20.70552360820168 2.18289
    vertex -69.19906930275508 40.00000000000003 110.0
    vertex -69.28203230275508 40.00000000000003 2.18289
  endloop
endfacet
facet normal -0.7933531924609651 0.6087613155745651 0.0006104686065703628
  outer loop
    vertex -56.48557949492379 56.56854249492381 110.0
    vertex -69.28203230275508 40.00000000000003 2.18289
    vertex -69.19906930275508 40.00000000000003 110.0
  endloop
endfacet
facet normal -0.7933531924609651 0.6087613155745651 0.0006104686065703628
  outer loop
    vertex -69.28203230275508 40.00000000000003 2.18289
    vertex -56.48557949492379 56.56854249492381 110.0
    vertex -56.5685424949238 56.56854249492381 2.18289
  endloop
endfacet
facet normal 0.6087613622197355 -0.7933532532501367 -0.00046842907302783267
  outer loop
    vertex 56.6515054949238 -56.56854249492382 110.0
    vertex 39.99999999999994 -69.28203230275513 2.18289
    vertex 56.5685424949238 -56.56854249492382 2.18289
  endloop
endfacet
facet normal 0.6087613622197355 -0.7933532532501367 -0.00046842907302783267
  outer loop
    vertex 39.99999999999994 -69.28203230275513 2.18289
    vertex 56.6515054949238 -56.56854249492382 110.0
    vertex 40.08296299999995 -69.28203230275513 110.0
  endloop
endfacet
facet normal 0.3826834157737103 -0.9238794924561552 -0.0002944668450382022
  outer loop
    vertex 40.08296299999995 -69.28203230275513 110.0
    vertex 20.705523608201624 -77.27406610312548 2.18289
    vertex 39.99999999999994 -69.28203230275513 2.18289
  endloop
endfacet
facet normal 0.3826834157737103 -0.9238794924561552 -0.0002944668450382022
  outer loop
    vertex 20.705523608201624 -77.27406610312548 2.18289
    vertex 40.08296299999995 -69.28203230275513 110.0
    vertex 20.78848660820163 -77.27406610312548 110.0
  endloop
endfacet
facet normal 0.1305261915617018 -0.9914448563731494 -0.00010043716095278192
  outer loop
    vertex 20.78848660820163 -77.27406610312548 110.0
    vertex -1.4695761589768237e-14 -80.0 2.18289
    vertex 20.705523608201624 -77.27406610312548 2.18289
  endloop
endfacet
facet normal 0.1305261915617018 -0.9914448563731494 -0.00010043716095278192
  outer loop
    vertex -1.4695761589768237e-14 -80.0 2.18289
    vertex 20.78848660820163 -77.27406610312548 110.0
    vertex 0.0829629999999846 -80.0 110.0
  endloop
endfacet
facet normal -0.13052619156170253 -0.9914448563731494 0.00010043716095278085
  outer loop
    vertex 0.0829629999999846 -80.0 110.0
    vertex -20.705523608201716 -77.27406610312545 2.18289
    vertex -1.4695761589768237e-14 -80.0 2.18289
  endloop
endfacet
facet normal -0.13052619156170253 -0.9914448563731494 0.00010043716095278085
  outer loop
    vertex -20.705523608201716 -77.27406610312545 2.18289
    vertex 0.0829629999999846 -80.0 110.0
    vertex -20.622560608201713 -77.27406610312545 110.0
  endloop
endfacet
facet normal -0.38268341577371173 -0.9238794924561544 0.00029446684503819866
  outer loop
    vertex -20.622560608201713 -77.27406610312545 110.0
    vertex -40.000000000000036 -69.28203230275507 2.18289
    vertex -20.705523608201716 -77.27406610312545 2.18289
  endloop
endfacet
facet normal -0.38268341577371173 -0.9238794924561544 0.00029446684503819866
  outer loop
    vertex -40.000000000000036 -69.28203230275507 2.18289
    vertex -20.622560608201713 -77.27406610312545 110.0
    vertex -39.91703700000003 -69.28203230275507 110.0
  endloop
endfacet
facet normal 0.7933531924609656 -0.6087613155745646 -0.0006104686065703253
  outer loop
    vertex 69.28203230275507 -40.000000000000036 2.18289
    vertex 56.6515054949238 -56.56854249492382 110.0
    vertex 56.5685424949238 -56.56854249492382 2.18289
  endloop
endfacet
facet normal 0.7933531924609656 -0.6087613155745646 -0.0006104686065703253
  outer loop
    vertex 56.6515054949238 -56.56854249492382 110.0
    vertex 69.28203230275507 -40.000000000000036 2.18289
    vertex 69.36499530275506 -40.000000000000036 110.0
  endloop
endfacet
facet normal -0.6087613622197363 -0.7933532532501361 0.00046842907302780323
  outer loop
    vertex -39.91703700000003 -69.28203230275507 110.0
    vertex -56.56854249492383 -56.568542494923776 2.18289
    vertex -40.000000000000036 -69.28203230275507 2.18289
  endloop
endfacet
facet normal -0.6087613622197363 -0.7933532532501361 0.00046842907302780323
  outer loop
    vertex -56.56854249492383 -56.568542494923776 2.18289
    vertex -39.91703700000003 -69.28203230275507 110.0
    vertex -56.48557949492383 -56.568542494923776 110.0
  endloop
endfacet
facet normal -0.991444572858386 -0.1305261542362748 0.0007628957602188659
  outer loop
    vertex -79.917037 1.127986593019159e-14 110.0
    vertex -77.27406610312548 -20.705523608201627 2.18289
    vertex -77.19110310312547 -20.705523608201627 110.0
  endloop
endfacet
facet normal -0.991444572858386 -0.1305261542362748 0.0007628957602188659
  outer loop
    vertex -77.27406610312548 -20.705523608201627 2.18289
    vertex -79.917037 1.127986593019159e-14 110.0
    vertex -80.0 9.797174393178826e-15 2.18289
  endloop
endfacet
facet normal 0.9238792990529425 -0.3826833356634784 -0.0007109057021406362
  outer loop
    vertex 77.27406610312545 -20.705523608201723 2.18289
    vertex 69.36499530275506 -40.000000000000036 110.0
    vertex 69.28203230275507 -40.000000000000036 2.18289
  endloop
endfacet
facet normal 0.9238792990529425 -0.3826833356634784 -0.0007109057021406362
  outer loop
    vertex 69.36499530275506 -40.000000000000036 110.0
    vertex 77.27406610312545 -20.705523608201723 2.18289
    vertex 77.35702910312544 -20.705523608201723 110.0
  endloop
endfacet
facet normal -0.9238792990529431 -0.38268333566347673 0.0007109057021406424
  outer loop
    vertex -77.19110310312547 -20.705523608201627 110.0
    vertex -69.28203230275511 -39.999999999999986 2.18289
    vertex -69.19906930275512 -39.999999999999986 110.0
  endloop
endfacet
facet normal -0.9238792990529431 -0.38268333566347673 0.0007109057021406424
  outer loop
    vertex -69.28203230275511 -39.999999999999986 2.18289
    vertex -77.19110310312547 -20.705523608201627 110.0
    vertex -77.27406610312548 -20.705523608201627 2.18289
  endloop
endfacet
facet normal -0.7933531924609654 -0.6087613155745649 0.000610468606570281
  outer loop
    vertex -69.19906930275512 -39.999999999999986 110.0
    vertex -56.56854249492383 -56.568542494923776 2.18289
    vertex -56.48557949492383 -56.568542494923776 110.0
  endloop
endfacet
facet normal -0.7933531924609654 -0.6087613155745649 0.000610468606570281
  outer loop
    vertex -56.56854249492383 -56.568542494923776 2.18289
    vertex -69.19906930275512 -39.999999999999986 110.0
    vertex -69.28203230275511 -39.999999999999986 2.18289
  endloop
endfacet
facet normal -0.9914445728583858 0.13052615423627545 0.0007628957602189161
  outer loop
    vertex -79.917037 1.127986593019159e-14 110.0
    vertex -77.27406610312546 20.70552360820168 2.18289
    vertex -80.0 9.797174393178826e-15 2.18289
  endloop
endfacet
facet normal -0.9914445728583858 0.13052615423627545 0.0007628957602189161
  outer loop
    vertex -77.27406610312546 20.70552360820168 2.18289
    vertex -79.917037 1.127986593019159e-14 110.0
    vertex -77.19110310312546 20.70552360820168 110.0
  endloop
endfacet
facet normal 0.9914445728583858 -0.1305261542362759 -0.0007628957602188644
  outer loop
    vertex 80.0 0.0 2.18289
    vertex 77.35702910312544 -20.705523608201723 110.0
    vertex 77.27406610312545 -20.705523608201723 2.18289
  endloop
endfacet
facet normal 0.9914445728583858 -0.1305261542362759 -0.0007628957602188644
  outer loop
    vertex 77.35702910312544 -20.705523608201723 110.0
    vertex 80.0 0.0 2.18289
    vertex 80.082963 0.0 110.0
  endloop
endfacet
facet normal 0.6087613622197366 0.7933532532501358 -0.0004684290730277997
  outer loop
    vertex 40.08296300000002 69.28203230275508 110.0
    vertex 56.56854249492381 56.5685424949238 2.18289
    vertex 40.000000000000014 69.28203230275508 2.18289
  endloop
endfacet
facet normal 0.6087613622197366 0.7933532532501358 -0.0004684290730277997
  outer loop
    vertex 56.56854249492381 56.5685424949238 2.18289
    vertex 40.08296300000002 69.28203230275508 110.0
    vertex 56.6515054949238 56.5685424949238 110.0
  endloop
endfacet
facet normal 0.382683415773711 0.923879492456155 -0.000294466845038198
  outer loop
    vertex 20.78848660820168 77.27406610312546 110.0
    vertex 40.000000000000014 69.28203230275508 2.18289
    vertex 20.705523608201677 77.27406610312546 2.18289
  endloop
endfacet
facet normal 0.382683415773711 0.923879492456155 -0.000294466845038198
  outer loop
    vertex 40.000000000000014 69.28203230275508 2.18289
    vertex 20.78848660820168 77.27406610312546 110.0
    vertex 40.08296300000002 69.28203230275508 110.0
  endloop
endfacet
facet normal 0.9914445728583858 0.13052615423627553 -0.0007628957602189162
  outer loop
    vertex 77.27406610312546 20.70552360820166 2.18289
    vertex 80.082963 0.0 110.0
    vertex 80.0 0.0 2.18289
  endloop
endfacet
facet normal 0.9914445728583858 0.13052615423627553 -0.0007628957602189162
  outer loop
    vertex 80.082963 0.0 110.0
    vertex 77.27406610312546 20.70552360820166 2.18289
    vertex 77.35702910312547 20.70552360820166 110.0
  endloop
endfacet
facet normal 0.7933531924609653 0.6087613155745653 -0.0006104686065703249
  outer loop
    vertex 56.56854249492381 56.5685424949238 2.18289
    vertex 69.3649953027551 39.99999999999999 110.0
    vertex 69.2820323027551 39.99999999999999 2.18289
  endloop
endfacet
facet normal 0.7933531924609653 0.6087613155745653 -0.0006104686065703249
  outer loop
    vertex 69.3649953027551 39.99999999999999 110.0
    vertex 56.56854249492381 56.5685424949238 2.18289
    vertex 56.6515054949238 56.5685424949238 110.0
  endloop
endfacet
facet normal -0.1305261915617023 0.9914448563731494 0.00010043716095278067
  outer loop
    vertex -20.622560608201645 77.27406610312546 110.0
    vertex 4.898587196589413e-15 80.0 2.18289
    vertex -20.70552360820165 77.27406610312546 2.18289
  endloop
endfacet
facet normal -0.1305261915617023 0.9914448563731494 0.00010043716095278067
  outer loop
    vertex 4.898587196589413e-15 80.0 2.18289
    vertex -20.622560608201645 77.27406610312546 110.0
    vertex 0.08296300000000426 80.0 110.0
  endloop
endfacet
facet normal 0.9238792990529431 0.3826833356634771 -0.0007109057021407332
  outer loop
    vertex 69.2820323027551 39.99999999999999 2.18289
    vertex 77.35702910312547 20.70552360820166 110.0
    vertex 77.27406610312546 20.70552360820166 2.18289
  endloop
endfacet
facet normal 0.9238792990529431 0.3826833356634771 -0.0007109057021407332
  outer loop
    vertex 77.35702910312547 20.70552360820166 110.0
    vertex 69.2820323027551 39.99999999999999 2.18289
    vertex 69.3649953027551 39.99999999999999 110.0
  endloop
endfacet
facet normal -0.3826834157737099 0.9238794924561552 0.00029446684503818776
  outer loop
    vertex -39.91703699999998 69.28203230275511 110.0
    vertex -20.70552360820165 77.27406610312546 2.18289
    vertex -39.999999999999986 69.28203230275511 2.18289
  endloop
endfacet
facet normal -0.3826834157737099 0.9238794924561552 0.00029446684503818776
  outer loop
    vertex -20.70552360820165 77.27406610312546 2.18289
    vertex -39.91703699999998 69.28203230275511 110.0
    vertex -20.622560608201645 77.27406610312546 110.0
  endloop
endfacet
facet normal -0.6087613622197365 0.7933532532501361 0.0004684290730278184
  outer loop
    vertex -56.48557949492379 56.56854249492381 110.0
    vertex -39.999999999999986 69.28203230275511 2.18289
    vertex -56.5685424949238 56.56854249492381 2.18289
  endloop
endfacet
facet normal -0.6087613622197365 0.7933532532501361 0.0004684290730278184
  outer loop
    vertex -39.999999999999986 69.28203230275511 2.18289
    vertex -56.48557949492379 56.56854249492381 110.0
    vertex -39.91703699999998 69.28203230275511 110.0
  endloop
endfacet
facet normal 0.1305261915617023 0.9914448563731494 -0.00010043716095274064
  outer loop
    vertex 0.08296300000000426 80.0 110.0
    vertex 20.705523608201677 77.27406610312546 2.18289
    vertex 4.898587196589413e-15 80.0 2.18289
  endloop
endfacet
facet normal 0.1305261915617023 0.9914448563731494 -0.00010043716095274064
  outer loop
    vertex 20.705523608201677 77.27406610312546 2.18289
    vertex 0.08296300000000426 80.0 110.0
    vertex 20.78848660820168 77.27406610312546 110.0
  endloop
endfacet
facet normal 0.1305261915617023 0.9914448563731494 -0.00010043716095274064
  outer loop
    vertex 20.78848660820168 77.27406610312546 110.0
    vertex 0.08296300000000426 80.0 110.0
    vertex 10.435724804100843 78.63703305156272 110.0
  endloop
endfacet
facet normal 0.1305261915617023 0.9914448563731494 -0.00010043716095274064
  outer loop
    vertex 20.78848660820168 77.27406610312546 110.0
    vertex 10.435724804100843 78.63703305156272 110.0
    vertex 16.49019524844992 77.83994689599508 110.0
  endloop
endfacet
facet normal 0.38234286876240525 -0.9230573392428573 0.04217913200186714
  outer loop
    vertex -18.117333157176386 72.32139584023463 109.99999999999999
    vertex -34.99999999999996 60.62177826491075 7.000000000000004
    vertex -18.117333157176386 67.61480784023482 7.000000000000004
  endloop
endfacet
facet normal 0.38234286876240525 -0.9230573392428573 0.04217913200186714
  outer loop
    vertex -34.99999999999996 60.62177826491075 7.000000000000004
    vertex -18.117333157176386 72.32139584023463 109.99999999999999
    vertex -34.999999999999986 65.32836626491084 110.0
  endloop
endfacet
facet normal 0.13010834839742863 -0.9882710224396499 0.0799512594233676
  outer loop
    vertex 4.334822811765189 78.90340418513938 110.00000000000009
    vertex -18.117333157176386 67.61480784023482 7.000000000000004
    vertex 8.177902799388902e-14 70.00000000000003 7.000000000000004
  endloop
endfacet
facet normal 0.28104775562251183 -0.9586934129067748 0.04380752342588239
  outer loop
    vertex 4.334822811765189 78.90340418513938 110.00000000000009
    vertex -18.117333157176386 72.32139584023463 109.99999999999999
    vertex -18.117333157176386 67.61480784023482 7.000000000000004
  endloop
endfacet
facet normal -0.38234286876241425 -0.9230573392428535 0.04217913200186855
  outer loop
    vertex 35.000000000000384 65.32836626491083 109.99999999999922
    vertex 18.11733315717653 67.61480784023479 7.000000000000004
    vertex 35.00000000000007 60.62177826491069 7.000000000000004
  endloop
endfacet
facet normal -0.6627352483905238 -0.7431647145729102 0.09213141459087514
  outer loop
    vertex 22.452155968941415 76.51821202537393 109.9999999999995
    vertex 18.11733315717653 67.61480784023479 7.000000000000004
    vertex 35.000000000000384 65.32836626491083 109.99999999999922
  endloop
endfacet
facet normal -2.1166538470673684e-14 -3.819860902556906e-13 1.0
  outer loop
    vertex 22.452155968941415 76.51821202537393 109.9999999999995
    vertex 10.435724804100843 78.63703305156272 110.0
    vertex 4.334822811765189 78.90340418513938 110.00000000000009
  endloop
endfacet
facet normal -2.1166538470673684e-14 -3.819860902556906e-13 1.0
  outer loop
    vertex 10.435724804100843 78.63703305156272 110.0
    vertex 22.452155968941415 76.51821202537393 109.9999999999995
    vertex 16.49019524844992 77.83994689599508 110.0
  endloop
endfacet
facet normal -0.1299867968632619 -0.9873477468740398 0.09081772615511924
  outer loop
    vertex 22.452155968941415 76.51821202537393 109.9999999999995
    vertex 8.177902799388902e-14 70.00000000000003 7.000000000000004
    vertex 18.11733315717653 67.61480784023479 7.000000000000004
  endloop
endfacet
facet normal -0.1299867968632619 -0.9873477468740398 0.09081772615511924
  outer loop
    vertex 8.177902799388902e-14 70.00000000000003 7.000000000000004
    vertex 22.452155968941415 76.51821202537393 109.9999999999995
    vertex 4.334822811765189 78.90340418513938 110.00000000000009
  endloop
endfacet
facet normal -0.5840874837388073 -0.6549722671195309 0.47943001641946686
  outer loop
    vertex 30.97895677598184 69.22878700903469 110.42973195611567
    vertex 22.452155968941415 76.51821202537393 109.9999999999995
    vertex 35.000000000000384 65.32836626491083 109.99999999999922
  endloop
endfacet
facet normal -0.5840874837388073 -0.6549722671195309 0.47943001641946686
  outer loop
    vertex 22.452155968941415 76.51821202537393 109.9999999999995
    vertex 30.97895677598184 69.22878700903469 110.42973195611567
    vertex 26.785704371377538 72.96822204871724 110.4297319561158
  endloop
endfacet
facet normal -0.0812433532927952 0.27713250181179544 0.9573907739190292
  outer loop
    vertex 4.334822811765189 78.90340418513938 110.00000000000009
    vertex -10.826336156596868 75.13868190605952 109.8031979253409
    vertex -18.117333157176386 72.32139584023463 109.99999999999999
  endloop
endfacet
facet normal -0.0812433532927952 0.27713250181179544 0.9573907739190292
  outer loop
    vertex -10.826336156596868 75.13868190605952 109.8031979253409
    vertex 4.334822811765189 78.90340418513938 110.00000000000009
    vertex -3.3232498277997498 77.33826473886172 109.8031979253409
  endloop
endfacet
facet normal 9.136351703827542e-15 -1.9155154074196453e-14 1.0
  outer loop
    vertex -18.117333157176386 72.32139584023463 109.99999999999999
    vertex -29.583278321848912 68.14813309256554 110.0
    vertex -34.999999999999986 65.32836626491084 110.0
  endloop
endfacet
facet normal 9.136351703827542e-15 -1.9155154074196453e-14 1.0
  outer loop
    vertex -29.583278321848912 68.14813309256554 110.0
    vertex -18.117333157176386 72.32139584023463 109.99999999999999
    vertex -23.941410032796764 70.48507145501364 110.0
  endloop
endfacet
facet normal 2.337061609281767e-16 4.177035307000304e-16 1.0
  outer loop
    vertex -77.19110310312547 -20.705523608201627 110.0
    vertex -77.19110310312546 20.70552360820168 110.0
    vertex -79.917037 1.127986593019159e-14 110.0
  endloop
endfacet
facet normal 2.337061609281767e-16 4.177035307000304e-16 1.0
  outer loop
    vertex -77.19110310312546 20.70552360820168 110.0
    vertex -77.19110310312547 -20.705523608201627 110.0
    vertex -69.19906930275512 -39.999999999999986 110.0
  endloop
endfacet
facet normal 2.337061609281767e-16 4.177035307000304e-16 1.0
  outer loop
    vertex -77.19110310312546 20.70552360820168 110.0
    vertex -69.19906930275512 -39.999999999999986 110.0
    vertex -72.71734984876475 4.7065880000000275 110.0
  endloop
endfacet
facet normal 2.337061609281767e-16 4.177035307000304e-16 1.0
  outer loop
    vertex -72.71734984876475 4.7065880000000275 110.0
    vertex -69.19906930275512 -39.999999999999986 110.0
    vertex -70.89493926953494 -13.842582652258736 110.0
  endloop
endfacet
facet normal 2.337061609281767e-16 4.177035307000304e-16 1.0
  outer loop
    vertex -70.89493926953494 -13.842582652258736 110.0
    vertex -69.19906930275512 -39.999999999999986 110.0
    vertex -64.33374718929315 -31.288031075617685 110.0
  endloop
endfacet
facet normal 2.337061609281767e-16 4.177035307000304e-16 1.0
  outer loop
    vertex -64.33374718929315 -31.288031075617685 110.0
    vertex -69.19906930275512 -39.999999999999986 110.0
    vertex -56.48557949492383 -56.568542494923776 110.0
  endloop
endfacet
facet normal 2.337061609281767e-16 4.177035307000304e-16 1.0
  outer loop
    vertex -64.33374718929315 -31.288031075617685 110.0
    vertex -56.48557949492383 -56.568542494923776 110.0
    vertex -53.480908005425235 -46.440878789991615 110.0
  endloop
endfacet
facet normal 2.337061609281767e-16 4.177035307000304e-16 1.0
  outer loop
    vertex -53.480908005425235 -46.440878789991615 110.0
    vertex -56.48557949492383 -56.568542494923776 110.0
    vertex -39.91703700000003 -69.28203230275507 110.0
  endloop
endfacet
facet normal 2.337061609281767e-16 4.177035307000304e-16 1.0
  outer loop
    vertex -53.480908005425235 -46.440878789991615 110.0
    vertex -39.91703700000003 -69.28203230275507 110.0
    vertex -39.07602477314708 -58.26848426491075 110.0
  endloop
endfacet
facet normal 2.337061609281767e-16 4.177035307000304e-16 1.0
  outer loop
    vertex -39.07602477314708 -58.26848426491075 110.0
    vertex -39.91703700000003 -69.28203230275507 110.0
    vertex -20.622560608201713 -77.27406610312545 110.0
  endloop
endfacet
facet normal 2.337061609281767e-16 4.177035307000304e-16 1.0
  outer loop
    vertex -39.07602477314708 -58.26848426491075 110.0
    vertex -20.622560608201713 -77.27406610312545 110.0
    vertex -22.10076647954337 -65.9648157333016 110.0
  endloop
endfacet
facet normal 2.337061609281767e-16 4.177035307000304e-16 1.0
  outer loop
    vertex -22.10076647954337 -65.9648157333016 110.0
    vertex -20.622560608201713 -77.27406610312545 110.0
    vertex -3.7119689243824405 -69.00538092438241 110.0
  endloop
endfacet
facet normal 2.337061609281767e-16 4.177035307000304e-16 1.0
  outer loop
    vertex -3.7119689243824405 -69.00538092438241 110.0
    vertex -20.622560608201713 -77.27406610312545 110.0
    vertex 0.0829629999999846 -80.0 110.0
  endloop
endfacet
facet normal 2.337061609281767e-16 4.177035307000304e-16 1.0
  outer loop
    vertex -3.7119689243824405 -69.00538092438241 110.0
    vertex 0.0829629999999846 -80.0 110.0
    vertex 14.837201727876273 -67.18297034515264 110.0
  endloop
endfacet
facet normal 2.337061609281767e-16 4.177035307000304e-16 1.0
  outer loop
    vertex 14.837201727876273 -67.18297034515264 110.0
    vertex 0.0829629999999846 -80.0 110.0
    vertex 20.78848660820163 -77.27406610312548 110.0
  endloop
endfacet
facet normal 2.337061609281767e-16 4.177035307000304e-16 1.0
  outer loop
    vertex 14.837201727876273 -67.18297034515264 110.0
    vertex 20.78848660820163 -77.27406610312548 110.0
    vertex 32.28265015123524 -60.621778264910844 110.0
  endloop
endfacet
facet normal 2.337061609281767e-16 4.177035307000304e-16 1.0
  outer loop
    vertex 32.28265015123524 -60.621778264910844 110.0
    vertex 20.78848660820163 -77.27406610312548 110.0
    vertex 40.08296299999995 -69.28203230275513 110.0
  endloop
endfacet
facet normal 2.337061609281767e-16 4.177035307000304e-16 1.0
  outer loop
    vertex 32.28265015123524 -60.621778264910844 110.0
    vertex 40.08296299999995 -69.28203230275513 110.0
    vertex 47.435497865609165 -49.76893908104297 110.0
  endloop
endfacet
facet normal 2.337061609281767e-16 4.177035307000304e-16 1.0
  outer loop
    vertex 47.435497865609165 -49.76893908104297 110.0
    vertex 40.08296299999995 -69.28203230275513 110.0
    vertex 56.6515054949238 -56.56854249492382 110.0
  endloop
endfacet
facet normal 2.337061609281767e-16 4.177035307000304e-16 1.0
  outer loop
    vertex 47.435497865609165 -49.76893908104297 110.0
    vertex 56.6515054949238 -56.56854249492382 110.0
    vertex 59.26310334052834 -35.36405584876485 110.0
  endloop
endfacet
facet normal 2.337061609281767e-16 4.177035307000304e-16 1.0
  outer loop
    vertex 59.26310334052834 -35.36405584876485 110.0
    vertex 56.6515054949238 -56.56854249492382 110.0
    vertex 69.36499530275506 -40.000000000000036 110.0
  endloop
endfacet
facet normal 2.337061609281767e-16 4.177035307000304e-16 1.0
  outer loop
    vertex 59.26310334052834 -35.36405584876485 110.0
    vertex 69.36499530275506 -40.000000000000036 110.0
    vertex 66.95943480891924 -18.388797555161023 110.0
  endloop
endfacet
facet normal 2.337061609281767e-16 4.177035307000304e-16 1.0
  outer loop
    vertex 66.95943480891924 -18.388797555161023 110.0
    vertex 69.36499530275506 -40.000000000000036 110.0
    vertex 70.00000000000011 -5.884600413248934e-14 110.0
  endloop
endfacet
facet normal 2.337061609281767e-16 4.177035307000304e-16 1.0
  outer loop
    vertex 70.00000000000011 -5.884600413248934e-14 110.0
    vertex 69.36499530275506 -40.000000000000036 110.0
    vertex 77.35702910312544 -20.705523608201723 110.0
  endloop
endfacet
facet normal 2.337061609281767e-16 4.177035307000304e-16 1.0
  outer loop
    vertex 49.96766481281362 53.068923294909354 110.0
    vertex 40.08296300000002 69.28203230275508 110.0
    vertex 35.000000000000384 65.32836626491083 109.99999999999922
  endloop
endfacet
facet normal 2.337061609281767e-16 4.177035307000304e-16 1.0
  outer loop
    vertex 40.08296300000002 69.28203230275508 110.0
    vertex 49.96766481281362 53.068923294909354 110.0
    vertex 56.6515054949238 56.5685424949238 110.0
  endloop
endfacet
facet normal 2.337061609281767e-16 4.177035307000304e-16 1.0
  outer loop
    vertex 56.6515054949238 56.5685424949238 110.0
    vertex 49.96766481281362 53.068923294909354 110.0
    vertex 61.252341491763794 37.35329400000001 110.0
  endloop
endfacet
facet normal 2.337061609281767e-16 4.177035307000304e-16 1.0
  outer loop
    vertex 56.6515054949238 56.5685424949238 110.0
    vertex 61.252341491763794 37.35329400000001 110.0
    vertex 69.3649953027551 39.99999999999999 110.0
  endloop
endfacet
facet normal 2.337061609281767e-16 4.177035307000304e-16 1.0
  outer loop
    vertex 69.3649953027551 39.99999999999999 110.0
    vertex 61.252341491763794 37.35329400000001 110.0
    vertex 68.08499796999008 19.252472545325453 110.0
  endloop
endfacet
facet normal 2.337061609281767e-16 4.177035307000304e-16 1.0
  outer loop
    vertex 69.3649953027551 39.99999999999999 110.0
    vertex 68.08499796999008 19.252472545325453 110.0
    vertex 70.00000000000011 -5.884600413248934e-14 110.0
  endloop
endfacet
facet normal 2.337061609281767e-16 4.177035307000304e-16 1.0
  outer loop
    vertex 69.3649953027551 39.99999999999999 110.0
    vertex 70.00000000000011 -5.884600413248934e-14 110.0
    vertex 77.35702910312547 20.70552360820166 110.0
  endloop
endfacet
facet normal 2.337061609281767e-16 4.177035307000304e-16 1.0
  outer loop
    vertex 77.35702910312547 20.70552360820166 110.0
    vertex 70.00000000000011 -5.884600413248934e-14 110.0
    vertex 77.35702910312544 -20.705523608201723 110.0
  endloop
endfacet
facet normal 2.337061609281767e-16 4.177035307000304e-16 1.0
  outer loop
    vertex 77.35702910312547 20.70552360820166 110.0
    vertex 77.35702910312544 -20.705523608201723 110.0
    vertex 80.082963 0.0 110.0
  endloop
endfacet
facet normal 2.337061609281767e-16 4.177035307000304e-16 1.0
  outer loop
    vertex -72.71734984876475 4.7065880000000275 110.0
    vertex -69.19906930275508 40.00000000000003 110.0
    vertex -77.19110310312546 20.70552360820168 110.0
  endloop
endfacet
facet normal 2.337061609281767e-16 4.177035307000304e-16 1.0
  outer loop
    vertex -69.19906930275508 40.00000000000003 110.0
    vertex -72.71734984876475 4.7065880000000275 110.0
    vertex -69.67678465768395 23.095385555160984 110.0
  endloop
endfacet
facet normal 2.337061609281767e-16 4.177035307000304e-16 1.0
  outer loop
    vertex -69.19906930275508 40.00000000000003 110.0
    vertex -69.67678465768395 23.095385555160984 110.0
    vertex -61.980453189293094 40.07064384876475 110.0
  endloop
endfacet
facet normal 2.337061609281767e-16 4.177035307000304e-16 1.0
  outer loop
    vertex -69.19906930275508 40.00000000000003 110.0
    vertex -61.980453189293094 40.07064384876475 110.0
    vertex -56.48557949492379 56.56854249492381 110.0
  endloop
endfacet
facet normal 2.337061609281767e-16 4.177035307000304e-16 1.0
  outer loop
    vertex -56.48557949492379 56.56854249492381 110.0
    vertex -61.980453189293094 40.07064384876475 110.0
    vertex -50.15284771437394 54.47552708104291 110.0
  endloop
endfacet
facet normal 2.337061609281767e-16 4.177035307000304e-16 1.0
  outer loop
    vertex -56.48557949492379 56.56854249492381 110.0
    vertex -50.15284771437394 54.47552708104291 110.0
    vertex -39.91703699999998 69.28203230275511 110.0
  endloop
endfacet
facet normal 2.337061609281767e-16 4.177035307000304e-16 1.0
  outer loop
    vertex -39.91703699999998 69.28203230275511 110.0
    vertex -50.15284771437394 54.47552708104291 110.0
    vertex -34.999999999999986 65.32836626491084 110.0
  endloop
endfacet
facet normal 2.337061609281767e-16 4.177035307000304e-16 1.0
  outer loop
    vertex -39.91703699999998 69.28203230275511 110.0
    vertex -34.999999999999986 65.32836626491084 110.0
    vertex -20.622560608201645 77.27406610312546 110.0
  endloop
endfacet
facet normal 2.337061609281767e-16 4.177035307000304e-16 1.0
  outer loop
    vertex -20.622560608201645 77.27406610312546 110.0
    vertex -34.999999999999986 65.32836626491084 110.0
    vertex -29.583278321848912 68.14813309256554 110.0
  endloop
endfacet
facet normal 2.337061609281767e-16 4.177035307000304e-16 1.0
  outer loop
    vertex -20.622560608201645 77.27406610312546 110.0
    vertex -29.583278321848912 68.14813309256554 110.0
    vertex -23.941410032796764 70.48507145501364 110.0
  endloop
endfacet
facet normal 2.337061609281767e-16 4.177035307000304e-16 1.0
  outer loop
    vertex -20.622560608201645 77.27406610312546 110.0
    vertex -23.941410032796764 70.48507145501364 110.0
    vertex -18.117333157176386 72.32139584023463 109.99999999999999
  endloop
endfacet
facet normal 2.337061609281767e-16 4.177035307000304e-16 1.0
  outer loop
    vertex -20.622560608201645 77.27406610312546 110.0
    vertex -18.117333157176386 72.32139584023463 109.99999999999999
    vertex 0.08296300000000426 80.0 110.0
  endloop
endfacet
facet normal 0.24746530911936762 -0.5865573769513508 0.7711753136131931
  outer loop
    vertex 0.08296300000000426 80.0 110.0
    vertex -18.117333157176386 72.32139584023463 109.99999999999999
    vertex -10.826336156596868 75.13868190605952 109.8031979253409
  endloop
endfacet
facet normal 0.03442817085150078 -0.11743933176287713 0.9924831003130022
  outer loop
    vertex 0.08296300000000426 80.0 110.0
    vertex -10.826336156596868 75.13868190605952 109.8031979253409
    vertex -3.3232498277997498 77.33826473886172 109.8031979253409
  endloop
endfacet
facet normal -0.014313679011834517 -0.0554988043216009 0.998356149533832
  outer loop
    vertex 4.334822811765189 78.90340418513938 110.00000000000009
    vertex 0.08296300000000426 80.0 110.0
    vertex -3.3232498277997498 77.33826473886172 109.8031979253409
  endloop
endfacet
facet normal -1.21716842415791e-13 -9.245312063676939e-13 1.0
  outer loop
    vertex 22.452155968941415 76.51821202537393 109.9999999999995
    vertex 20.78848660820168 77.27406610312546 110.0
    vertex 16.49019524844992 77.83994689599508 110.0
  endloop
endfacet
facet normal -0.11832148734143609 -0.2604309998461517 -0.958214861058022
  outer loop
    vertex 26.785704371377538 72.96822204871724 110.4297319561158
    vertex 20.78848660820168 77.27406610312546 110.0
    vertex 22.452155968941415 76.51821202537393 109.9999999999995
  endloop
endfacet
facet normal 0.09467324581884125 0.22856143404972842 0.9689151910209981
  outer loop
    vertex 40.08296300000002 69.28203230275508 110.0
    vertex 20.78848660820168 77.27406610312546 110.0
    vertex 26.785704371377538 72.96822204871724 110.4297319561158
  endloop
endfacet
facet normal 0.04677898640112734 0.05245607829251031 0.9975269852397244
  outer loop
    vertex 40.08296300000002 69.28203230275508 110.0
    vertex 26.785704371377538 72.96822204871724 110.4297319561158
    vertex 30.97895677598184 69.22878700903469 110.42973195611567
  endloop
endfacet
facet normal 0.04741806335981106 -0.06096222070434751 0.9970131066911806
  outer loop
    vertex 40.08296300000002 69.28203230275508 110.0
    vertex 30.97895677598184 69.22878700903469 110.42973195611567
    vertex 35.000000000000384 65.32836626491083 109.99999999999922
  endloop
endfacet
facet normal 2.213033498470137e-14 1.6809658297603062e-13 1.0
  outer loop
    vertex 10.435724804100843 78.63703305156272 110.0
    vertex 0.08296300000000426 80.0 110.0
    vertex 4.334822811765189 78.90340418513938 110.00000000000009
  endloop
endfacet
endsolid ECT-bottom-ago
