solid StirBar 2 clips hole-4
facet normal 0.9483670578995717 -0.3171749099328491 0.0
  outer loop
    vertex 26.653872216341963 -5.177203629063235 0.0
    vertex 24.4057048299279 -11.89932441128519 27.210182421952375
    vertex 24.405704644797904 -11.899324448587896 0.0
  endloop
endfacet
facet normal 0.9483670578995717 -0.3171749099328491 0.0
  outer loop
    vertex 24.4057048299279 -11.89932441128519 27.210182421952375
    vertex 26.653872216341963 -5.177203629063235 0.0
    vertex 26.653872401471958 -5.177203591760528 27.210182421952375
  endloop
endfacet
facet normal -0.7488650583946741 -0.6627225092869119 -1.7733068907756163e-08
  outer loop
    vertex -17.810976997994597 -20.494258215441313 16.31680389286872
    vertex -19.250066505507363 -18.86767254352306 0.0
    vertex -17.810525971504724 -20.49432863404477 0.0
  endloop
endfacet
facet normal -0.7488650583946741 -0.6627225092869119 -1.7733068907756163e-08
  outer loop
    vertex -19.250066505507363 -18.86767254352306 0.0
    vertex -17.810976997994597 -20.494258215441313 16.31680389286872
    vertex -22.508420609239195 -15.186227576757455 16.31680389286872
  endloop
endfacet
facet normal -0.7488650583946741 -0.6627225092869119 -1.7733068907756163e-08
  outer loop
    vertex -19.250066505507363 -18.86767254352306 0.0
    vertex -22.508420609239195 -15.186227576757455 16.31680389286872
    vertex -22.507969582749322 -15.186297995360915 0.0
  endloop
endfacet
facet normal -0.8948733122534726 -0.44632023818834293 1.2021944905645509e-09
  outer loop
    vertex -25.671532529031523 -8.843346273792159 27.239669518701373
    vertex -23.0169364155991 -14.16665200642173 16.31680394827031
    vertex -23.016485655032756 -14.166722453980116 27.239669574102972
  endloop
endfacet
facet normal -0.8948733122534726 -0.44632023818834293 1.2021944905645509e-09
  outer loop
    vertex -22.508420609239195 -15.186227576757455 16.31680389286872
    vertex -25.67153226310799 -8.843346244837246 0.0
    vertex -22.507969582749322 -15.186297995360915 0.0
  endloop
endfacet
facet normal -0.8948733122534726 -0.44632023818834293 1.2021944905645509e-09
  outer loop
    vertex -25.67153226310799 -8.843346244837246 0.0
    vertex -22.508420609239195 -15.186227576757455 16.31680389286872
    vertex -23.0169364155991 -14.16665200642173 16.31680394827031
  endloop
endfacet
facet normal -0.8948733122534726 -0.44632023818834293 1.2021944905645509e-09
  outer loop
    vertex -25.67153226310799 -8.843346244837246 0.0
    vertex -23.0169364155991 -14.16665200642173 16.31680394827031
    vertex -25.671532529031523 -8.843346273792159 27.239669518701373
  endloop
endfacet
facet normal -0.979897419219761 -0.19950199950489736 0.0
  outer loop
    vertex -27.08562270987233 -1.8977350910034971 27.239669518701373
    vertex -25.67153226310799 -8.843346244837246 0.0
    vertex -25.671532529031523 -8.843346273792159 27.239669518701373
  endloop
endfacet
facet normal -0.979897419219761 -0.19950199950489736 0.0
  outer loop
    vertex -25.67153226310799 -8.843346244837246 0.0
    vertex -27.08562270987233 -1.8977350910034971 27.239669518701373
    vertex -27.0856224439488 -1.8977350620485824 0.0
  endloop
endfacet
facet normal -0.9981431413462744 0.06091198062279377 0.0
  outer loop
    vertex -26.6538724822655 5.177203600108305 27.239669518701373
    vertex -27.0856224439488 -1.8977350620485824 0.0
    vertex -27.08562270987233 -1.8977350910034971 27.239669518701373
  endloop
endfacet
facet normal -0.9981431413462744 0.06091198062279377 0.0
  outer loop
    vertex -27.0856224439488 -1.8977350620485824 0.0
    vertex -26.6538724822655 5.177203600108305 27.239669518701373
    vertex -26.653872216341963 5.177203629063219 0.0
  endloop
endfacet
facet normal -0.9483670578995719 0.31717490993284825 0.0
  outer loop
    vertex -24.40570491072144 11.899324419632977 27.239669518701373
    vertex -26.653872216341963 5.177203629063219 0.0
    vertex -26.6538724822655 5.177203600108305 27.239669518701373
  endloop
endfacet
facet normal -0.9483670578995719 0.31717490993284825 0.0
  outer loop
    vertex -26.653872216341963 5.177203629063219 0.0
    vertex -24.40570491072144 11.899324419632977 27.239669518701373
    vertex -24.405704644797908 11.89932444858789 0.0
  endloop
endfacet
facet normal -0.8330450148819607 0.5532051689745334 -0.00021023836975631496
  outer loop
    vertex -23.016485655032916 13.995399593209438 27.239669872156654
    vertex -24.405704644797908 11.89932444858789 0.0
    vertex -24.40570491072144 11.899324419632977 27.239669518701373
  endloop
endfacet
facet normal -0.8330450148819607 0.5532051689745334 -0.00021023836975631496
  outer loop
    vertex -24.405704644797908 11.89932444858789 0.0
    vertex -23.016485655032916 13.995399593209438 27.239669872156654
    vertex -23.01693641559926 13.99547004076782 16.316804246323983
  endloop
endfacet
facet normal -0.8330450148819607 0.5532051689745334 -0.00021023836975631496
  outer loop
    vertex -24.405704644797908 11.89932444858789 0.0
    vertex -23.01693641559926 13.99547004076782 16.316804246323983
    vertex -21.547349641294556 16.190976700826386 0.0
  endloop
endfacet
facet normal -0.8330450148819607 0.5532051689745334 -0.00021023836975631496
  outer loop
    vertex -21.547349641294556 16.190976700826386 0.0
    vertex -23.01693641559926 13.99547004076782 16.316804246323983
    vertex -21.557511460732 16.19747264263918 16.316805279984724
  endloop
endfacet
facet normal -0.4463202480589687 0.8948733073304739 1.477385237899191e-10
  outer loop
    vertex -15.186749021850789 22.508040001352782 16.31680389286872
    vertex -10.86080911565522 24.665317727958467 0.0
    vertex -15.186297995360915 22.507969582749322 0.0
  endloop
endfacet
facet normal -0.4463202480589687 0.8948733073304739 1.477385237899191e-10
  outer loop
    vertex -10.86080911565522 24.665317727958467 0.0
    vertex -15.186749021850789 22.508040001352782 16.31680389286872
    vertex -10.861260142145122 24.66538814656193 16.31680389286872
  endloop
endfacet
facet normal 0.31717490993284664 0.9483670578995723 -4.417109217383224e-21
  outer loop
    vertex 10.860809019038841 24.753029086104984 16.287300251434328
    vertex 11.899324448587908 24.405704644797897 0.0
    vertex 10.860809115655215 24.753029031956952 0.0
  endloop
endfacet
facet normal 0.31717490993284664 0.9483670578995723 -4.417109217383224e-21
  outer loop
    vertex 11.899324448587908 24.405704644797897 0.0
    vertex 10.860809019038841 24.753029086104984 16.287300251434328
    vertex 11.899324351971536 24.40570469894592 16.287300251434328
  endloop
endfacet
facet normal 0.7488650583946743 0.662722509286912 0.0
  outer loop
    vertex 17.81052597150473 20.494328634044763 0.0
    vertex 22.507969486132943 15.186298049508938 16.287300251434328
    vertex 22.507969582749325 15.18629799536091 0.0
  endloop
endfacet
facet normal 0.7488650583946743 0.662722509286912 0.0
  outer loop
    vertex 22.507969486132943 15.186298049508938 16.287300251434328
    vertex 17.81052597150473 20.494328634044763 0.0
    vertex 17.81052587488835 20.494328688192795 16.287300251434328
  endloop
endfacet
facet normal 0.8948733073304724 0.44632024805897197 -3.559522529081077e-18
  outer loop
    vertex 22.507969582749325 15.18629799536091 0.0
    vertex 25.67153244823799 8.843346282139935 27.210182421952375
    vertex 25.671532263107995 8.84334624483723 0.0
  endloop
endfacet
facet normal 0.8948733073304724 0.44632024805897197 -3.559522529081077e-18
  outer loop
    vertex 25.67153244823799 8.843346282139935 27.210182421952375
    vertex 22.507969582749325 15.18629799536091 0.0
    vertex 23.2869728663752 13.624394160248459 16.287300251434328
  endloop
endfacet
facet normal 0.8948733073304724 0.44632024805897197 -3.559522529081077e-18
  outer loop
    vertex 25.67153244823799 8.843346282139935 27.210182421952375
    vertex 23.2869728663752 13.624394160248459 16.287300251434328
    vertex 23.327860461677282 13.542414968878631 27.210182421952375
  endloop
endfacet
facet normal 0.8948733073304724 0.44632024805897197 -3.559522529081077e-18
  outer loop
    vertex 23.327860461677282 13.542414968878631 27.210182421952375
    vertex 23.2869728663752 13.624394160248459 16.287300251434328
    vertex 23.28697314812158 13.624394143403144 27.210182421952375
  endloop
endfacet
facet normal 0.8948733073304724 0.44632024805897197 -3.559522529081077e-18
  outer loop
    vertex 23.2869728663752 13.624394160248459 16.287300251434328
    vertex 22.507969582749325 15.18629799536091 0.0
    vertex 22.507969486132943 15.186298049508938 16.287300251434328
  endloop
endfacet
facet normal 0.979897419219761 0.199501999504897 0.0
  outer loop
    vertex 25.671532263107995 8.84334624483723 0.0
    vertex 27.0856226290788 1.8977350993512765 27.210182421952375
    vertex 27.085622443948807 1.89773506204857 0.0
  endloop
endfacet
facet normal 0.979897419219761 0.199501999504897 0.0
  outer loop
    vertex 27.0856226290788 1.8977350993512765 27.210182421952375
    vertex 25.671532263107995 8.84334624483723 0.0
    vertex 25.67153244823799 8.843346282139935 27.210182421952375
  endloop
endfacet
facet normal 0.9981431413462742 -0.060911980622794175 0.0
  outer loop
    vertex 27.085622443948807 1.89773506204857 0.0
    vertex 26.653872401471958 -5.177203591760528 27.210182421952375
    vertex 26.653872216341963 -5.177203629063235 0.0
  endloop
endfacet
facet normal 0.9981431413462742 -0.060911980622794175 0.0
  outer loop
    vertex 26.653872401471958 -5.177203591760528 27.210182421952375
    vertex 27.085622443948807 1.89773506204857 0.0
    vertex 27.0856226290788 1.8977350993512765 27.210182421952375
  endloop
endfacet
facet normal 0.5518228932873029 0.8339613267076776 0.0
  outer loop
    vertex 11.899324351971536 24.40570469894592 16.287300251434328
    vertex 13.281778581899394 23.49095018886575 0.0
    vertex 11.899324448587908 24.405704644797897 0.0
  endloop
endfacet
facet normal 0.5518228932873029 0.8339613267076776 0.0
  outer loop
    vertex 13.281778581899394 23.49095018886575 0.0
    vertex 11.899324351971536 24.40570469894592 16.287300251434328
    vertex 13.281778485283022 23.490950243013774 16.287300251434328
  endloop
endfacet
facet normal -0.6627225092869156 0.7488650583946705 -2.9507321366077992e-08
  outer loop
    vertex -17.840764341192713 20.15931819573049 16.316805279984724
    vertex -15.186297995360915 22.507969582749322 0.0
    vertex -17.84031331470284 20.159247777127028 0.0
  endloop
endfacet
facet normal -0.6627225092869156 0.7488650583946705 -2.9507321366077992e-08
  outer loop
    vertex -15.186297995360915 22.507969582749322 0.0
    vertex -17.840764341192713 20.15931819573049 16.316805279984724
    vertex -15.186749021850789 22.508040001352782 16.31680389286872
  endloop
endfacet
facet normal -0.9999999999999999 -4.499761308693373e-09 2.3021575717131292e-08
  outer loop
    vertex 6.516485699170203 13.542414835922976 10.860809115655226
    vertex 6.516485469393128 -24.665317727958474 0.0
    vertex 6.516485932612882 -24.665317823406436 10.860808843131094
  endloop
endfacet
facet normal -0.9999999999999999 -4.499761308693373e-09 2.3021575717131292e-08
  outer loop
    vertex 6.516485469393128 -24.665317727958474 0.0
    vertex 6.516485699170203 13.542414835922976 10.860809115655226
    vertex 6.516485469393128 24.753029031956952 0.0
  endloop
endfacet
facet normal -0.9999999999999999 -4.499761308693373e-09 2.3021575717131292e-08
  outer loop
    vertex 6.516485469393128 24.753029031956952 0.0
    vertex 6.516485699170203 13.542414835922976 10.860809115655226
    vertex 6.51648546575481 24.753029033682193 10.860808843131096
  endloop
endfacet
facet normal 5.028903429227358e-09 -1.0 -3.089190280771033e-09
  outer loop
    vertex 10.86080948589691 -24.66531777098365 16.287300251434328
    vertex 6.516485469393128 -24.665317727958474 0.0
    vertex 10.860809115655215 -24.665317727958474 0.0
  endloop
endfacet
facet normal 5.028903429227358e-09 -1.0 -3.089190280771033e-09
  outer loop
    vertex 6.516485469393128 -24.665317727958474 0.0
    vertex 10.86080948589691 -24.66531777098365 16.287300251434328
    vertex 6.516485932612882 -24.665317823406436 10.860808843131094
  endloop
endfacet
facet normal 5.028903429227358e-09 -1.0 -3.089190280771033e-09
  outer loop
    vertex 6.516485932612882 -24.665317823406436 10.860808843131094
    vertex 10.86080948589691 -24.66531777098365 16.287300251434328
    vertex 6.5164858396348215 -24.66531777098365 16.287300251434328
  endloop
endfacet
facet normal -2.590031828791724e-09 1.0 -3.0940534578075e-09
  outer loop
    vertex 6.51648546575481 24.753029033682193 10.860808843131096
    vertex 10.860809115655215 24.753029031956952 0.0
    vertex 6.516485469393128 24.753029031956952 0.0
  endloop
endfacet
facet normal -2.590031828791724e-09 1.0 -3.0940534578075e-09
  outer loop
    vertex 10.860809115655215 24.753029031956952 0.0
    vertex 6.51648546575481 24.753029033682193 10.860808843131096
    vertex 10.860809019038841 24.753029086104984 16.287300251434328
  endloop
endfacet
facet normal -2.590031828791724e-09 1.0 -3.0940534578075e-09
  outer loop
    vertex 10.860809019038841 24.753029086104984 16.287300251434328
    vertex 6.51648546575481 24.753029033682193 10.860808843131096
    vertex 6.516485372776749 24.753029086104984 16.287300251434328
  endloop
endfacet
facet normal 0.9999999999999999 3.476394094065199e-09 1.5815094670104652e-08
  outer loop
    vertex -6.516485469393134 24.665317727958467 0.0
    vertex -6.516485469393133 -24.753029031956967 10.860809115655217
    vertex -6.516485469393133 -24.753029031956967 0.0
  endloop
endfacet
facet normal 0.9999999999999999 3.476394094065199e-09 1.5815094670104652e-08
  outer loop
    vertex -6.516485469393133 -24.753029031956967 10.860809115655217
    vertex -6.516485469393134 24.665317727958467 0.0
    vertex -6.516485812922609 24.665317836161176 10.856647253602116
  endloop
endfacet
facet normal 1.105770493037936e-05 0.9999999999274848 -4.770511655109085e-06
  outer loop
    vertex -10.861260142145122 24.66538814656193 16.31680389286872
    vertex -6.516485469393134 24.665317727958467 0.0
    vertex -10.86080911565522 24.665317727958467 0.0
  endloop
endfacet
facet normal 1.105770493037936e-05 0.9999999999274848 -4.770511655109085e-06
  outer loop
    vertex -6.516485469393134 24.665317727958467 0.0
    vertex -10.861260142145122 24.66538814656193 16.31680389286872
    vertex -6.516485812922609 24.665317836161176 10.856647253602116
  endloop
endfacet
facet normal 1.105770493037936e-05 0.9999999999274848 -4.770511655109085e-06
  outer loop
    vertex -6.516485812922609 24.665317836161176 10.856647253602116
    vertex -10.861260142145122 24.66538814656193 16.31680389286872
    vertex -6.51693649588304 24.66538814656193 16.31680389286872
  endloop
endfacet
facet normal 0.4463202480589664 -0.894873307330475 1.4404596631251126e-10
  outer loop
    vertex 15.186298365602603 -22.5079696257745 16.287300251434328
    vertex 10.860809115655215 -24.665317727958474 0.0
    vertex 15.18629799536091 -22.507969582749325 0.0
  endloop
endfacet
facet normal 0.4463202480589664 -0.894873307330475 1.4404596631251126e-10
  outer loop
    vertex 10.860809115655215 -24.665317727958474 0.0
    vertex 15.186298365602603 -22.5079696257745 16.287300251434328
    vertex 10.86080948589691 -24.66531777098365 16.287300251434328
  endloop
endfacet
facet normal -0.9999774030799748 -0.006722598401070929 -4.0936968105357385e-07
  outer loop
    vertex -6.662667665631529 46.38644406505943 27.21018242195237
    vertex -6.51693649588304 24.66538814656193 16.31680389286872
    vertex -6.516485469393134 24.665317727958467 27.21018242195237
  endloop
endfacet
facet normal -0.9999774030799748 -0.006722598401070929 -4.0936968105357385e-07
  outer loop
    vertex -6.51693649588304 24.66538814656193 16.31680389286872
    vertex -6.662667665631529 46.38644406505943 27.21018242195237
    vertex -6.641330629298184 43.21598641849277 10.860809115655217
  endloop
endfacet
facet normal -0.9999774030799748 -0.006722598401070929 -4.0936968105357385e-07
  outer loop
    vertex -6.641330629298184 43.21598641849277 10.860809115655217
    vertex -6.662667665631529 46.38644406505943 27.21018242195237
    vertex -6.641330629298184 43.21598641849277 0.0
  endloop
endfacet
facet normal -0.9999774030799748 -0.006722598401070929 -4.0936968105357385e-07
  outer loop
    vertex -6.641330629298184 43.21598641849277 0.0
    vertex -6.662667665631529 46.38644406505943 27.21018242195237
    vertex -6.662667665631529 46.38644406505943 0.0
  endloop
endfacet
facet normal -0.9999774030799748 -0.006722598401070929 -4.0936968105357385e-07
  outer loop
    vertex -6.662667665631529 46.38644406505943 0.0
    vertex -6.662667665631529 46.38644406505943 27.21018242195237
    vertex -6.662667665631529 46.38644406505943 21.72161823131043
  endloop
endfacet
facet normal -0.9999774030799748 -0.006722598401070929 -4.0936968105357385e-07
  outer loop
    vertex -6.641330629298184 43.21598641849277 10.860809115655217
    vertex -6.516485812922609 24.665317836161176 10.856647253602116
    vertex -6.51693649588304 24.66538814656193 16.31680389286872
  endloop
endfacet
facet normal 0.9999773546350059 0.006729800678746982 4.0014715178154555e-11
  outer loop
    vertex 6.392230602590492 43.21598641849277 10.860809115655217
    vertex 6.516485372776749 24.753029086104984 16.287300251434328
    vertex 6.51648546575481 24.753029033682193 10.860808843131096
  endloop
endfacet
facet normal 0.9999773546350059 0.006729800678746982 4.0014715178154555e-11
  outer loop
    vertex 6.370303273154732 46.47415536905792 0.0
    vertex 6.392230602590492 43.21598641849277 10.860809115655217
    vertex 6.392230602590492 43.21598641849277 0.0
  endloop
endfacet
facet normal 0.9999773546350059 0.006729800678746982 4.0014715178154555e-11
  outer loop
    vertex 6.516485372776749 24.753029086104984 16.287300251434328
    vertex 6.370303273154732 46.47415536905792 27.21018242195237
    vertex 6.516485469393128 24.753029031956952 27.21018242195237
  endloop
endfacet
facet normal 0.9999773546350059 0.006729800678746982 4.0014715178154555e-11
  outer loop
    vertex 6.370303273154732 46.47415536905792 27.21018242195237
    vertex 6.516485372776749 24.753029086104984 16.287300251434328
    vertex 6.392230602590492 43.21598641849277 10.860809115655217
  endloop
endfacet
facet normal 0.9999773546350059 0.006729800678746982 4.0014715178154555e-11
  outer loop
    vertex 6.370303273154732 46.47415536905792 27.21018242195237
    vertex 6.392230602590492 43.21598641849277 10.860809115655217
    vertex 6.370303273154732 46.47415536905792 0.0
  endloop
endfacet
facet normal 0.006729802295654614 -0.9999773546241242 0.0
  outer loop
    vertex 6.662667665631535 -46.38644406505943 27.210182421952375
    vertex -6.370303273154725 -46.474155369057925 0.0
    vertex 6.662667665631535 -46.38644406505943 0.0
  endloop
endfacet
facet normal 0.006729802295654614 -0.9999773546241242 0.0
  outer loop
    vertex -6.370303273154725 -46.474155369057925 0.0
    vertex 6.662667665631535 -46.38644406505943 27.210182421952375
    vertex -6.370303273154725 -46.474155369057925 27.210182421952375
  endloop
endfacet
facet normal 0.9999773547296373 0.006729786617506114 5.549884047850479e-09
  outer loop
    vertex 6.6407403361957735 -43.128275114494286 0.0
    vertex 6.662667665631535 -46.38644406505943 27.210182421952375
    vertex 6.662667665631535 -46.38644406505943 0.0
  endloop
endfacet
facet normal 0.9999773547296373 0.006729786617506114 5.549884047850479e-09
  outer loop
    vertex 6.662667665631535 -46.38644406505943 27.210182421952375
    vertex 6.6407403361957735 -43.128275114494286 0.0
    vertex 6.6407403361957735 -43.128275114494286 10.860809115655217
  endloop
endfacet
facet normal 0.9999773547296373 0.006729786617506114 5.549884047850479e-09
  outer loop
    vertex 6.662667665631535 -46.38644406505943 27.210182421952375
    vertex 6.6407403361957735 -43.128275114494286 10.860809115655217
    vertex 6.516485469393128 -24.665317727958474 27.210182421952375
  endloop
endfacet
facet normal 0.9999773547296373 0.006729786617506114 5.549884047850479e-09
  outer loop
    vertex 6.516485469393128 -24.665317727958474 27.210182421952375
    vertex 6.6407403361957735 -43.128275114494286 10.860809115655217
    vertex 6.516485932612882 -24.665317823406436 10.860808843131094
  endloop
endfacet
facet normal 0.9999773547296373 0.006729786617506114 5.549884047850479e-09
  outer loop
    vertex 6.516485469393128 -24.665317727958474 27.210182421952375
    vertex 6.516485932612882 -24.665317823406436 10.860808843131094
    vertex 6.5164858396348215 -24.66531777098365 16.287300251434328
  endloop
endfacet
facet normal -0.9999754601408823 -0.006993838147229013 -0.0004066251359134935
  outer loop
    vertex -6.370303273154725 -46.474155369057925 27.210182421952375
    vertex -6.370303273154725 -43.128275114494286 10.860809115655217
    vertex -6.370303273154725 -46.474155369057925 0.0
  endloop
endfacet
facet normal -0.9999754601408823 -0.006993838147229013 -0.0004066251359134935
  outer loop
    vertex -6.370303273154725 -43.128275114494286 10.860809115655217
    vertex -6.370303273154725 -46.474155369057925 27.210182421952375
    vertex -6.516485469393133 -24.753029031956967 27.210182421952375
  endloop
endfacet
facet normal -0.9999754601408823 -0.006993838147229013 -0.0004066251359134935
  outer loop
    vertex -6.370303273154725 -43.128275114494286 10.860809115655217
    vertex -6.516485469393133 -24.753029031956967 27.210182421952375
    vertex -6.516485469393133 -24.753029031956967 10.860809115655217
  endloop
endfacet
facet normal -0.9999754601408823 -0.006993838147229013 -0.0004066251359134935
  outer loop
    vertex -6.516485469393133 -24.753029031956967 10.860809115655217
    vertex -6.516485469393133 -24.753029031956967 27.210182421952375
    vertex -6.516936152353564 -24.75295872155621 16.320965754921822
  endloop
endfacet
facet normal -0.9999754601408823 -0.006993838147229013 -0.0004066251359134935
  outer loop
    vertex -6.370303273154725 -43.128275114494286 0.0
    vertex -6.370303273154725 -46.474155369057925 0.0
    vertex -6.370303273154725 -43.128275114494286 10.860809115655217
  endloop
endfacet
facet normal 8.141843575418017e-05 -1.0034787626194643e-05 -0.9999999966351708
  outer loop
    vertex 6.392230602590492 43.21598641849277 10.860809115655217
    vertex -6.516485812922609 24.665317836161176 10.856647253602116
    vertex -6.641330629298184 43.21598641849277 10.860809115655217
  endloop
endfacet
facet normal 8.141843575418017e-05 -1.0034787626194643e-05 -0.9999999966351708
  outer loop
    vertex -6.516485812922609 24.665317836161176 10.856647253602116
    vertex 6.392230602590492 43.21598641849277 10.860809115655217
    vertex -2.38326340749207 0.6817803971415501 10.86010189357365
  endloop
endfacet
facet normal 8.141843575418017e-05 -1.0034787626194643e-05 -0.9999999966351708
  outer loop
    vertex -6.516485812922609 24.665317836161176 10.856647253602116
    vertex -2.38326340749207 0.6817803971415501 10.86010189357365
    vertex -6.516485469393133 -24.753029031956967 10.860809115655217
  endloop
endfacet
facet normal 8.141843575418017e-05 -1.0034787626194643e-05 -0.9999999966351708
  outer loop
    vertex -6.516485469393133 -24.753029031956967 10.860809115655217
    vertex -2.38326340749207 0.6817803971415501 10.86010189357365
    vertex -2.466277574812748 0.05122519217501982 10.86010146217757
  endloop
endfacet
facet normal 8.141843575418017e-05 -1.0034787626194643e-05 -0.9999999966351708
  outer loop
    vertex -6.516485469393133 -24.753029031956967 10.860809115655217
    vertex -2.466277574812748 0.05122519217501982 10.86010146217757
    vertex -6.370303273154725 -43.128275114494286 10.860809115655217
  endloop
endfacet
facet normal 8.141843575418017e-05 -1.0034787626194643e-05 -0.9999999966351708
  outer loop
    vertex -2.38326340749207 0.6817803971415501 10.86010189357365
    vertex 6.392230602590492 43.21598641849277 10.860809115655217
    vertex -2.139878183845544 1.2693643070670046 10.860115813338144
  endloop
endfacet
facet normal 8.141843575418017e-05 -1.0034787626194643e-05 -0.9999999966351708
  outer loop
    vertex -2.139878183845544 1.2693643070670046 10.860115813338144
    vertex 6.392230602590492 43.21598641849277 10.860809115655217
    vertex -1.7527082046515798 1.7739340495182865 10.8601422728621
  endloop
endfacet
facet normal 8.141843575418017e-05 -1.0034787626194643e-05 -0.9999999966351708
  outer loop
    vertex -1.7527082046515798 1.7739340495182865 10.8601422728621
    vertex 6.392230602590492 43.21598641849277 10.860809115655217
    vertex -1.2481384641636044 2.161104030388267 10.860179468972692
  endloop
endfacet
facet normal 8.141843575418017e-05 -1.0034787626194643e-05 -0.9999999966351708
  outer loop
    vertex -1.2481384641636044 2.161104030388267 10.860179468972692
    vertex 6.392230602590492 43.21598641849277 10.860809115655217
    vertex -0.6605545563549517 2.4044892553093002 10.860224866816448
  endloop
endfacet
facet normal 8.141843575418017e-05 -1.0034787626194643e-05 -0.9999999966351708
  outer loop
    vertex -0.6605545563549517 2.4044892553093002 10.860224866816448
    vertex 6.392230602590492 43.21598641849277 10.860809115655217
    vertex -0.029999353514461605 2.487503423416121 10.860275372605345
  endloop
endfacet
facet normal 8.141843575418017e-05 -1.0034787626194643e-05 -0.9999999966351708
  outer loop
    vertex -0.029999353514461605 2.487503423416121 10.860275372605345
    vertex 6.392230602590492 43.21598641849277 10.860809115655217
    vertex 0.600555849326029 2.4044892563396485 10.86032754445333
  endloop
endfacet
facet normal 8.141843575418017e-05 -1.0034787626194643e-05 -0.9999999966351708
  outer loop
    vertex 0.600555849326029 2.4044892563396485 10.86032754445333
    vertex 6.392230602590492 43.21598641849277 10.860809115655217
    vertex 1.1881397571346815 2.1611040323787463 10.86037782693518
  endloop
endfacet
facet normal 8.141843575418017e-05 -1.0034787626194643e-05 -0.9999999966351708
  outer loop
    vertex 1.1881397571346815 2.1611040323787463 10.86037782693518
    vertex 6.392230602590492 43.21598641849277 10.860809115655217
    vertex 1.6927094976226567 1.7739340523332503 10.860422793382856
  endloop
endfacet
facet normal 8.141843575418017e-05 -1.0034787626194643e-05 -0.9999999966351708
  outer loop
    vertex 1.6927094976226567 1.7739340523332503 10.860422793382856
    vertex 6.392230602590492 43.21598641849277 10.860809115655217
    vertex 2.0798794768166204 1.2693643105146164 10.860459379407256
  endloop
endfacet
facet normal 8.141843575418017e-05 -1.0034787626194643e-05 -0.9999999966351708
  outer loop
    vertex 2.0798794768166204 1.2693643105146164 10.860459379407256
    vertex 6.392230602590492 43.21598641849277 10.860809115655217
    vertex 2.323264700463147 0.6817804009868617 10.860485091731285
  endloop
endfacet
facet normal 8.141843575418017e-05 -1.0034787626194643e-05 -0.9999999966351708
  outer loop
    vertex 2.323264700463147 0.6817804009868617 10.860485091731285
    vertex 6.392230602590492 43.21598641849277 10.860809115655217
    vertex 2.4062788677838243 0.05122519615597959 10.860498178102542
  endloop
endfacet
facet normal 8.141843575418017e-05 -1.0034787626194643e-05 -0.9999999966351708
  outer loop
    vertex -6.370303273154725 -43.128275114494286 10.860809115655217
    vertex -2.3832634074920707 -0.5793300126558616 10.860114548548827
    vertex 6.6407403361957735 -43.128275114494286 10.860809115655217
  endloop
endfacet
facet normal 8.141843575418017e-05 -1.0034787626194643e-05 -0.9999999966351708
  outer loop
    vertex -2.3832634074920707 -0.5793300126558616 10.860114548548827
    vertex -6.370303273154725 -43.128275114494286 10.860809115655217
    vertex -2.466277574812748 0.05122519217501982 10.86010146217757
  endloop
endfacet
facet normal 8.141843575418017e-05 -1.0034787626194643e-05 -0.9999999966351708
  outer loop
    vertex 6.6407403361957735 -43.128275114494286 10.860809115655217
    vertex -2.3832634074920707 -0.5793300126558616 10.860114548548827
    vertex -2.1398781838455445 -1.166913922183617 10.860140260872853
  endloop
endfacet
facet normal 8.141843575418017e-05 -1.0034787626194643e-05 -0.9999999966351708
  outer loop
    vertex 6.6407403361957735 -43.128275114494286 10.860809115655217
    vertex -2.1398781838455445 -1.166913922183617 10.860140260872853
    vertex -1.7527082046515814 -1.6714836640022503 10.860176846897255
  endloop
endfacet
facet normal 8.141843575418017e-05 -1.0034787626194643e-05 -0.9999999966351708
  outer loop
    vertex 6.6407403361957735 -43.128275114494286 10.860809115655217
    vertex -1.7527082046515814 -1.6714836640022503 10.860176846897255
    vertex -1.248138464163606 -2.0586536440477468 10.86022181334493
  endloop
endfacet
facet normal 8.141843575418017e-05 -1.0034787626194643e-05 -0.9999999966351708
  outer loop
    vertex 6.6407403361957735 -43.128275114494286 10.860809115655217
    vertex -1.248138464163606 -2.0586536440477468 10.86022181334493
    vertex -0.6605545563549537 -2.302038868008649 10.860272095826781
  endloop
endfacet
facet normal 8.141843575418017e-05 -1.0034787626194643e-05 -0.9999999966351708
  outer loop
    vertex 6.6407403361957735 -43.128275114494286 10.860809115655217
    vertex -0.6605545563549537 -2.302038868008649 10.860272095826781
    vertex -0.029999353514462195 -2.385053035085122 10.860324267674766
  endloop
endfacet
facet normal 8.141843575418017e-05 -1.0034787626194643e-05 -0.9999999966351708
  outer loop
    vertex 6.6407403361957735 -43.128275114494286 10.860809115655217
    vertex -0.029999353514462195 -2.385053035085122 10.860324267674766
    vertex 0.6005558493260273 -2.302038866978301 10.860374773463663
  endloop
endfacet
facet normal 8.141843575418017e-05 -1.0034787626194643e-05 -0.9999999966351708
  outer loop
    vertex 6.6407403361957735 -43.128275114494286 10.860809115655217
    vertex 0.6005558493260273 -2.302038866978301 10.860374773463663
    vertex 1.1881397571346797 -2.058653642057268 10.86042017130742
  endloop
endfacet
facet normal 8.141843575418017e-05 -1.0034787626194643e-05 -0.9999999966351708
  outer loop
    vertex 6.6407403361957735 -43.128275114494286 10.860809115655217
    vertex 1.1881397571346797 -2.058653642057268 10.86042017130742
    vertex 1.6927094976226567 -1.6714836611872874 10.86045736741801
  endloop
endfacet
facet normal 8.141843575418017e-05 -1.0034787626194643e-05 -0.9999999966351708
  outer loop
    vertex 6.6407403361957735 -43.128275114494286 10.860809115655217
    vertex 1.6927094976226567 -1.6714836611872874 10.86045736741801
    vertex 2.07987947681662 -1.166913918736006 10.860483826941968
  endloop
endfacet
facet normal 8.141843575418017e-05 -1.0034787626194643e-05 -0.9999999966351708
  outer loop
    vertex 6.6407403361957735 -43.128275114494286 10.860809115655217
    vertex 2.07987947681662 -1.166913918736006 10.860483826941968
    vertex 2.323264700463146 -0.5793300088105523 10.86049774670646
  endloop
endfacet
facet normal 8.141843575418017e-05 -1.0034787626194643e-05 -0.9999999966351708
  outer loop
    vertex 6.6407403361957735 -43.128275114494286 10.860809115655217
    vertex 2.323264700463146 -0.5793300088105523 10.86049774670646
    vertex 2.4062788677838243 0.05122519615597959 10.860498178102542
  endloop
endfacet
facet normal 8.141843575418017e-05 -1.0034787626194643e-05 -0.9999999966351708
  outer loop
    vertex 6.6407403361957735 -43.128275114494286 10.860809115655217
    vertex 2.4062788677838243 0.05122519615597959 10.860498178102542
    vertex 6.516485932612882 -24.665317823406436 10.860808843131094
  endloop
endfacet
facet normal 8.141843575418017e-05 -1.0034787626194643e-05 -0.9999999966351708
  outer loop
    vertex 6.516485932612882 -24.665317823406436 10.860808843131094
    vertex 2.4062788677838243 0.05122519615597959 10.860498178102542
    vertex 6.392230602590492 43.21598641849277 10.860809115655217
  endloop
endfacet
facet normal 8.141843575418017e-05 -1.0034787626194643e-05 -0.9999999966351708
  outer loop
    vertex 6.516485932612882 -24.665317823406436 10.860808843131094
    vertex 6.392230602590492 43.21598641849277 10.860809115655217
    vertex 6.51648546575481 24.753029033682193 10.860808843131096
  endloop
endfacet
facet normal 8.141843575418017e-05 -1.0034787626194643e-05 -0.9999999966351708
  outer loop
    vertex 6.516485932612882 -24.665317823406436 10.860808843131094
    vertex 6.51648546575481 24.753029033682193 10.860808843131096
    vertex 6.516485699170203 13.542414835922976 10.860809115655226
  endloop
endfacet
facet normal 0.0 0.0 -1.0
  outer loop
    vertex 6.6407403361957735 -43.128275114494286 0.0
    vertex -6.370303273154725 -46.474155369057925 0.0
    vertex -6.370303273154725 -43.128275114494286 0.0
  endloop
endfacet
facet normal 0.0 0.0 -1.0
  outer loop
    vertex -6.370303273154725 -46.474155369057925 0.0
    vertex 6.6407403361957735 -43.128275114494286 0.0
    vertex 6.662667665631535 -46.38644406505943 0.0
  endloop
endfacet
facet normal 0.0 1.0 0.0
  outer loop
    vertex -6.370303273154725 -43.128275114494286 10.860809115655217
    vertex 6.6407403361957735 -43.128275114494286 0.0
    vertex -6.370303273154725 -43.128275114494286 0.0
  endloop
endfacet
facet normal 0.0 1.0 0.0
  outer loop
    vertex 6.6407403361957735 -43.128275114494286 0.0
    vertex -6.370303273154725 -43.128275114494286 10.860809115655217
    vertex 6.6407403361957735 -43.128275114494286 10.860809115655217
  endloop
endfacet
facet normal -1.1071870489798946e-05 -0.9999999999273325 4.769596681544679e-06
  outer loop
    vertex -6.516485469393133 -24.753029031956967 10.860809115655217
    vertex -10.860809115655218 -24.753029031956967 0.0
    vertex -6.516485469393133 -24.753029031956967 0.0
  endloop
endfacet
facet normal -1.1071870489798946e-05 -0.9999999999273325 4.769596681544679e-06
  outer loop
    vertex -10.860809115655218 -24.753029031956967 0.0
    vertex -6.516485469393133 -24.753029031956967 10.860809115655217
    vertex -10.86126014214512 -24.752958613353503 16.31680389286872
  endloop
endfacet
facet normal -1.1071870489798946e-05 -0.9999999999273325 4.769596681544679e-06
  outer loop
    vertex -10.86126014214512 -24.752958613353503 16.31680389286872
    vertex -6.516485469393133 -24.753029031956967 10.860809115655217
    vertex -6.516936152353564 -24.75295872155621 16.320965754921822
  endloop
endfacet
facet normal 0.0 0.0 -1.0
  outer loop
    vertex 6.370303273154732 46.47415536905792 0.0
    vertex -6.641330629298184 43.21598641849277 0.0
    vertex -6.662667665631529 46.38644406505943 0.0
  endloop
endfacet
facet normal 0.0 0.0 -1.0
  outer loop
    vertex -6.641330629298184 43.21598641849277 0.0
    vertex 6.370303273154732 46.47415536905792 0.0
    vertex 6.392230602590492 43.21598641849277 0.0
  endloop
endfacet
facet normal 0.0 -1.0 0.0
  outer loop
    vertex 6.392230602590492 43.21598641849277 10.860809115655217
    vertex -6.641330629298184 43.21598641849277 0.0
    vertex 6.392230602590492 43.21598641849277 0.0
  endloop
endfacet
facet normal 0.0 -1.0 0.0
  outer loop
    vertex -6.641330629298184 43.21598641849277 0.0
    vertex 6.392230602590492 43.21598641849277 10.860809115655217
    vertex -6.641330629298184 43.21598641849277 10.860809115655217
  endloop
endfacet
facet normal -0.31717490993284975 -0.9483670578995714 3.729426606500281e-12
  outer loop
    vertex -10.86126014214512 -24.752958613353503 16.31680389286872
    vertex -11.899324448587896 -24.405704644797904 0.0
    vertex -10.860809115655218 -24.753029031956967 0.0
  endloop
endfacet
facet normal -0.31717490993284975 -0.9483670578995714 3.729426606500281e-12
  outer loop
    vertex -11.899324448587896 -24.405704644797904 0.0
    vertex -10.86126014214512 -24.752958613353503 16.31680389286872
    vertex -11.8997754750778 -24.405634226194447 16.31680389286872
  endloop
endfacet
facet normal -0.5518228932873019 -0.8339613267076785 -9.491772208701656e-09
  outer loop
    vertex -11.8997754750778 -24.405634226194447 16.31680389286872
    vertex -13.281778581899388 -23.490950188865757 0.0
    vertex -11.899324448587896 -24.405704644797904 0.0
  endloop
endfacet
facet normal -0.5518228932873019 -0.8339613267076785 -9.491772208701656e-09
  outer loop
    vertex -13.281778581899388 -23.490950188865757 0.0
    vertex -11.8997754750778 -24.405634226194447 16.31680389286872
    vertex -13.282229608389292 -23.490879770262296 16.31680389286872
  endloop
endfacet
facet normal -0.006729802295654143 0.9999773546241243 5.8758957878817555e-19
  outer loop
    vertex -6.662667665631529 46.38644406505943 21.72161823131043
    vertex 6.370303273154732 46.47415536905792 0.0
    vertex -6.662667665631529 46.38644406505943 0.0
  endloop
endfacet
facet normal -0.006729802295654143 0.9999773546241243 -0.0
  outer loop
    vertex -6.662667665631529 46.38644406505943 21.72161823131043
    vertex 6.370303273154732 46.47415536905792 27.21018242195237
    vertex 6.370303273154732 46.47415536905792 0.0
  endloop
endfacet
facet normal -0.006729802295654143 0.9999773546241243 -0.0
  outer loop
    vertex 6.370303273154732 46.47415536905792 27.21018242195237
    vertex -6.662667665631529 46.38644406505943 21.72161823131043
    vertex -6.662667665631529 46.38644406505943 27.21018242195237
  endloop
endfacet
facet normal 0.8330501419132487 -0.5531974200396803 -0.00027480858396634796
  outer loop
    vertex 21.545921925723587 -16.189643453821766 0.0
    vertex 23.32786064678919 -13.525262509496757 16.287300574082057
    vertex 21.5568379812696 -16.196866283868285 16.28730200412543
  endloop
endfacet
facet normal 0.8330501419132487 -0.5531974200396803 -0.00027480858396634796
  outer loop
    vertex 23.32786064678919 -13.525262509496757 16.287300574082057
    vertex 21.545921925723587 -16.189643453821766 0.0
    vertex 24.405704644797904 -11.899324448587896 0.0
  endloop
endfacet
facet normal 0.8330501419132487 -0.5531974200396803 -0.00027480858396634796
  outer loop
    vertex 23.32786064678919 -13.525262509496757 16.287300574082057
    vertex 24.405704644797904 -11.899324448587896 0.0
    vertex 23.32786046167749 -13.525262429168865 27.210182744600104
  endloop
endfacet
facet normal 0.8330501419132487 -0.5531974200396803 -0.00027480858396634796
  outer loop
    vertex 23.32786046167749 -13.525262429168865 27.210182744600104
    vertex 24.405704644797904 -11.899324448587896 0.0
    vertex 24.4057048299279 -11.89932441128519 27.210182421952375
  endloop
endfacet
facet normal 0.7045911027351792 -0.7096130511503003 -0.0008340165380447703
  outer loop
    vertex 21.5568379812696 -16.196866283868285 16.28730200412543
    vertex 15.18629799536091 -22.507969582749325 0.0
    vertex 21.545921925723587 -16.189643453821766 0.0
  endloop
endfacet
facet normal 0.7045911027351792 -0.7096130511503003 -0.0008340165380447703
  outer loop
    vertex 15.18629799536091 -22.507969582749325 0.0
    vertex 21.5568379812696 -16.196866283868285 16.28730200412543
    vertex 18.32094276079996 -19.402570759360888 16.28730111385163
  endloop
endfacet
facet normal 0.7037850182969819 -0.7104130122827956 -3.7200004790859254e-08
  outer loop
    vertex 18.32094276079996 -19.402570759360888 16.28730111385163
    vertex 15.186298365602603 -22.5079696257745 16.287300251434328
    vertex 15.18629799536091 -22.507969582749325 0.0
  endloop
endfacet
facet normal -0.9999999999999992 -8.311733727844406e-15 -4.2313067169831444e-08
  outer loop
    vertex 23.32786046167749 -13.525262429168865 27.210182744600104
    vertex 23.327860646788977 13.542414888550738 16.287300251434328
    vertex 23.32786064678919 -13.525262509496757 16.287300574082057
  endloop
endfacet
facet normal -0.9999999999999992 -8.311733727844406e-15 -4.2313067169831444e-08
  outer loop
    vertex 23.327860646788977 13.542414888550738 16.287300251434328
    vertex 23.32786046167749 -13.525262429168865 27.210182744600104
    vertex 23.327860461677282 13.542414968878631 27.210182421952375
  endloop
endfacet
facet normal 7.539231362490408e-17 -1.0 8.807165985713945e-09
  outer loop
    vertex 23.327860461677282 13.542414968878631 27.210182421952375
    vertex 23.2869728663752 13.542414985723946 16.287300251434328
    vertex 23.327860646788977 13.542414888550738 16.287300251434328
  endloop
endfacet
facet normal 7.539231362490408e-17 -1.0 8.807165985713945e-09
  outer loop
    vertex 23.2869728663752 13.542414985723946 16.287300251434328
    vertex 23.327860461677282 13.542414968878631 27.210182421952375
    vertex 23.28697314812158 13.542414968878628 27.210182421952375
  endloop
endfacet
facet normal 0.9999999999999997 4.073218597297318e-09 3.190709918438751e-08
  outer loop
    vertex 6.516485606192141 13.542414888345757 16.287300523958457
    vertex 6.516485469393128 -24.665317727958474 27.210182421952375
    vertex 6.5164858396348215 -24.66531777098365 16.287300251434328
  endloop
endfacet
facet normal 0.9999999999999997 4.073218597297318e-09 3.190709918438751e-08
  outer loop
    vertex 6.516485469393128 -24.665317727958474 27.210182421952375
    vertex 6.516485606192141 13.542414888345757 16.287300523958457
    vertex 6.516485469393128 13.542414931575923 27.210182421952375
  endloop
endfacet
facet normal 0.9999999999999999 1.3880618953464776e-08 1.0409155106672847e-08
  outer loop
    vertex 6.516485372776749 24.753029086104984 16.287300251434328
    vertex 6.516485469393128 13.542414931575923 27.210182421952375
    vertex 6.516485606192141 13.542414888345757 16.287300523958457
  endloop
endfacet
facet normal 0.9999999999999999 1.3880618953464776e-08 1.0409155106672847e-08
  outer loop
    vertex 6.516485469393128 13.542414931575923 27.210182421952375
    vertex 6.516485372776749 24.753029086104984 16.287300251434328
    vertex 6.516485469393128 24.753029031956952 27.21018242195237
  endloop
endfacet
facet normal 3.373013174108036e-08 6.79644160770023e-09 0.9999999999999994
  outer loop
    vertex 23.32786046167749 -13.525262429168865 27.210182744600104
    vertex 25.67153244823799 8.843346282139935 27.210182421952375
    vertex 23.327860461677282 13.542414968878631 27.210182421952375
  endloop
endfacet
facet normal 3.373013174108036e-08 6.79644160770023e-09 0.9999999999999994
  outer loop
    vertex 25.67153244823799 8.843346282139935 27.210182421952375
    vertex 23.32786046167749 -13.525262429168865 27.210182744600104
    vertex 24.4057048299279 -11.89932441128519 27.210182421952375
  endloop
endfacet
facet normal 3.373013174108036e-08 6.79644160770023e-09 0.9999999999999994
  outer loop
    vertex 25.67153244823799 8.843346282139935 27.210182421952375
    vertex 24.4057048299279 -11.89932441128519 27.210182421952375
    vertex 26.653872401471958 -5.177203591760528 27.210182421952375
  endloop
endfacet
facet normal 3.373013174108036e-08 6.79644160770023e-09 0.9999999999999994
  outer loop
    vertex 25.67153244823799 8.843346282139935 27.210182421952375
    vertex 26.653872401471958 -5.177203591760528 27.210182421952375
    vertex 27.0856226290788 1.8977350993512765 27.210182421952375
  endloop
endfacet
facet normal 3.373013174108036e-08 6.79644160770023e-09 0.9999999999999994
  outer loop
    vertex 23.327860461677282 13.542414968878631 27.210182421952375
    vertex 23.28697314812158 13.624394143403144 27.210182421952375
    vertex 23.28697314812158 13.542414968878628 27.210182421952375
  endloop
endfacet
facet normal -1.0 0.0 -6.499867861204414e-17
  outer loop
    vertex 23.28697314812158 13.624394143403144 27.210182421952375
    vertex 23.2869728663752 13.542414985723946 16.287300251434328
    vertex 23.28697314812158 13.542414968878628 27.210182421952375
  endloop
endfacet
facet normal -1.0 0.0 -6.499867861204414e-17
  outer loop
    vertex 23.2869728663752 13.542414985723946 16.287300251434328
    vertex 23.28697314812158 13.624394143403144 27.210182421952375
    vertex 23.2869728663752 13.624394160248459 16.287300251434328
  endloop
endfacet
facet normal 0.5518228932873025 0.8339613267076781 2.7216761146323828e-17
  outer loop
    vertex 17.81052587488835 20.494328688192795 16.287300251434328
    vertex 17.81052597150473 20.494328634044763 0.0
    vertex 15.58214100340402 21.968826063262515 16.287300251434328
  endloop
endfacet
facet normal 0.9999999999999999 3.4750621951498543e-09 -1.5815094670994566e-08
  outer loop
    vertex -6.516485812922609 24.665317836161176 10.856647253602116
    vertex -6.516936152353564 -24.75295872155621 16.320965754921822
    vertex -6.516485469393133 -24.753029031956967 10.860809115655217
  endloop
endfacet
facet normal 0.9999999999999999 3.4750621951498543e-09 -1.5815094670994566e-08
  outer loop
    vertex -6.516936152353564 -24.75295872155621 16.320965754921822
    vertex -6.516485812922609 24.665317836161176 10.856647253602116
    vertex -6.51693649588304 24.66538814656193 16.31680389286872
  endloop
endfacet
facet normal -4.8191566454070626e-08 -5.247308081318974e-09 0.999999999999999
  outer loop
    vertex -25.671532529031523 -8.843346273792159 27.239669518701373
    vertex -26.6538724822655 5.177203600108305 27.239669518701373
    vertex -27.08562270987233 -1.8977350910034971 27.239669518701373
  endloop
endfacet
facet normal -4.8191566454070626e-08 -5.247308081318974e-09 0.999999999999999
  outer loop
    vertex -26.6538724822655 5.177203600108305 27.239669518701373
    vertex -25.671532529031523 -8.843346273792159 27.239669518701373
    vertex -24.40570491072144 11.899324419632977 27.239669518701373
  endloop
endfacet
facet normal -4.8191566454070626e-08 -5.247308081318974e-09 0.999999999999999
  outer loop
    vertex -24.40570491072144 11.899324419632977 27.239669518701373
    vertex -25.671532529031523 -8.843346273792159 27.239669518701373
    vertex -23.016485655032756 -14.166722453980116 27.239669574102972
  endloop
endfacet
facet normal -4.8191566454070626e-08 -5.247308081318974e-09 0.999999999999999
  outer loop
    vertex -24.40570491072144 11.899324419632977 27.239669518701373
    vertex -23.016485655032756 -14.166722453980116 27.239669574102972
    vertex -23.016485655032916 13.995399593209438 27.239669872156654
  endloop
endfacet
facet normal 0.9999999999999996 5.989768656013239e-15 -3.1617069519745534e-08
  outer loop
    vertex -23.0169364155991 -14.16665200642173 16.31680394827031
    vertex -23.016485655032916 13.995399593209438 27.239669872156654
    vertex -23.016485655032756 -14.166722453980116 27.239669574102972
  endloop
endfacet
facet normal 0.9999999999999996 5.989768656013239e-15 -3.1617069519745534e-08
  outer loop
    vertex -23.016485655032916 13.995399593209438 27.239669872156654
    vertex -23.0169364155991 -14.16665200642173 16.31680394827031
    vertex -23.01693641559926 13.99547004076782 16.316804246323983
  endloop
endfacet
facet normal -0.5518228774557626 -0.833961337183231 -9.49177142883793e-09
  outer loop
    vertex -17.810976997994597 -20.494258215441313 16.31680389286872
    vertex -17.810525971504724 -20.49432863404477 0.0
    vertex -15.58938673712446 -21.96425961193496 16.31680389286872
  endloop
endfacet
facet normal 0.551822893287302 0.8339613267076783 -8.883026628392724e-17
  outer loop
    vertex 13.281778485283022 23.490950243013774 16.287300251434328
    vertex 17.81052597150473 20.494328634044763 0.0
    vertex 13.281778581899394 23.49095018886575 0.0
  endloop
endfacet
facet normal 0.551822893287302 0.8339613267076783 -8.883026628392724e-17
  outer loop
    vertex 17.81052597150473 20.494328634044763 0.0
    vertex 13.281778485283022 23.490950243013774 16.287300251434328
    vertex 15.58214100340402 21.968826063262515 16.287300251434328
  endloop
endfacet
facet normal 0.0 0.0 -1.0
  outer loop
    vertex 10.860809115655215 24.753029031956952 0.0
    vertex 6.516485469393128 -24.665317727958474 0.0
    vertex 6.516485469393128 24.753029031956952 0.0
  endloop
endfacet
facet normal 0.0 0.0 -1.0
  outer loop
    vertex 6.516485469393128 -24.665317727958474 0.0
    vertex 10.860809115655215 24.753029031956952 0.0
    vertex 10.860809115655215 -24.665317727958474 0.0
  endloop
endfacet
facet normal 0.0 0.0 -1.0
  outer loop
    vertex 10.860809115655215 -24.665317727958474 0.0
    vertex 10.860809115655215 24.753029031956952 0.0
    vertex 11.899324448587908 24.405704644797897 0.0
  endloop
endfacet
facet normal 0.0 0.0 -1.0
  outer loop
    vertex 10.860809115655215 -24.665317727958474 0.0
    vertex 11.899324448587908 24.405704644797897 0.0
    vertex 15.18629799536091 -22.507969582749325 0.0
  endloop
endfacet
facet normal 0.0 0.0 -1.0
  outer loop
    vertex 15.18629799536091 -22.507969582749325 0.0
    vertex 11.899324448587908 24.405704644797897 0.0
    vertex 13.281778581899394 23.49095018886575 0.0
  endloop
endfacet
facet normal 0.0 0.0 -1.0
  outer loop
    vertex 15.18629799536091 -22.507969582749325 0.0
    vertex 13.281778581899394 23.49095018886575 0.0
    vertex 17.81052597150473 20.494328634044763 0.0
  endloop
endfacet
facet normal 0.0 0.0 -1.0
  outer loop
    vertex 15.18629799536091 -22.507969582749325 0.0
    vertex 17.81052597150473 20.494328634044763 0.0
    vertex 21.545921925723587 -16.189643453821766 0.0
  endloop
endfacet
facet normal 0.0 0.0 -1.0
  outer loop
    vertex 21.545921925723587 -16.189643453821766 0.0
    vertex 17.81052597150473 20.494328634044763 0.0
    vertex 22.507969582749325 15.18629799536091 0.0
  endloop
endfacet
facet normal 0.0 0.0 -1.0
  outer loop
    vertex 21.545921925723587 -16.189643453821766 0.0
    vertex 22.507969582749325 15.18629799536091 0.0
    vertex 24.405704644797904 -11.899324448587896 0.0
  endloop
endfacet
facet normal 0.0 0.0 -1.0
  outer loop
    vertex 24.405704644797904 -11.899324448587896 0.0
    vertex 22.507969582749325 15.18629799536091 0.0
    vertex 25.671532263107995 8.84334624483723 0.0
  endloop
endfacet
facet normal 0.0 0.0 -1.0
  outer loop
    vertex 24.405704644797904 -11.899324448587896 0.0
    vertex 25.671532263107995 8.84334624483723 0.0
    vertex 26.653872216341963 -5.177203629063235 0.0
  endloop
endfacet
facet normal 0.0 0.0 -1.0
  outer loop
    vertex 26.653872216341963 -5.177203629063235 0.0
    vertex 25.671532263107995 8.84334624483723 0.0
    vertex 27.085622443948807 1.89773506204857 0.0
  endloop
endfacet
facet normal -0.730029021036355 0.6834159335335696 -0.0005387366154043284
  outer loop
    vertex -21.557511460732 16.19747264263918 16.316805279984724
    vertex -17.84031331470284 20.159247777127028 0.0
    vertex -21.547349641294556 16.190976700826386 0.0
  endloop
endfacet
facet normal -0.730029021036355 0.6834159335335696 -0.0005387366154043284
  outer loop
    vertex -17.84031331470284 20.159247777127028 0.0
    vertex -21.557511460732 16.19747264263918 16.316805279984724
    vertex -17.840764341192713 20.15931819573049 16.316805279984724
  endloop
endfacet
facet normal -0.5518228957757432 -0.8339613250611045 -7.610464305574703e-09
  outer loop
    vertex -13.282229608389292 -23.490879770262296 16.31680389286872
    vertex -17.810525971504724 -20.49432863404477 0.0
    vertex -13.281778581899388 -23.490950188865757 0.0
  endloop
endfacet
facet normal -0.5518228957757432 -0.8339613250611045 -7.610464305574703e-09
  outer loop
    vertex -17.810525971504724 -20.49432863404477 0.0
    vertex -13.282229608389292 -23.490879770262296 16.31680389286872
    vertex -15.58938673712446 -21.96425961193496 16.31680389286872
  endloop
endfacet
facet normal 0.0 0.0 -1.0
  outer loop
    vertex -26.653872216341963 5.177203629063219 0.0
    vertex -25.67153226310799 -8.843346244837246 0.0
    vertex -27.0856224439488 -1.8977350620485824 0.0
  endloop
endfacet
facet normal 0.0 0.0 -1.0
  outer loop
    vertex -25.67153226310799 -8.843346244837246 0.0
    vertex -26.653872216341963 5.177203629063219 0.0
    vertex -24.405704644797908 11.89932444858789 0.0
  endloop
endfacet
facet normal 0.0 0.0 -1.0
  outer loop
    vertex -25.67153226310799 -8.843346244837246 0.0
    vertex -24.405704644797908 11.89932444858789 0.0
    vertex -22.507969582749322 -15.186297995360915 0.0
  endloop
endfacet
facet normal 0.0 0.0 -1.0
  outer loop
    vertex -22.507969582749322 -15.186297995360915 0.0
    vertex -24.405704644797908 11.89932444858789 0.0
    vertex -21.547349641294556 16.190976700826386 0.0
  endloop
endfacet
facet normal 0.0 0.0 -1.0
  outer loop
    vertex -22.507969582749322 -15.186297995360915 0.0
    vertex -21.547349641294556 16.190976700826386 0.0
    vertex -19.250066505507363 -18.86767254352306 0.0
  endloop
endfacet
facet normal 0.0 0.0 -1.0
  outer loop
    vertex -19.250066505507363 -18.86767254352306 0.0
    vertex -21.547349641294556 16.190976700826386 0.0
    vertex -17.84031331470284 20.159247777127028 0.0
  endloop
endfacet
facet normal 0.0 0.0 -1.0
  outer loop
    vertex -19.250066505507363 -18.86767254352306 0.0
    vertex -17.84031331470284 20.159247777127028 0.0
    vertex -17.810525971504724 -20.49432863404477 0.0
  endloop
endfacet
facet normal 0.0 0.0 -1.0
  outer loop
    vertex -17.810525971504724 -20.49432863404477 0.0
    vertex -17.84031331470284 20.159247777127028 0.0
    vertex -15.186297995360915 22.507969582749322 0.0
  endloop
endfacet
facet normal 0.0 0.0 -1.0
  outer loop
    vertex -17.810525971504724 -20.49432863404477 0.0
    vertex -15.186297995360915 22.507969582749322 0.0
    vertex -13.281778581899388 -23.490950188865757 0.0
  endloop
endfacet
facet normal 0.0 0.0 -1.0
  outer loop
    vertex -13.281778581899388 -23.490950188865757 0.0
    vertex -15.186297995360915 22.507969582749322 0.0
    vertex -10.86080911565522 24.665317727958467 0.0
  endloop
endfacet
facet normal 0.0 0.0 -1.0
  outer loop
    vertex -13.281778581899388 -23.490950188865757 0.0
    vertex -10.86080911565522 24.665317727958467 0.0
    vertex -11.899324448587896 -24.405704644797904 0.0
  endloop
endfacet
facet normal 0.0 0.0 -1.0
  outer loop
    vertex -11.899324448587896 -24.405704644797904 0.0
    vertex -10.86080911565522 24.665317727958467 0.0
    vertex -10.860809115655218 -24.753029031956967 0.0
  endloop
endfacet
facet normal 0.0 0.0 -1.0
  outer loop
    vertex -10.860809115655218 -24.753029031956967 0.0
    vertex -10.86080911565522 24.665317727958467 0.0
    vertex -6.516485469393134 24.665317727958467 0.0
  endloop
endfacet
facet normal 0.0 0.0 -1.0
  outer loop
    vertex -10.860809115655218 -24.753029031956967 0.0
    vertex -6.516485469393134 24.665317727958467 0.0
    vertex -6.516485469393133 -24.753029031956967 0.0
  endloop
endfacet
facet normal -8.254029849928179e-05 1.2876993306506475e-05 0.9999999965106411
  outer loop
    vertex -23.0169364155991 -14.16665200642173 16.31680394827031
    vertex -21.557511460732 16.19747264263918 16.316805279984724
    vertex -23.01693641559926 13.99547004076782 16.316804246323983
  endloop
endfacet
facet normal -8.254029849928179e-05 1.2876993306506475e-05 0.9999999965106411
  outer loop
    vertex -21.557511460732 16.19747264263918 16.316805279984724
    vertex -23.0169364155991 -14.16665200642173 16.31680394827031
    vertex -22.508420609239195 -15.186227576757455 16.31680389286872
  endloop
endfacet
facet normal -8.254029849928179e-05 1.2876993306506475e-05 0.9999999965106411
  outer loop
    vertex -21.557511460732 16.19747264263918 16.316805279984724
    vertex -22.508420609239195 -15.186227576757455 16.31680389286872
    vertex -17.810976997994597 -20.494258215441313 16.31680389286872
  endloop
endfacet
facet normal -8.254029849928179e-05 1.2876993306506475e-05 0.9999999965106411
  outer loop
    vertex -21.557511460732 16.19747264263918 16.316805279984724
    vertex -17.810976997994597 -20.494258215441313 16.31680389286872
    vertex -17.840764341192713 20.15931819573049 16.316805279984724
  endloop
endfacet
facet normal -8.254029849928179e-05 1.2876993306506475e-05 0.9999999965106411
  outer loop
    vertex -17.840764341192713 20.15931819573049 16.316805279984724
    vertex -17.810976997994597 -20.494258215441313 16.31680389286872
    vertex -15.186749021850789 22.508040001352782 16.31680389286872
  endloop
endfacet
facet normal -8.254029849928179e-05 1.2876993306506475e-05 0.9999999965106411
  outer loop
    vertex -15.186749021850789 22.508040001352782 16.31680389286872
    vertex -17.810976997994597 -20.494258215441313 16.31680389286872
    vertex -15.58938673712446 -21.96425961193496 16.31680389286872
  endloop
endfacet
facet normal -8.254029849928179e-05 1.2876993306506475e-05 0.9999999965106411
  outer loop
    vertex -15.186749021850789 22.508040001352782 16.31680389286872
    vertex -15.58938673712446 -21.96425961193496 16.31680389286872
    vertex -13.282229608389292 -23.490879770262296 16.31680389286872
  endloop
endfacet
facet normal -8.254029849928179e-05 1.2876993306506475e-05 0.9999999965106411
  outer loop
    vertex -15.186749021850789 22.508040001352782 16.31680389286872
    vertex -13.282229608389292 -23.490879770262296 16.31680389286872
    vertex -10.861260142145122 24.66538814656193 16.31680389286872
  endloop
endfacet
facet normal -8.254029849928179e-05 1.2876993306506475e-05 0.9999999965106411
  outer loop
    vertex -10.861260142145122 24.66538814656193 16.31680389286872
    vertex -13.282229608389292 -23.490879770262296 16.31680389286872
    vertex -11.8997754750778 -24.405634226194447 16.31680389286872
  endloop
endfacet
facet normal -8.254029849928179e-05 1.2876993306506475e-05 0.9999999965106411
  outer loop
    vertex -10.861260142145122 24.66538814656193 16.31680389286872
    vertex -11.8997754750778 -24.405634226194447 16.31680389286872
    vertex -10.86126014214512 -24.752958613353503 16.31680389286872
  endloop
endfacet
facet normal -8.254029849928179e-05 1.2876993306506475e-05 0.9999999965106411
  outer loop
    vertex -10.861260142145122 24.66538814656193 16.31680389286872
    vertex -10.86126014214512 -24.752958613353503 16.31680389286872
    vertex -6.51693649588304 24.66538814656193 16.31680389286872
  endloop
endfacet
facet normal -8.254029849928179e-05 1.2876993306506475e-05 0.9999999965106411
  outer loop
    vertex -6.51693649588304 24.66538814656193 16.31680389286872
    vertex -10.86126014214512 -24.752958613353503 16.31680389286872
    vertex -6.516936152353564 -24.75295872155621 16.320965754921822
  endloop
endfacet
facet normal -1.7134102518362775e-08 9.660529392024174e-09 0.9999999999999999
  outer loop
    vertex 6.516485606192141 13.542414888345757 16.287300523958457
    vertex 10.860809019038841 24.753029086104984 16.287300251434328
    vertex 6.516485372776749 24.753029086104984 16.287300251434328
  endloop
endfacet
facet normal -1.7134102518362775e-08 9.660529392024174e-09 0.9999999999999999
  outer loop
    vertex 10.860809019038841 24.753029086104984 16.287300251434328
    vertex 6.516485606192141 13.542414888345757 16.287300523958457
    vertex 6.5164858396348215 -24.66531777098365 16.287300251434328
  endloop
endfacet
facet normal -1.7134102518362775e-08 9.660529392024174e-09 0.9999999999999999
  outer loop
    vertex 10.860809019038841 24.753029086104984 16.287300251434328
    vertex 6.5164858396348215 -24.66531777098365 16.287300251434328
    vertex 10.86080948589691 -24.66531777098365 16.287300251434328
  endloop
endfacet
facet normal -1.7134102518362775e-08 9.660529392024174e-09 0.9999999999999999
  outer loop
    vertex 10.860809019038841 24.753029086104984 16.287300251434328
    vertex 10.86080948589691 -24.66531777098365 16.287300251434328
    vertex 11.899324351971536 24.40570469894592 16.287300251434328
  endloop
endfacet
facet normal -1.7134102518362775e-08 9.660529392024174e-09 0.9999999999999999
  outer loop
    vertex 11.899324351971536 24.40570469894592 16.287300251434328
    vertex 10.86080948589691 -24.66531777098365 16.287300251434328
    vertex 15.186298365602603 -22.5079696257745 16.287300251434328
  endloop
endfacet
facet normal -1.7134102518362775e-08 9.660529392024174e-09 0.9999999999999999
  outer loop
    vertex 11.899324351971536 24.40570469894592 16.287300251434328
    vertex 15.186298365602603 -22.5079696257745 16.287300251434328
    vertex 13.281778485283022 23.490950243013774 16.287300251434328
  endloop
endfacet
facet normal -1.7134102518362775e-08 9.660529392024174e-09 0.9999999999999999
  outer loop
    vertex 13.281778485283022 23.490950243013774 16.287300251434328
    vertex 15.186298365602603 -22.5079696257745 16.287300251434328
    vertex 15.58214100340402 21.968826063262515 16.287300251434328
  endloop
endfacet
facet normal -1.7134102518362775e-08 9.660529392024174e-09 0.9999999999999999
  outer loop
    vertex 15.58214100340402 21.968826063262515 16.287300251434328
    vertex 15.186298365602603 -22.5079696257745 16.287300251434328
    vertex 18.32094276079996 -19.402570759360888 16.28730111385163
  endloop
endfacet
facet normal -1.7134102518362775e-08 9.660529392024174e-09 0.9999999999999999
  outer loop
    vertex 15.58214100340402 21.968826063262515 16.287300251434328
    vertex 18.32094276079996 -19.402570759360888 16.28730111385163
    vertex 17.81052587488835 20.494328688192795 16.287300251434328
  endloop
endfacet
facet normal -1.7134102518362775e-08 9.660529392024174e-09 0.9999999999999999
  outer loop
    vertex 17.81052587488835 20.494328688192795 16.287300251434328
    vertex 18.32094276079996 -19.402570759360888 16.28730111385163
    vertex 22.507969486132943 15.186298049508938 16.287300251434328
  endloop
endfacet
facet normal -1.7134102518362775e-08 9.660529392024174e-09 0.9999999999999999
  outer loop
    vertex 22.507969486132943 15.186298049508938 16.287300251434328
    vertex 18.32094276079996 -19.402570759360888 16.28730111385163
    vertex 21.5568379812696 -16.196866283868285 16.28730200412543
  endloop
endfacet
facet normal -1.7134102518362775e-08 9.660529392024174e-09 0.9999999999999999
  outer loop
    vertex 22.507969486132943 15.186298049508938 16.287300251434328
    vertex 21.5568379812696 -16.196866283868285 16.28730200412543
    vertex 23.32786064678919 -13.525262509496757 16.287300574082057
  endloop
endfacet
facet normal -1.7134102518362775e-08 9.660529392024174e-09 0.9999999999999999
  outer loop
    vertex 22.507969486132943 15.186298049508938 16.287300251434328
    vertex 23.32786064678919 -13.525262509496757 16.287300574082057
    vertex 23.2869728663752 13.542414985723946 16.287300251434328
  endloop
endfacet
facet normal -1.7134102518362775e-08 9.660529392024174e-09 0.9999999999999999
  outer loop
    vertex 23.2869728663752 13.542414985723946 16.287300251434328
    vertex 23.32786064678919 -13.525262509496757 16.287300574082057
    vertex 23.327860646788977 13.542414888550738 16.287300251434328
  endloop
endfacet
facet normal -1.7134102518362775e-08 9.660529392024174e-09 0.9999999999999999
  outer loop
    vertex 23.2869728663752 13.624394160248459 16.287300251434328
    vertex 22.507969486132943 15.186298049508938 16.287300251434328
    vertex 23.2869728663752 13.542414985723946 16.287300251434328
  endloop
endfacet
facet normal 0.9999999999999997 2.0820928461898033e-08 1.7134102504142942e-08
  outer loop
    vertex 6.51648546575481 24.753029033682193 10.860808843131096
    vertex 6.516485606192141 13.542414888345757 16.287300523958457
    vertex 6.516485699170203 13.542414835922976 10.860809115655226
  endloop
endfacet
facet normal 0.9999999999999997 2.0820928461898033e-08 1.7134102504142942e-08
  outer loop
    vertex 6.516485606192141 13.542414888345757 16.287300523958457
    vertex 6.51648546575481 24.753029033682193 10.860808843131096
    vertex 6.516485372776749 24.753029086104984 16.287300251434328
  endloop
endfacet
facet normal 0.9999999999999999 6.1098280016818505e-09 1.7134102646259986e-08
  outer loop
    vertex 6.516485699170203 13.542414835922976 10.860809115655226
    vertex 6.5164858396348215 -24.66531777098365 16.287300251434328
    vertex 6.516485932612882 -24.665317823406436 10.860808843131094
  endloop
endfacet
facet normal 0.9999999999999999 6.1098280016818505e-09 1.7134102646259986e-08
  outer loop
    vertex 6.5164858396348215 -24.66531777098365 16.287300251434328
    vertex 6.516485699170203 13.542414835922976 10.860809115655226
    vertex 6.516485606192141 13.542414888345757 16.287300523958457
  endloop
endfacet
facet normal -6.232374975212041e-17 7.463197683720665e-17 1.0
  outer loop
    vertex -6.516485469393134 24.665317727958467 27.21018242195237
    vertex 6.370303273154732 46.47415536905792 27.21018242195237
    vertex -6.662667665631529 46.38644406505943 27.21018242195237
  endloop
endfacet
facet normal -6.232374975212041e-17 7.463197683720665e-17 1.0
  outer loop
    vertex 6.370303273154732 46.47415536905792 27.21018242195237
    vertex -6.516485469393134 24.665317727958467 27.21018242195237
    vertex -2.7361976080806842 0.27784162506014753 27.210182421952357
  endloop
endfacet
facet normal -6.232374975212041e-17 7.463197683720665e-17 1.0
  outer loop
    vertex -2.7361976080806842 0.27784162506014753 27.210182421952357
    vertex -6.516485469393134 24.665317727958467 27.21018242195237
    vertex -6.516485469393133 -24.753029031956967 27.210182421952375
  endloop
endfacet
facet normal -6.232374975212041e-17 7.463197683720665e-17 1.0
  outer loop
    vertex -2.7361976080806842 0.27784162506014753 27.210182421952357
    vertex -6.516485469393133 -24.753029031956967 27.210182421952375
    vertex -6.370303273154725 -46.474155369057925 27.210182421952375
  endloop
endfacet
facet normal -6.232374975212041e-17 7.463197683720665e-17 1.0
  outer loop
    vertex 6.370303273154732 46.47415536905792 27.21018242195237
    vertex -2.7361976080806842 0.27784162506014753 27.210182421952357
    vertex -2.5736602532411825 0.9839683296182844 27.210182421952357
  endloop
endfacet
facet normal -6.232374975212041e-17 7.463197683720665e-17 1.0
  outer loop
    vertex 6.370303273154732 46.47415536905792 27.21018242195237
    vertex -2.5736602532411825 0.9839683296182844 27.210182421952357
    vertex -2.2339021850698706 1.6239665872103288 27.210182421952357
  endloop
endfacet
facet normal -6.232374975212041e-17 7.463197683720665e-17 1.0
  outer loop
    vertex 6.370303273154732 46.47415536905792 27.21018242195237
    vertex -2.2339021850698706 1.6239665872103288 27.210182421952357
    vertex -1.7400773544358668 2.154221574228514 27.210182421952357
  endloop
endfacet
facet normal -6.232374975212041e-17 7.463197683720665e-17 1.0
  outer loop
    vertex 6.370303273154732 46.47415536905792 27.21018242195237
    vertex -1.7400773544358668 2.154221574228514 27.210182421952357
    vertex -1.1258391074627632 2.5385972895953457 27.210182421952357
  endloop
endfacet
facet normal -6.232374975212041e-17 7.463197683720665e-17 1.0
  outer loop
    vertex 6.370303273154732 46.47415536905792 27.21018242195237
    vertex -1.1258391074627632 2.5385972895953457 27.210182421952357
    vertex -0.4330467656050779 2.7508991635194793 27.210182421952357
  endloop
endfacet
facet normal -6.232374975212041e-17 7.463197683720665e-17 1.0
  outer loop
    vertex 6.370303273154732 46.47415536905792 27.21018242195237
    vertex -0.4330467656050779 2.7508991635194793 27.210182421952357
    vertex 0.29108701793306835 2.776659174138421 27.210182421952357
  endloop
endfacet
facet normal -6.232374975212041e-17 7.463197683720665e-17 1.0
  outer loop
    vertex 6.370303273154732 46.47415536905792 27.21018242195237
    vertex 0.29108701793306835 2.776659174138421 27.210182421952357
    vertex 0.9972137224912038 2.614121819298919 27.210182421952357
  endloop
endfacet
facet normal -6.232374975212041e-17 7.463197683720665e-17 1.0
  outer loop
    vertex 6.370303273154732 46.47415536905792 27.21018242195237
    vertex 0.9972137224912038 2.614121819298919 27.210182421952357
    vertex 1.6372119800832483 2.2743637511276065 27.210182421952357
  endloop
endfacet
facet normal -6.232374975212041e-17 7.463197683720665e-17 1.0
  outer loop
    vertex 6.370303273154732 46.47415536905792 27.21018242195237
    vertex 1.6372119800832483 2.2743637511276065 27.210182421952357
    vertex 2.167466967101434 1.7805389204936026 27.210182421952357
  endloop
endfacet
facet normal -6.232374975212041e-17 7.463197683720665e-17 1.0
  outer loop
    vertex 6.370303273154732 46.47415536905792 27.21018242195237
    vertex 2.167466967101434 1.7805389204936026 27.210182421952357
    vertex 2.5518426824682656 1.1663006735204986 27.210182421952357
  endloop
endfacet
facet normal -6.232374975212041e-17 7.463197683720665e-17 1.0
  outer loop
    vertex 6.370303273154732 46.47415536905792 27.21018242195237
    vertex 2.5518426824682656 1.1663006735204986 27.210182421952357
    vertex 2.764144556392399 0.47350833166281225 27.210182421952357
  endloop
endfacet
facet normal -6.232374975212041e-17 7.463197683720665e-17 1.0
  outer loop
    vertex 6.370303273154732 46.47415536905792 27.21018242195237
    vertex 2.764144556392399 0.47350833166281225 27.210182421952357
    vertex 2.78990456701134 -0.2506254518753323 27.210182421952357
  endloop
endfacet
facet normal -6.232374975212041e-17 7.463197683720665e-17 1.0
  outer loop
    vertex -6.370303273154725 -46.474155369057925 27.210182421952375
    vertex -2.7104375974617434 -0.44629215847799597 27.210182421952357
    vertex -2.7361976080806842 0.27784162506014753 27.210182421952357
  endloop
endfacet
facet normal -6.232374975212041e-17 7.463197683720665e-17 1.0
  outer loop
    vertex -2.7104375974617434 -0.44629215847799597 27.210182421952357
    vertex -6.370303273154725 -46.474155369057925 27.210182421952375
    vertex 6.662667665631535 -46.38644406505943 27.210182421952375
  endloop
endfacet
facet normal -6.232374975212041e-17 7.463197683720665e-17 1.0
  outer loop
    vertex -2.7104375974617434 -0.44629215847799597 27.210182421952357
    vertex 6.662667665631535 -46.38644406505943 27.210182421952375
    vertex -2.4981357235376094 -1.1390845003356824 27.210182421952357
  endloop
endfacet
facet normal -6.232374975212041e-17 7.463197683720665e-17 1.0
  outer loop
    vertex -2.4981357235376094 -1.1390845003356824 27.210182421952357
    vertex 6.662667665631535 -46.38644406505943 27.210182421952375
    vertex -2.1137600081707775 -1.753322747308786 27.210182421952357
  endloop
endfacet
facet normal -6.232374975212041e-17 7.463197683720665e-17 1.0
  outer loop
    vertex -2.1137600081707775 -1.753322747308786 27.210182421952357
    vertex 6.662667665631535 -46.38644406505943 27.210182421952375
    vertex -1.5835050211525938 -2.247147577942789 27.210182421952357
  endloop
endfacet
facet normal -6.232374975212041e-17 7.463197683720665e-17 1.0
  outer loop
    vertex -1.5835050211525938 -2.247147577942789 27.210182421952357
    vertex 6.662667665631535 -46.38644406505943 27.210182421952375
    vertex -0.9435067635605484 -2.5869056461141016 27.210182421952357
  endloop
endfacet
facet normal -6.232374975212041e-17 7.463197683720665e-17 1.0
  outer loop
    vertex -0.9435067635605484 -2.5869056461141016 27.210182421952357
    vertex 6.662667665631535 -46.38644406505943 27.210182421952375
    vertex -0.23738005900241288 -2.7494430009536037 27.210182421952357
  endloop
endfacet
facet normal -6.232374975212041e-17 7.463197683720665e-17 1.0
  outer loop
    vertex -0.23738005900241288 -2.7494430009536037 27.210182421952357
    vertex 6.662667665631535 -46.38644406505943 27.210182421952375
    vertex 0.4867537245357322 -2.723682990334663 27.210182421952357
  endloop
endfacet
facet normal -6.232374975212041e-17 7.463197683720665e-17 1.0
  outer loop
    vertex 0.4867537245357322 -2.723682990334663 27.210182421952357
    vertex 6.662667665631535 -46.38644406505943 27.210182421952375
    vertex 1.179546066393418 -2.5113811164105293 27.210182421952357
  endloop
endfacet
facet normal -6.232374975212041e-17 7.463197683720665e-17 1.0
  outer loop
    vertex 1.179546066393418 -2.5113811164105293 27.210182421952357
    vertex 6.662667665631535 -46.38644406505943 27.210182421952375
    vertex 1.7937843133665219 -2.127005401043698 27.210182421952357
  endloop
endfacet
facet normal -6.232374975212041e-17 7.463197683720665e-17 1.0
  outer loop
    vertex 1.7937843133665219 -2.127005401043698 27.210182421952357
    vertex 6.662667665631535 -46.38644406505943 27.210182421952375
    vertex 2.2876091440005255 -1.596750414025513 27.210182421952357
  endloop
endfacet
facet normal -6.232374975212041e-17 7.463197683720665e-17 1.0
  outer loop
    vertex 2.2876091440005255 -1.596750414025513 27.210182421952357
    vertex 6.662667665631535 -46.38644406505943 27.210182421952375
    vertex 2.627367212171838 -0.9567521564334684 27.210182421952357
  endloop
endfacet
facet normal -6.232374975212041e-17 7.463197683720665e-17 1.0
  outer loop
    vertex 2.627367212171838 -0.9567521564334684 27.210182421952357
    vertex 6.662667665631535 -46.38644406505943 27.210182421952375
    vertex 2.78990456701134 -0.2506254518753323 27.210182421952357
  endloop
endfacet
facet normal -6.232374975212041e-17 7.463197683720665e-17 1.0
  outer loop
    vertex 2.78990456701134 -0.2506254518753323 27.210182421952357
    vertex 6.662667665631535 -46.38644406505943 27.210182421952375
    vertex 6.516485469393128 -24.665317727958474 27.210182421952375
  endloop
endfacet
facet normal -6.232374975212041e-17 7.463197683720665e-17 1.0
  outer loop
    vertex 2.78990456701134 -0.2506254518753323 27.210182421952357
    vertex 6.516485469393128 -24.665317727958474 27.210182421952375
    vertex 6.370303273154732 46.47415536905792 27.21018242195237
  endloop
endfacet
facet normal -6.232374975212041e-17 7.463197683720665e-17 1.0
  outer loop
    vertex 6.516485469393128 -24.665317727958474 27.210182421952375
    vertex 6.516485469393128 24.753029031956952 27.21018242195237
    vertex 6.370303273154732 46.47415536905792 27.21018242195237
  endloop
endfacet
facet normal -6.232374975212041e-17 7.463197683720665e-17 1.0
  outer loop
    vertex 6.516485469393128 24.753029031956952 27.21018242195237
    vertex 6.516485469393128 -24.665317727958474 27.210182421952375
    vertex 6.516485469393128 13.542414931575923 27.210182421952375
  endloop
endfacet
facet normal 0.9999999991321518 7.007807073477199e-09 4.1661690462294476e-05
  outer loop
    vertex -6.516936152353564 -24.75295872155621 16.320965754921822
    vertex -6.516485469393134 24.665317727958467 27.21018242195237
    vertex -6.516485469393133 -24.753029031956967 27.210182421952375
  endloop
endfacet
facet normal 0.9999999991321518 7.007807073477199e-09 4.1661690462294476e-05
  outer loop
    vertex -6.516485469393134 24.665317727958467 27.21018242195237
    vertex -6.516936152353564 -24.75295872155621 16.320965754921822
    vertex -6.51693649588304 24.66538814656193 16.31680389286872
  endloop
endfacet
endsolid StirBar 2 clips hole-4
