solid Syringe Ice Box
facet normal 1.0 -8.4227402992646085e-16 -1.609823385706477e-15
  outer loop
    vertex 19.1622086337578 29.493072520640375 -104.14958253593412
    vertex 19.16220863375798 -0.5069274793596485 -74.14958253593434
    vertex 19.1622086337578 -0.5069274793596485 -104.14958253593412
  endloop
endfacet
facet normal 1.0 -8.4227402992646085e-16 -1.609823385706477e-15
  outer loop
    vertex 19.16220863375798 -0.5069274793596485 -74.14958253593434
    vertex 19.1622086337578 29.493072520640375 -104.14958253593412
    vertex 19.16220863375782 -0.5069274793596485 -72.14958253593426
  endloop
endfacet
facet normal 1.0 -8.4227402992646085e-16 -1.609823385706477e-15
  outer loop
    vertex 19.16220863375782 -0.5069274793596485 -72.14958253593426
    vertex 19.1622086337578 29.493072520640375 -104.14958253593412
    vertex 19.16220863375798 12.493072520640322 -74.14958253593434
  endloop
endfacet
facet normal 1.0 -8.4227402992646085e-16 -1.609823385706477e-15
  outer loop
    vertex 19.16220863375798 12.493072520640322 -74.14958253593434
    vertex 19.1622086337578 29.493072520640375 -104.14958253593412
    vertex 19.16220863375798 16.493072520640354 -74.14958253593434
  endloop
endfacet
facet normal 1.0 -8.4227402992646085e-16 -1.609823385706477e-15
  outer loop
    vertex 19.16220863375798 16.493072520640354 -74.14958253593434
    vertex 19.1622086337578 29.493072520640375 -104.14958253593412
    vertex 19.162208633757903 16.493072520640354 -72.14958253593436
  endloop
endfacet
facet normal 1.0 -8.4227402992646085e-16 -1.609823385706477e-15
  outer loop
    vertex 19.162208633757903 16.493072520640354 -72.14958253593436
    vertex 19.1622086337578 29.493072520640375 -104.14958253593412
    vertex 19.162208633757903 29.493072520640375 -72.14958253593436
  endloop
endfacet
facet normal 1.0 -8.4227402992646085e-16 -1.609823385706477e-15
  outer loop
    vertex 19.162208633757903 29.493072520640375 -72.14958253593436
    vertex 19.1622086337578 29.493072520640375 -104.14958253593412
    vertex 19.16220863375798 29.493072520640375 -74.14958253593434
  endloop
endfacet
facet normal 1.0 -8.4227402992646085e-16 -1.609823385706477e-15
  outer loop
    vertex 19.16220863375782 12.493072520640322 -72.14958253593426
    vertex 19.16220863375782 -0.5069274793596485 -72.14958253593426
    vertex 19.16220863375798 12.493072520640322 -74.14958253593434
  endloop
endfacet
facet normal 0.0 1.0 0.0
  outer loop
    vertex -20.837791366242065 -0.5069274793596485 -74.1495825359343
    vertex 19.1622086337578 -0.5069274793596485 -104.14958253593412
    vertex -20.837791366242083 -0.5069274793596485 -104.14958253593431
  endloop
endfacet
facet normal 0.0 1.0 0.0
  outer loop
    vertex 19.1622086337578 -0.5069274793596485 -104.14958253593412
    vertex -20.837791366242065 -0.5069274793596485 -74.1495825359343
    vertex 19.16220863375798 -0.5069274793596485 -74.14958253593434
  endloop
endfacet
facet normal 0.0 1.0 0.0
  outer loop
    vertex 19.16220863375798 -0.5069274793596485 -74.14958253593434
    vertex -20.837791366242065 -0.5069274793596485 -74.1495825359343
    vertex 19.16220863375782 -0.5069274793596485 -72.14958253593426
  endloop
endfacet
facet normal 0.0 1.0 0.0
  outer loop
    vertex 19.16220863375782 -0.5069274793596485 -72.14958253593426
    vertex -20.837791366242065 -0.5069274793596485 -74.1495825359343
    vertex -20.837791366242058 -0.5069274793596485 -72.14958253593427
  endloop
endfacet
facet normal 0.0 -1.0 0.0
  outer loop
    vertex -20.837791366241966 -5.506927479359639 170.85041746406517
    vertex -31.837791366242012 -5.506927479359639 -109.1495825359341
    vertex -20.837791366242 -5.506927479359639 -109.1495825359342
  endloop
endfacet
facet normal 0.0 -1.0 0.0
  outer loop
    vertex -31.837791366242012 -5.506927479359639 -109.1495825359341
    vertex -20.837791366241966 -5.506927479359639 170.85041746406517
    vertex -31.83779136624208 -5.506927479359639 170.85041746406503
  endloop
endfacet
facet normal 1.0 -4.0658780976781597e-16 -5.551115123125782e-16
  outer loop
    vertex -20.837791366242 -5.506927479359639 -109.1495825359342
    vertex -20.8377913662421 -1.5069274793596483 -105.14958253593413
    vertex -20.837791366241966 -5.506927479359639 170.85041746406517
  endloop
endfacet
facet normal 1.0 -4.0658780976781597e-16 -5.551115123125782e-16
  outer loop
    vertex -20.8377913662421 -1.5069274793596483 -105.14958253593413
    vertex -20.837791366242 -5.506927479359639 -109.1495825359342
    vertex -20.837791366242 34.49307252064032 -109.1495825359342
  endloop
endfacet
facet normal 1.0 -4.0658780976781597e-16 -5.551115123125782e-16
  outer loop
    vertex -20.8377913662421 -1.5069274793596483 -105.14958253593413
    vertex -20.837791366242 34.49307252064032 -109.1495825359342
    vertex -20.8377913662421 30.493072520640375 -105.14958253593413
  endloop
endfacet
facet normal 1.0 -4.0658780976781597e-16 -5.551115123125782e-16
  outer loop
    vertex -20.8377913662421 30.493072520640375 -105.14958253593413
    vertex -20.837791366242 34.49307252064032 -109.1495825359342
    vertex -20.837791366242026 30.493072520640375 -104.14958253593427
  endloop
endfacet
facet normal 1.0 -4.0658780976781597e-16 -5.551115123125782e-16
  outer loop
    vertex -20.837791366242026 30.493072520640375 -104.14958253593427
    vertex -20.837791366242 34.49307252064032 -109.1495825359342
    vertex -20.837791366242083 34.49307252064032 -104.14958253593431
  endloop
endfacet
facet normal 1.0 -4.0658780976781597e-16 -5.551115123125782e-16
  outer loop
    vertex -20.837791366241966 -5.506927479359639 170.85041746406517
    vertex -20.83779136624194 -1.5069274793596483 166.85041746406537
    vertex -20.837791366241966 -0.5069274793596485 170.85041746406517
  endloop
endfacet
facet normal 1.0 -4.0658780976781597e-16 -5.551115123125782e-16
  outer loop
    vertex -20.83779136624194 -1.5069274793596483 166.85041746406537
    vertex -20.837791366241966 -5.506927479359639 170.85041746406517
    vertex -20.8377913662421 -1.5069274793596483 -105.14958253593413
  endloop
endfacet
facet normal 1.0 -4.0658780976781597e-16 -5.551115123125782e-16
  outer loop
    vertex -20.837791366241966 -0.5069274793596485 170.85041746406517
    vertex -20.83779136624194 -1.5069274793596483 166.85041746406537
    vertex -20.83779136624194 -0.5069274793596485 166.85041746406537
  endloop
endfacet
facet normal 1.0 5.398761829625537e-15 -3.469446951953613e-16
  outer loop
    vertex -20.837791366242083 34.49307252064032 -104.14958253593431
    vertex -20.837791366241994 30.493072520640418 166.8504174640654
    vertex -20.837791366242026 30.493072520640375 -104.14958253593427
  endloop
endfacet
facet normal 1.0 5.398761829625537e-15 -3.469446951953613e-16
  outer loop
    vertex -20.837791366241994 30.493072520640418 166.8504174640654
    vertex -20.837791366241966 29.493072520640375 170.85041746406517
    vertex -20.837791366241994 29.493072520640375 166.8504174640654
  endloop
endfacet
facet normal 1.0 5.398761829625537e-15 -3.469446951953613e-16
  outer loop
    vertex -20.837791366241966 29.493072520640375 170.85041746406517
    vertex -20.837791366241994 30.493072520640418 166.8504174640654
    vertex -20.837791366241966 34.49307252064032 170.85041746406517
  endloop
endfacet
facet normal 1.0 5.398761829625537e-15 -3.469446951953613e-16
  outer loop
    vertex -20.837791366241966 34.49307252064032 170.85041746406517
    vertex -20.837791366241994 30.493072520640418 166.8504174640654
    vertex -20.837791366242083 34.49307252064032 -104.14958253593431
  endloop
endfacet
facet normal 1.0 0.0 -4.163336342344337e-17
  outer loop
    vertex -20.837791366241994 29.493072520640375 166.8504174640654
    vertex -20.837791366241966 -0.5069274793596485 170.85041746406517
    vertex -20.83779136624194 -0.5069274793596485 166.85041746406537
  endloop
endfacet
facet normal 1.0 0.0 -4.163336342344337e-17
  outer loop
    vertex -20.837791366241966 -0.5069274793596485 170.85041746406517
    vertex -20.837791366241994 29.493072520640375 166.8504174640654
    vertex -20.837791366241966 29.493072520640375 170.85041746406517
  endloop
endfacet
facet normal -4.163336342344337e-17 0.0 -1.0
  outer loop
    vertex 19.16220863375798 12.493072520640322 -74.14958253593434
    vertex -20.837791366242065 -0.5069274793596485 -74.1495825359343
    vertex -20.837791366242065 12.493072520640322 -74.1495825359343
  endloop
endfacet
facet normal -4.163336342344337e-17 0.0 -1.0
  outer loop
    vertex -20.837791366242065 -0.5069274793596485 -74.1495825359343
    vertex 19.16220863375798 12.493072520640322 -74.14958253593434
    vertex 19.16220863375798 -0.5069274793596485 -74.14958253593434
  endloop
endfacet
facet normal 1.0 0.0 2.914335439641036e-16
  outer loop
    vertex 18.16220863375783 91.10152780054794 -99.36958580495049
    vertex 18.162208633758095 52.10152780054797 179.63041419504898
    vertex 18.16220863375783 52.10152780054797 -99.36958580495049
  endloop
endfacet
facet normal 1.0 0.0 2.914335439641036e-16
  outer loop
    vertex 18.162208633758095 52.10152780054797 179.63041419504898
    vertex 18.16220863375783 91.10152780054794 -99.36958580495049
    vertex 18.162208633758095 91.10152780054794 179.63041419504898
  endloop
endfacet
facet normal 0.0 -1.0 0.0
  outer loop
    vertex 18.16220863375783 52.10152780054797 -99.36958580495049
    vertex 9.162208633757999 52.10152780054797 179.63041419504862
    vertex 9.162208633757757 52.10152780054797 -99.36958580495072
  endloop
endfacet
facet normal 0.0 -1.0 0.0
  outer loop
    vertex 9.162208633757999 52.10152780054797 179.63041419504862
    vertex 18.16220863375783 52.10152780054797 -99.36958580495049
    vertex 18.162208633758095 52.10152780054797 179.63041419504898
  endloop
endfacet
facet normal 0.0 1.0 0.0
  outer loop
    vertex 9.162208633757999 91.10152780054794 179.63041419504862
    vertex 18.16220863375783 91.10152780054794 -99.36958580495049
    vertex 9.162208633757757 91.10152780054794 -99.36958580495072
  endloop
endfacet
facet normal 0.0 1.0 0.0
  outer loop
    vertex 18.16220863375783 91.10152780054794 -99.36958580495049
    vertex 9.162208633757999 91.10152780054794 179.63041419504862
    vertex 18.162208633758095 91.10152780054794 179.63041419504898
  endloop
endfacet
facet normal 1.0 1.001088101304498e-14 -4.163336342344337e-17
  outer loop
    vertex 9.162208633757887 52.10152780054797 -104.3695858049508
    vertex 9.162208633757887 47.10152780054794 184.63041419504876
    vertex 9.162208633757936 47.10152780054794 -104.36958580495084
  endloop
endfacet
facet normal 1.0 1.001088101304498e-14 -4.163336342344337e-17
  outer loop
    vertex 9.162208633757887 47.10152780054794 184.63041419504876
    vertex 9.162208633757887 52.10152780054797 -104.3695858049508
    vertex 9.162208633757832 52.10152780054797 184.6304141950486
  endloop
endfacet
facet normal 1.0 1.001088101304498e-14 -4.163336342344337e-17
  outer loop
    vertex 9.162208633757832 52.10152780054797 184.6304141950486
    vertex 9.162208633757887 52.10152780054797 -104.3695858049508
    vertex 9.162208633757757 52.10152780054797 -99.36958580495072
  endloop
endfacet
facet normal 1.0 1.001088101304498e-14 -4.163336342344337e-17
  outer loop
    vertex 9.162208633757832 52.10152780054797 184.6304141950486
    vertex 9.162208633757757 52.10152780054797 -99.36958580495072
    vertex 9.162208633757999 52.10152780054797 179.63041419504862
  endloop
endfacet
facet normal -1.0 4.511946372076607e-15 2.0816681711721685e-16
  outer loop
    vertex 4.162208633757939 96.10152780054798 184.63041419504884
    vertex 4.162208633757834 91.10152780054794 -104.36958580495073
    vertex 4.162208633757913 91.10152780054794 184.63041419504881
  endloop
endfacet
facet normal -1.0 4.511946372076607e-15 2.0816681711721685e-16
  outer loop
    vertex 4.162208633757834 91.10152780054794 -104.36958580495073
    vertex 4.162208633757939 96.10152780054798 184.63041419504884
    vertex 4.162208633757877 96.10152780054798 -104.36958580495087
  endloop
endfacet
facet normal 0.0 1.0 0.0
  outer loop
    vertex 4.162208633757939 96.10152780054798 184.63041419504884
    vertex 9.162208633757936 96.10152780054798 -104.36958580495084
    vertex 4.162208633757877 96.10152780054798 -104.36958580495087
  endloop
endfacet
facet normal 0.0 1.0 0.0
  outer loop
    vertex 9.162208633757936 96.10152780054798 -104.36958580495084
    vertex 4.162208633757939 96.10152780054798 184.63041419504884
    vertex 9.162208633757887 96.10152780054798 184.63041419504876
  endloop
endfacet
facet normal -4.607425552194399e-15 -1.3535839116229776e-14 -1.0
  outer loop
    vertex 4.162208633757877 96.10152780054798 -104.36958580495087
    vertex 9.162208633757887 91.10152780054794 -104.3695858049508
    vertex 4.162208633757834 91.10152780054794 -104.36958580495073
  endloop
endfacet
facet normal -4.607425552194399e-15 -1.3535839116229776e-14 -1.0
  outer loop
    vertex 9.162208633757887 91.10152780054794 -104.3695858049508
    vertex 4.162208633757877 96.10152780054798 -104.36958580495087
    vertex 9.162208633757936 96.10152780054798 -104.36958580495084
  endloop
endfacet
facet normal 0.0 -1.0 0.0
  outer loop
    vertex 9.162208633757887 47.10152780054794 184.63041419504876
    vertex 4.162208633757926 47.10152780054794 -104.36958580495084
    vertex 9.162208633757936 47.10152780054794 -104.36958580495084
  endloop
endfacet
facet normal 0.0 -1.0 0.0
  outer loop
    vertex 4.162208633757926 47.10152780054794 -104.36958580495084
    vertex 9.162208633757887 47.10152780054794 184.63041419504876
    vertex 4.162208633757939 47.10152780054794 184.63041419504884
  endloop
endfacet
facet normal 8.56259507742152e-15 1.8047785488306498e-14 1.0
  outer loop
    vertex 4.162208633757939 47.10152780054794 184.63041419504884
    vertex 9.162208633757832 52.10152780054797 184.6304141950486
    vertex 4.162208633757913 52.10152780054797 184.63041419504881
  endloop
endfacet
facet normal 8.56259507742152e-15 1.8047785488306498e-14 1.0
  outer loop
    vertex 9.162208633757832 52.10152780054797 184.6304141950486
    vertex 4.162208633757939 47.10152780054794 184.63041419504884
    vertex 9.162208633757887 47.10152780054794 184.63041419504876
  endloop
endfacet
facet normal -1.0 0.0 3.469446951953613e-16
  outer loop
    vertex 4.162208633757913 91.10152780054794 184.63041419504881
    vertex 4.162208633757834 52.10152780054797 -104.36958580495073
    vertex 4.162208633757913 52.10152780054797 184.63041419504881
  endloop
endfacet
facet normal -1.0 0.0 3.469446951953613e-16
  outer loop
    vertex 4.162208633757834 52.10152780054797 -104.36958580495073
    vertex 4.162208633757913 91.10152780054794 184.63041419504881
    vertex 4.162208633757834 91.10152780054794 -104.36958580495073
  endloop
endfacet
facet normal 1.809663530139005e-14 0.0 1.0
  outer loop
    vertex 9.162208633757832 52.10152780054797 184.6304141950486
    vertex 4.162208633757913 91.10152780054794 184.63041419504881
    vertex 4.162208633757913 52.10152780054797 184.63041419504881
  endloop
endfacet
facet normal 1.809663530139005e-14 0.0 1.0
  outer loop
    vertex 4.162208633757913 91.10152780054794 184.63041419504881
    vertex 9.162208633757832 52.10152780054797 184.6304141950486
    vertex 9.162208633757832 91.10152780054794 184.6304141950486
  endloop
endfacet
facet normal 0.0 1.0 0.0
  outer loop
    vertex 4.162208633757834 91.10152780054794 -104.36958580495073
    vertex 9.162208633757757 91.10152780054794 -99.36958580495072
    vertex 9.162208633757887 91.10152780054794 -104.3695858049508
  endloop
endfacet
facet normal 0.0 1.0 0.0
  outer loop
    vertex 9.162208633757757 91.10152780054794 -99.36958580495072
    vertex 4.162208633757834 91.10152780054794 -104.36958580495073
    vertex 4.162208633757913 91.10152780054794 184.63041419504881
  endloop
endfacet
facet normal 0.0 1.0 0.0
  outer loop
    vertex 9.162208633757757 91.10152780054794 -99.36958580495072
    vertex 4.162208633757913 91.10152780054794 184.63041419504881
    vertex 9.162208633757999 91.10152780054794 179.63041419504862
  endloop
endfacet
facet normal 0.0 1.0 0.0
  outer loop
    vertex 9.162208633757999 91.10152780054794 179.63041419504862
    vertex 4.162208633757913 91.10152780054794 184.63041419504881
    vertex 9.162208633757832 91.10152780054794 184.6304141950486
  endloop
endfacet
facet normal -1.809663530139005e-14 0.0 -1.0
  outer loop
    vertex 9.162208633757887 91.10152780054794 -104.3695858049508
    vertex 4.162208633757834 52.10152780054797 -104.36958580495073
    vertex 4.162208633757834 91.10152780054794 -104.36958580495073
  endloop
endfacet
facet normal -1.809663530139005e-14 0.0 -1.0
  outer loop
    vertex 4.162208633757834 52.10152780054797 -104.36958580495073
    vertex 9.162208633757887 91.10152780054794 -104.3695858049508
    vertex 9.162208633757887 52.10152780054797 -104.3695858049508
  endloop
endfacet
facet normal 0.0 -1.0 0.0
  outer loop
    vertex 9.162208633757757 52.10152780054797 -99.36958580495072
    vertex 4.162208633757834 52.10152780054797 -104.36958580495073
    vertex 9.162208633757887 52.10152780054797 -104.3695858049508
  endloop
endfacet
facet normal 0.0 -1.0 0.0
  outer loop
    vertex 4.162208633757834 52.10152780054797 -104.36958580495073
    vertex 9.162208633757757 52.10152780054797 -99.36958580495072
    vertex 4.162208633757913 52.10152780054797 184.63041419504881
  endloop
endfacet
facet normal 0.0 -1.0 0.0
  outer loop
    vertex 4.162208633757913 52.10152780054797 184.63041419504881
    vertex 9.162208633757757 52.10152780054797 -99.36958580495072
    vertex 9.162208633757999 52.10152780054797 179.63041419504862
  endloop
endfacet
facet normal 0.0 -1.0 0.0
  outer loop
    vertex 4.162208633757913 52.10152780054797 184.63041419504881
    vertex 9.162208633757999 52.10152780054797 179.63041419504862
    vertex 9.162208633757832 52.10152780054797 184.6304141950486
  endloop
endfacet
facet normal -1.2628786905111156e-15 0.0 1.0
  outer loop
    vertex 19.16220863375782 -0.5069274793596485 -72.14958253593426
    vertex -20.837791366242058 12.493072520640322 -72.14958253593427
    vertex -20.837791366242058 -0.5069274793596485 -72.14958253593427
  endloop
endfacet
facet normal -1.2628786905111156e-15 0.0 1.0
  outer loop
    vertex -20.837791366242058 12.493072520640322 -72.14958253593427
    vertex 19.16220863375782 -0.5069274793596485 -72.14958253593426
    vertex 19.16220863375782 12.493072520640322 -72.14958253593426
  endloop
endfacet
facet normal -1.0 0.0 4.163336342344337e-17
  outer loop
    vertex -20.837791366242058 12.493072520640322 -72.14958253593427
    vertex -20.837791366242065 -0.5069274793596485 -74.1495825359343
    vertex -20.837791366242058 -0.5069274793596485 -72.14958253593427
  endloop
endfacet
facet normal -1.0 0.0 4.163336342344337e-17
  outer loop
    vertex -20.837791366242065 -0.5069274793596485 -74.1495825359343
    vertex -20.837791366242058 12.493072520640322 -72.14958253593427
    vertex -20.837791366242065 12.493072520640322 -74.1495825359343
  endloop
endfacet
facet normal 0.0 1.0 0.0
  outer loop
    vertex -20.837791366242065 12.493072520640322 -74.1495825359343
    vertex 19.16220863375782 12.493072520640322 -72.14958253593426
    vertex 19.16220863375798 12.493072520640322 -74.14958253593434
  endloop
endfacet
facet normal 0.0 1.0 0.0
  outer loop
    vertex 19.16220863375782 12.493072520640322 -72.14958253593426
    vertex -20.837791366242065 12.493072520640322 -74.1495825359343
    vertex -20.837791366242058 12.493072520640322 -72.14958253593427
  endloop
endfacet
facet normal 0.0 -1.0 0.0
  outer loop
    vertex 19.162208633757903 16.493072520640354 -72.14958253593436
    vertex -20.837791366242065 16.493072520640354 -74.1495825359343
    vertex 19.16220863375798 16.493072520640354 -74.14958253593434
  endloop
endfacet
facet normal 0.0 -1.0 0.0
  outer loop
    vertex -20.837791366242065 16.493072520640354 -74.1495825359343
    vertex 19.162208633757903 16.493072520640354 -72.14958253593436
    vertex -20.837791366242058 16.493072520640354 -72.14958253593427
  endloop
endfacet
facet normal -1.0 0.0 4.163336342344337e-17
  outer loop
    vertex -20.837791366242058 29.493072520640375 -72.14958253593427
    vertex -20.837791366242065 16.493072520640354 -74.1495825359343
    vertex -20.837791366242058 16.493072520640354 -72.14958253593427
  endloop
endfacet
facet normal -1.0 0.0 4.163336342344337e-17
  outer loop
    vertex -20.837791366242065 16.493072520640354 -74.1495825359343
    vertex -20.837791366242058 29.493072520640375 -72.14958253593427
    vertex -20.837791366242065 29.493072520640375 -74.1495825359343
  endloop
endfacet
facet normal -2.9989899452687035e-14 0.0 1.0
  outer loop
    vertex 18.162208633758095 52.10152780054797 179.63041419504898
    vertex 9.162208633757999 91.10152780054794 179.63041419504862
    vertex 9.162208633757999 52.10152780054797 179.63041419504862
  endloop
endfacet
facet normal -2.9989899452687035e-14 0.0 1.0
  outer loop
    vertex 9.162208633757999 91.10152780054794 179.63041419504862
    vertex 18.162208633758095 52.10152780054797 179.63041419504898
    vertex 18.162208633758095 91.10152780054794 179.63041419504898
  endloop
endfacet
facet normal 1.0 0.0 2.987887715022452e-14
  outer loop
    vertex 9.162208633757999 91.10152780054794 179.63041419504862
    vertex 9.162208633757832 52.10152780054797 184.6304141950486
    vertex 9.162208633757999 52.10152780054797 179.63041419504862
  endloop
endfacet
facet normal 1.0 0.0 2.987887715022452e-14
  outer loop
    vertex 9.162208633757832 52.10152780054797 184.6304141950486
    vertex 9.162208633757999 91.10152780054794 179.63041419504862
    vertex 9.162208633757832 91.10152780054794 184.6304141950486
  endloop
endfacet
facet normal 8.56259507742152e-15 -1.804778548830648e-14 1.0
  outer loop
    vertex 9.162208633757832 91.10152780054794 184.6304141950486
    vertex 4.162208633757939 96.10152780054798 184.63041419504884
    vertex 4.162208633757913 91.10152780054794 184.63041419504881
  endloop
endfacet
facet normal 8.56259507742152e-15 -1.804778548830648e-14 1.0
  outer loop
    vertex 4.162208633757939 96.10152780054798 184.63041419504884
    vertex 9.162208633757832 91.10152780054794 184.6304141950486
    vertex 9.162208633757887 96.10152780054798 184.63041419504876
  endloop
endfacet
facet normal 2.5077162568720717e-14 0.0 -1.0
  outer loop
    vertex 18.16220863375783 91.10152780054794 -99.36958580495049
    vertex 9.162208633757757 52.10152780054797 -99.36958580495072
    vertex 9.162208633757757 91.10152780054794 -99.36958580495072
  endloop
endfacet
facet normal 2.5077162568720717e-14 0.0 -1.0
  outer loop
    vertex 9.162208633757757 52.10152780054797 -99.36958580495072
    vertex 18.16220863375783 91.10152780054794 -99.36958580495049
    vertex 18.16220863375783 52.10152780054797 -99.36958580495049
  endloop
endfacet
facet normal 1.0 0.0 2.4855117963795686e-14
  outer loop
    vertex 9.162208633757887 91.10152780054794 -104.3695858049508
    vertex 9.162208633757757 52.10152780054797 -99.36958580495072
    vertex 9.162208633757887 52.10152780054797 -104.3695858049508
  endloop
endfacet
facet normal 1.0 0.0 2.4855117963795686e-14
  outer loop
    vertex 9.162208633757757 52.10152780054797 -99.36958580495072
    vertex 9.162208633757887 91.10152780054794 -104.3695858049508
    vertex 9.162208633757757 91.10152780054794 -99.36958580495072
  endloop
endfacet
facet normal 1.0 -1.0010881013044966e-14 -4.163336342344337e-17
  outer loop
    vertex 9.162208633757936 96.10152780054798 -104.36958580495084
    vertex 9.162208633757757 91.10152780054794 -99.36958580495072
    vertex 9.162208633757887 91.10152780054794 -104.3695858049508
  endloop
endfacet
facet normal 1.0 -1.0010881013044966e-14 -4.163336342344337e-17
  outer loop
    vertex 9.162208633757757 91.10152780054794 -99.36958580495072
    vertex 9.162208633757936 96.10152780054798 -104.36958580495084
    vertex 9.162208633757999 91.10152780054794 179.63041419504862
  endloop
endfacet
facet normal 1.0 -1.0010881013044966e-14 -4.163336342344337e-17
  outer loop
    vertex 9.162208633757999 91.10152780054794 179.63041419504862
    vertex 9.162208633757936 96.10152780054798 -104.36958580495084
    vertex 9.162208633757832 91.10152780054794 184.6304141950486
  endloop
endfacet
facet normal 1.0 -1.0010881013044966e-14 -4.163336342344337e-17
  outer loop
    vertex 9.162208633757832 91.10152780054794 184.6304141950486
    vertex 9.162208633757936 96.10152780054798 -104.36958580495084
    vertex 9.162208633757887 96.10152780054798 184.63041419504876
  endloop
endfacet
facet normal -1.0 -9.023892744153222e-15 6.938893903907227e-17
  outer loop
    vertex 4.162208633757913 52.10152780054797 184.63041419504881
    vertex 4.162208633757926 47.10152780054794 -104.36958580495084
    vertex 4.162208633757939 47.10152780054794 184.63041419504884
  endloop
endfacet
facet normal -1.0 -9.023892744153222e-15 6.938893903907227e-17
  outer loop
    vertex 4.162208633757926 47.10152780054794 -104.36958580495084
    vertex 4.162208633757913 52.10152780054797 184.63041419504881
    vertex 4.162208633757834 52.10152780054797 -104.36958580495073
  endloop
endfacet
facet normal -4.607425552194399e-15 1.3535839116229768e-14 -1.0
  outer loop
    vertex 9.162208633757887 52.10152780054797 -104.3695858049508
    vertex 4.162208633757926 47.10152780054794 -104.36958580495084
    vertex 4.162208633757834 52.10152780054797 -104.36958580495073
  endloop
endfacet
facet normal -4.607425552194399e-15 1.3535839116229768e-14 -1.0
  outer loop
    vertex 4.162208633757926 47.10152780054794 -104.36958580495084
    vertex 9.162208633757887 52.10152780054797 -104.3695858049508
    vertex 9.162208633757936 47.10152780054794 -104.36958580495084
  endloop
endfacet
facet normal 1.0 -1.2560549398248254e-15 -4.163336342344337e-17
  outer loop
    vertex 19.16220863375798 16.493072520640354 -74.14958253593434
    vertex 19.16220863375782 12.493072520640322 -72.14958253593426
    vertex 19.16220863375798 12.493072520640322 -74.14958253593434
  endloop
endfacet
facet normal 1.0 -1.2560549398248254e-15 -4.163336342344337e-17
  outer loop
    vertex 19.16220863375782 12.493072520640322 -72.14958253593426
    vertex 19.162208633757906 -0.5069274793596485 165.8504174640653
    vertex 19.16220863375782 -0.5069274793596485 -72.14958253593426
  endloop
endfacet
facet normal 1.0 -1.2560549398248254e-15 -4.163336342344337e-17
  outer loop
    vertex 19.162208633757906 -0.5069274793596485 165.8504174640653
    vertex 19.16220863375782 12.493072520640322 -72.14958253593426
    vertex 19.162208633757906 29.493072520640375 165.8504174640653
  endloop
endfacet
facet normal 1.0 -1.2560549398248254e-15 -4.163336342344337e-17
  outer loop
    vertex 19.162208633757906 29.493072520640375 165.8504174640653
    vertex 19.16220863375782 12.493072520640322 -72.14958253593426
    vertex 19.162208633757903 16.493072520640354 -72.14958253593436
  endloop
endfacet
facet normal 1.0 -1.2560549398248254e-15 -4.163336342344337e-17
  outer loop
    vertex 19.162208633757903 16.493072520640354 -72.14958253593436
    vertex 19.16220863375782 12.493072520640322 -72.14958253593426
    vertex 19.16220863375798 16.493072520640354 -74.14958253593434
  endloop
endfacet
facet normal 1.0 -1.2560549398248254e-15 -4.163336342344337e-17
  outer loop
    vertex 19.162208633757906 29.493072520640375 165.8504174640653
    vertex 19.162208633757903 16.493072520640354 -72.14958253593436
    vertex 19.162208633757903 29.493072520640375 -72.14958253593436
  endloop
endfacet
facet normal -4.551914400963142e-15 0.0 1.0
  outer loop
    vertex 19.162208633757906 -0.5069274793596485 165.8504174640653
    vertex -20.837791366241945 29.493072520640375 165.85041746406503
    vertex -20.837791366241945 -0.5069274793596485 165.85041746406503
  endloop
endfacet
facet normal -4.551914400963142e-15 0.0 1.0
  outer loop
    vertex -20.837791366241945 29.493072520640375 165.85041746406503
    vertex 19.162208633757906 -0.5069274793596485 165.8504174640653
    vertex 19.162208633757906 29.493072520640375 165.8504174640653
  endloop
endfacet
facet normal 0.0 1.0 0.0
  outer loop
    vertex -20.837791366241945 -0.5069274793596485 165.85041746406503
    vertex 19.16220863375782 -0.5069274793596485 -72.14958253593426
    vertex -20.837791366242058 -0.5069274793596485 -72.14958253593427
  endloop
endfacet
facet normal 0.0 1.0 0.0
  outer loop
    vertex 19.16220863375782 -0.5069274793596485 -72.14958253593426
    vertex -20.837791366241945 -0.5069274793596485 165.85041746406503
    vertex 19.162208633757906 -0.5069274793596485 165.8504174640653
  endloop
endfacet
facet normal 0.0 -1.0 0.0
  outer loop
    vertex 19.1622086337578 29.493072520640375 -104.14958253593412
    vertex -20.837791366242065 29.493072520640375 -74.1495825359343
    vertex -20.837791366242083 29.493072520640375 -104.14958253593431
  endloop
endfacet
facet normal 0.0 -1.0 0.0
  outer loop
    vertex -20.837791366242065 29.493072520640375 -74.1495825359343
    vertex 19.1622086337578 29.493072520640375 -104.14958253593412
    vertex 19.16220863375798 29.493072520640375 -74.14958253593434
  endloop
endfacet
facet normal 2.42861286636753e-15 0.0 -1.0
  outer loop
    vertex 19.1622086337578 29.493072520640375 -104.14958253593412
    vertex -20.837791366242083 -0.5069274793596485 -104.14958253593431
    vertex -20.837791366242083 29.493072520640375 -104.14958253593431
  endloop
endfacet
facet normal 2.42861286636753e-15 0.0 -1.0
  outer loop
    vertex -20.837791366242083 -0.5069274793596485 -104.14958253593431
    vertex 19.1622086337578 29.493072520640375 -104.14958253593412
    vertex 19.1622086337578 -0.5069274793596485 -104.14958253593412
  endloop
endfacet
facet normal 0.0 -1.0 0.0
  outer loop
    vertex 19.162208633757903 29.493072520640375 -72.14958253593436
    vertex -20.837791366242065 29.493072520640375 -74.1495825359343
    vertex 19.16220863375798 29.493072520640375 -74.14958253593434
  endloop
endfacet
facet normal 0.0 -1.0 0.0
  outer loop
    vertex -20.837791366242065 29.493072520640375 -74.1495825359343
    vertex 19.162208633757903 29.493072520640375 -72.14958253593436
    vertex -20.837791366242058 29.493072520640375 -72.14958253593427
  endloop
endfacet
facet normal -4.163336342344337e-17 0.0 -1.0
  outer loop
    vertex 19.16220863375798 29.493072520640375 -74.14958253593434
    vertex -20.837791366242065 16.493072520640354 -74.1495825359343
    vertex -20.837791366242065 29.493072520640375 -74.1495825359343
  endloop
endfacet
facet normal -4.163336342344337e-17 0.0 -1.0
  outer loop
    vertex -20.837791366242065 16.493072520640354 -74.1495825359343
    vertex 19.16220863375798 29.493072520640375 -74.14958253593434
    vertex 19.16220863375798 16.493072520640354 -74.14958253593434
  endloop
endfacet
facet normal 1.2351231148954865e-15 0.0 1.0
  outer loop
    vertex 19.162208633757903 16.493072520640354 -72.14958253593436
    vertex -20.837791366242058 29.493072520640375 -72.14958253593427
    vertex -20.837791366242058 16.493072520640354 -72.14958253593427
  endloop
endfacet
facet normal 1.2351231148954865e-15 0.0 1.0
  outer loop
    vertex -20.837791366242058 29.493072520640375 -72.14958253593427
    vertex 19.162208633757903 16.493072520640354 -72.14958253593436
    vertex 19.162208633757903 29.493072520640375 -72.14958253593436
  endloop
endfacet
facet normal 0.0 -1.0 0.0
  outer loop
    vertex 19.162208633757906 29.493072520640375 165.8504174640653
    vertex -20.837791366242058 29.493072520640375 -72.14958253593427
    vertex 19.162208633757903 29.493072520640375 -72.14958253593436
  endloop
endfacet
facet normal 0.0 -1.0 0.0
  outer loop
    vertex -20.837791366242058 29.493072520640375 -72.14958253593427
    vertex 19.162208633757906 29.493072520640375 165.8504174640653
    vertex -20.837791366241945 29.493072520640375 165.85041746406503
  endloop
endfacet
facet normal -4.163336342344337e-17 0.0 -1.0
  outer loop
    vertex 20.162208633757793 29.493072520640375 -104.14958253593414
    vertex 19.1622086337578 -0.5069274793596485 -104.14958253593412
    vertex 19.1622086337578 29.493072520640375 -104.14958253593412
  endloop
endfacet
facet normal -4.163336342344337e-17 0.0 -1.0
  outer loop
    vertex 19.1622086337578 -0.5069274793596485 -104.14958253593412
    vertex 20.162208633757793 29.493072520640375 -104.14958253593414
    vertex 20.162208633757793 -0.5069274793596485 -104.14958253593414
  endloop
endfacet
facet normal 4.163336342344337e-17 0.0 1.0
  outer loop
    vertex 20.16220863375783 -0.5069274793596485 165.8504174640653
    vertex 19.162208633757906 29.493072520640375 165.8504174640653
    vertex 19.162208633757906 -0.5069274793596485 165.8504174640653
  endloop
endfacet
facet normal 4.163336342344337e-17 0.0 1.0
  outer loop
    vertex 19.162208633757906 29.493072520640375 165.8504174640653
    vertex 20.16220863375783 -0.5069274793596485 165.8504174640653
    vertex 20.16220863375783 29.493072520640375 165.8504174640653
  endloop
endfacet
facet normal 0.0 1.0 0.0
  outer loop
    vertex 19.1622086337578 -0.5069274793596485 -104.14958253593412
    vertex 20.16220863375783 -0.5069274793596485 165.8504174640653
    vertex 20.162208633757793 -0.5069274793596485 -104.14958253593414
  endloop
endfacet
facet normal 0.0 1.0 0.0
  outer loop
    vertex 20.16220863375783 -0.5069274793596485 165.8504174640653
    vertex 19.1622086337578 -0.5069274793596485 -104.14958253593412
    vertex 19.16220863375798 -0.5069274793596485 -74.14958253593434
  endloop
endfacet
facet normal 0.0 1.0 0.0
  outer loop
    vertex 20.16220863375783 -0.5069274793596485 165.8504174640653
    vertex 19.16220863375798 -0.5069274793596485 -74.14958253593434
    vertex 19.16220863375782 -0.5069274793596485 -72.14958253593426
  endloop
endfacet
facet normal 0.0 1.0 0.0
  outer loop
    vertex 20.16220863375783 -0.5069274793596485 165.8504174640653
    vertex 19.16220863375782 -0.5069274793596485 -72.14958253593426
    vertex 19.162208633757906 -0.5069274793596485 165.8504174640653
  endloop
endfacet
facet normal 1.0 0.0 -4.163336342344337e-17
  outer loop
    vertex 20.162208633757793 29.493072520640375 -104.14958253593414
    vertex 20.16220863375783 -0.5069274793596485 165.8504174640653
    vertex 20.162208633757793 -0.5069274793596485 -104.14958253593414
  endloop
endfacet
facet normal 1.0 0.0 -4.163336342344337e-17
  outer loop
    vertex 20.16220863375783 -0.5069274793596485 165.8504174640653
    vertex 20.162208633757793 29.493072520640375 -104.14958253593414
    vertex 20.16220863375783 29.493072520640375 165.8504174640653
  endloop
endfacet
facet normal 0.0 -1.0 0.0
  outer loop
    vertex 20.16220863375783 29.493072520640375 165.8504174640653
    vertex 19.1622086337578 29.493072520640375 -104.14958253593412
    vertex 20.162208633757793 29.493072520640375 -104.14958253593414
  endloop
endfacet
facet normal 0.0 -1.0 0.0
  outer loop
    vertex 19.1622086337578 29.493072520640375 -104.14958253593412
    vertex 20.16220863375783 29.493072520640375 165.8504174640653
    vertex 19.16220863375798 29.493072520640375 -74.14958253593434
  endloop
endfacet
facet normal 0.0 -1.0 0.0
  outer loop
    vertex 19.16220863375798 29.493072520640375 -74.14958253593434
    vertex 20.16220863375783 29.493072520640375 165.8504174640653
    vertex 19.162208633757903 29.493072520640375 -72.14958253593436
  endloop
endfacet
facet normal 0.0 -1.0 0.0
  outer loop
    vertex 19.162208633757903 29.493072520640375 -72.14958253593436
    vertex 20.16220863375783 29.493072520640375 165.8504174640653
    vertex 19.162208633757906 29.493072520640375 165.8504174640653
  endloop
endfacet
facet normal 1.0 0.0 -4.163336342344337e-17
  outer loop
    vertex -20.837791366241945 29.493072520640375 165.85041746406503
    vertex -20.83779136624194 -0.5069274793596485 166.85041746406537
    vertex -20.837791366241945 -0.5069274793596485 165.85041746406503
  endloop
endfacet
facet normal 1.0 0.0 -4.163336342344337e-17
  outer loop
    vertex -20.83779136624194 -0.5069274793596485 166.85041746406537
    vertex -20.837791366241945 29.493072520640375 165.85041746406503
    vertex -20.837791366241994 29.493072520640375 166.8504174640654
  endloop
endfacet
facet normal 3.469446951953613e-16 -4.744584041193202e-16 1.0
  outer loop
    vertex 20.162208633757903 -1.5069274793596483 166.8504174640653
    vertex -20.83779136624194 -0.5069274793596485 166.85041746406537
    vertex -20.83779136624194 -1.5069274793596483 166.85041746406537
  endloop
endfacet
facet normal 3.469446951953613e-16 -4.744584041193202e-16 1.0
  outer loop
    vertex -20.83779136624194 -0.5069274793596485 166.85041746406537
    vertex -20.837791366241994 30.493072520640418 166.8504174640654
    vertex -20.837791366241994 29.493072520640375 166.8504174640654
  endloop
endfacet
facet normal 3.469446951953613e-16 -4.744584041193202e-16 1.0
  outer loop
    vertex -20.837791366241994 30.493072520640418 166.8504174640654
    vertex -20.83779136624194 -0.5069274793596485 166.85041746406537
    vertex 20.162208633757903 30.493072520640375 166.8504174640653
  endloop
endfacet
facet normal 3.469446951953613e-16 -4.744584041193202e-16 1.0
  outer loop
    vertex 20.162208633757903 30.493072520640375 166.8504174640653
    vertex -20.83779136624194 -0.5069274793596485 166.85041746406537
    vertex 20.162208633757903 -1.5069274793596483 166.8504174640653
  endloop
endfacet
facet normal 0.0 -1.0 0.0
  outer loop
    vertex 20.162208633757903 -1.5069274793596483 166.8504174640653
    vertex -20.8377913662421 -1.5069274793596483 -105.14958253593413
    vertex 20.16220863375785 -1.5069274793596483 -105.14958253593416
  endloop
endfacet
facet normal 0.0 -1.0 0.0
  outer loop
    vertex -20.8377913662421 -1.5069274793596483 -105.14958253593413
    vertex 20.162208633757903 -1.5069274793596483 166.8504174640653
    vertex -20.83779136624194 -1.5069274793596483 166.85041746406537
  endloop
endfacet
facet normal -4.163336342344337e-17 0.0 -1.0
  outer loop
    vertex 20.16220863375785 30.493072520640375 -105.14958253593416
    vertex -20.8377913662421 -1.5069274793596483 -105.14958253593413
    vertex -20.8377913662421 30.493072520640375 -105.14958253593413
  endloop
endfacet
facet normal -4.163336342344337e-17 0.0 -1.0
  outer loop
    vertex -20.8377913662421 -1.5069274793596483 -105.14958253593413
    vertex 20.16220863375785 30.493072520640375 -105.14958253593416
    vertex 20.16220863375785 -1.5069274793596483 -105.14958253593416
  endloop
endfacet
facet normal 4.708879569705648e-16 1.0 -9.481299990083746e-17
  outer loop
    vertex -20.8377913662421 30.493072520640375 -105.14958253593413
    vertex 20.162208633757903 30.493072520640375 166.8504174640653
    vertex 20.16220863375785 30.493072520640375 -105.14958253593416
  endloop
endfacet
facet normal 4.708879569705648e-16 1.0 -9.481299990083746e-17
  outer loop
    vertex 20.162208633757903 30.493072520640375 166.8504174640653
    vertex -20.8377913662421 30.493072520640375 -105.14958253593413
    vertex -20.837791366242026 30.493072520640375 -104.14958253593427
  endloop
endfacet
facet normal 4.708879569705648e-16 1.0 -9.481299990083746e-17
  outer loop
    vertex 20.162208633757903 30.493072520640375 166.8504174640653
    vertex -20.837791366242026 30.493072520640375 -104.14958253593427
    vertex -20.837791366241994 30.493072520640418 166.8504174640654
  endloop
endfacet
facet normal 1.0 -3.805378902814492e-14 -3.469446951953613e-16
  outer loop
    vertex -20.837791366242026 30.493072520640375 -104.14958253593427
    vertex -20.837791366242065 29.493072520640375 -74.1495825359343
    vertex -20.837791366242083 29.493072520640375 -104.14958253593431
  endloop
endfacet
facet normal 1.0 -3.805378902814492e-14 -3.469446951953613e-16
  outer loop
    vertex -20.837791366242065 29.493072520640375 -74.1495825359343
    vertex -20.837791366242026 30.493072520640375 -104.14958253593427
    vertex -20.837791366242058 29.493072520640375 -72.14958253593427
  endloop
endfacet
facet normal 1.0 -3.805378902814492e-14 -3.469446951953613e-16
  outer loop
    vertex -20.837791366242058 29.493072520640375 -72.14958253593427
    vertex -20.837791366242026 30.493072520640375 -104.14958253593427
    vertex -20.837791366241945 29.493072520640375 165.85041746406503
  endloop
endfacet
facet normal 1.0 -3.805378902814492e-14 -3.469446951953613e-16
  outer loop
    vertex -20.837791366241945 29.493072520640375 165.85041746406503
    vertex -20.837791366242026 30.493072520640375 -104.14958253593427
    vertex -20.837791366241994 29.493072520640375 166.8504174640654
  endloop
endfacet
facet normal 1.0 -3.805378902814492e-14 -3.469446951953613e-16
  outer loop
    vertex -20.837791366241994 29.493072520640375 166.8504174640654
    vertex -20.837791366242026 30.493072520640375 -104.14958253593427
    vertex -20.837791366241994 30.493072520640418 166.8504174640654
  endloop
endfacet
facet normal 1.0 0.0 -4.163336342344337e-17
  outer loop
    vertex 20.16220863375785 -1.5069274793596483 -105.14958253593416
    vertex 20.162208633757793 -0.5069274793596485 -104.14958253593414
    vertex 20.162208633757903 -1.5069274793596483 166.8504174640653
  endloop
endfacet
facet normal 1.0 0.0 -4.163336342344337e-17
  outer loop
    vertex 20.162208633757793 -0.5069274793596485 -104.14958253593414
    vertex 20.16220863375785 -1.5069274793596483 -105.14958253593416
    vertex 20.16220863375785 30.493072520640375 -105.14958253593416
  endloop
endfacet
facet normal 1.0 0.0 -4.163336342344337e-17
  outer loop
    vertex 20.162208633757793 -0.5069274793596485 -104.14958253593414
    vertex 20.16220863375785 30.493072520640375 -105.14958253593416
    vertex 20.162208633757793 29.493072520640375 -104.14958253593414
  endloop
endfacet
facet normal 1.0 0.0 -4.163336342344337e-17
  outer loop
    vertex 20.162208633757793 29.493072520640375 -104.14958253593414
    vertex 20.16220863375785 30.493072520640375 -105.14958253593416
    vertex 20.16220863375783 29.493072520640375 165.8504174640653
  endloop
endfacet
facet normal 1.0 0.0 -4.163336342344337e-17
  outer loop
    vertex 20.162208633757903 -1.5069274793596483 166.8504174640653
    vertex 20.16220863375783 -0.5069274793596485 165.8504174640653
    vertex 20.162208633757903 30.493072520640375 166.8504174640653
  endloop
endfacet
facet normal 1.0 0.0 -4.163336342344337e-17
  outer loop
    vertex 20.16220863375783 -0.5069274793596485 165.8504174640653
    vertex 20.162208633757903 -1.5069274793596483 166.8504174640653
    vertex 20.162208633757793 -0.5069274793596485 -104.14958253593414
  endloop
endfacet
facet normal 1.0 0.0 -4.163336342344337e-17
  outer loop
    vertex 20.162208633757903 30.493072520640375 166.8504174640653
    vertex 20.16220863375783 -0.5069274793596485 165.8504174640653
    vertex 20.16220863375783 29.493072520640375 165.8504174640653
  endloop
endfacet
facet normal 1.0 0.0 -4.163336342344337e-17
  outer loop
    vertex 20.162208633757903 30.493072520640375 166.8504174640653
    vertex 20.16220863375783 29.493072520640375 165.8504174640653
    vertex 20.16220863375785 30.493072520640375 -105.14958253593416
  endloop
endfacet
facet normal 1.0 -9.783907486442725e-16 -5.551115123125782e-16
  outer loop
    vertex -20.8377913662421 -1.5069274793596483 -105.14958253593413
    vertex -20.837791366242083 -0.5069274793596485 -104.14958253593431
    vertex -20.83779136624194 -1.5069274793596483 166.85041746406537
  endloop
endfacet
facet normal 1.0 -9.783907486442725e-16 -5.551115123125782e-16
  outer loop
    vertex -20.837791366242083 -0.5069274793596485 -104.14958253593431
    vertex -20.8377913662421 -1.5069274793596483 -105.14958253593413
    vertex -20.8377913662421 30.493072520640375 -105.14958253593413
  endloop
endfacet
facet normal 1.0 -9.783907486442725e-16 -5.551115123125782e-16
  outer loop
    vertex -20.837791366242083 -0.5069274793596485 -104.14958253593431
    vertex -20.8377913662421 30.493072520640375 -105.14958253593413
    vertex -20.837791366242083 29.493072520640375 -104.14958253593431
  endloop
endfacet
facet normal 1.0 -9.783907486442725e-16 -5.551115123125782e-16
  outer loop
    vertex -20.837791366242083 29.493072520640375 -104.14958253593431
    vertex -20.8377913662421 30.493072520640375 -105.14958253593413
    vertex -20.837791366242026 30.493072520640375 -104.14958253593427
  endloop
endfacet
facet normal 1.0 -9.783907486442725e-16 -5.551115123125782e-16
  outer loop
    vertex -20.837791366242083 -0.5069274793596485 -104.14958253593431
    vertex -20.83779136624194 -0.5069274793596485 166.85041746406537
    vertex -20.83779136624194 -1.5069274793596483 166.85041746406537
  endloop
endfacet
facet normal 1.0 -9.783907486442725e-16 -5.551115123125782e-16
  outer loop
    vertex -20.83779136624194 -0.5069274793596485 166.85041746406537
    vertex -20.837791366242083 -0.5069274793596485 -104.14958253593431
    vertex -20.837791366242065 -0.5069274793596485 -74.1495825359343
  endloop
endfacet
facet normal 1.0 -9.783907486442725e-16 -5.551115123125782e-16
  outer loop
    vertex -20.83779136624194 -0.5069274793596485 166.85041746406537
    vertex -20.837791366242065 -0.5069274793596485 -74.1495825359343
    vertex -20.837791366242058 -0.5069274793596485 -72.14958253593427
  endloop
endfacet
facet normal 1.0 -9.783907486442725e-16 -5.551115123125782e-16
  outer loop
    vertex -20.83779136624194 -0.5069274793596485 166.85041746406537
    vertex -20.837791366242058 -0.5069274793596485 -72.14958253593427
    vertex -20.837791366241945 -0.5069274793596485 165.85041746406503
  endloop
endfacet
facet normal -1.9984014443252814e-15 -5.371364728662669e-16 1.0
  outer loop
    vertex -19.837791366242016 -6.506927479359639 171.85041746406515
    vertex -31.837791366242094 35.49307252064031 171.85041746406503
    vertex -31.837791366242094 -6.506927479359639 171.85041746406503
  endloop
endfacet
facet normal -1.9984014443252814e-15 -5.371364728662669e-16 1.0
  outer loop
    vertex -31.837791366242094 35.49307252064031 171.85041746406503
    vertex -19.837791366242016 -6.506927479359639 171.85041746406515
    vertex -19.837791366242016 35.49307252064031 171.8504174640652
  endloop
endfacet
facet normal 0.0 1.0 0.0
  outer loop
    vertex -31.837791366242023 35.49307252064031 -110.1495825359341
    vertex -19.837791366242016 35.49307252064031 171.8504174640652
    vertex -19.8377913662421 35.49307252064031 -110.14958253593417
  endloop
endfacet
facet normal 0.0 1.0 0.0
  outer loop
    vertex -19.837791366242016 35.49307252064031 171.8504174640652
    vertex -31.837791366242023 35.49307252064031 -110.1495825359341
    vertex -31.837791366242094 35.49307252064031 171.85041746406503
  endloop
endfacet
facet normal 0.0 -1.0 0.0
  outer loop
    vertex -19.837791366242016 -6.506927479359639 171.85041746406515
    vertex -31.837791366241987 -6.506927479359639 -110.14958253593414
    vertex -19.83779136624196 -6.506927479359639 -110.14958253593424
  endloop
endfacet
facet normal 0.0 -1.0 0.0
  outer loop
    vertex -31.837791366241987 -6.506927479359639 -110.14958253593414
    vertex -19.837791366242016 -6.506927479359639 171.85041746406515
    vertex -31.837791366242012 -6.506927479359639 -109.1495825359341
  endloop
endfacet
facet normal 0.0 -1.0 0.0
  outer loop
    vertex -31.837791366242012 -6.506927479359639 -109.1495825359341
    vertex -19.837791366242016 -6.506927479359639 171.85041746406515
    vertex -31.837791366242094 -6.506927479359639 171.85041746406503
  endloop
endfacet
facet normal 5.134781488891349e-16 9.443091963883324e-16 -1.0
  outer loop
    vertex -19.8377913662421 35.49307252064031 -110.14958253593417
    vertex -31.837791366241987 34.49307252064032 -110.14958253593414
    vertex -31.837791366242023 35.49307252064031 -110.1495825359341
  endloop
endfacet
facet normal 5.134781488891349e-16 9.443091963883324e-16 -1.0
  outer loop
    vertex -31.837791366241987 34.49307252064032 -110.14958253593414
    vertex -19.8377913662421 35.49307252064031 -110.14958253593417
    vertex -31.837791366241987 -6.506927479359639 -110.14958253593414
  endloop
endfacet
facet normal 5.134781488891349e-16 9.443091963883324e-16 -1.0
  outer loop
    vertex -31.837791366241987 -6.506927479359639 -110.14958253593414
    vertex -19.8377913662421 35.49307252064031 -110.14958253593417
    vertex -19.83779136624196 -6.506927479359639 -110.14958253593424
  endloop
endfacet
facet normal -4.191091917959966e-15 5.755214319784872e-32 1.0
  outer loop
    vertex -20.837791366241966 -5.506927479359639 170.85041746406517
    vertex -31.83779136624208 34.49307252064032 170.85041746406503
    vertex -31.83779136624208 -5.506927479359639 170.85041746406503
  endloop
endfacet
facet normal -4.191091917959966e-15 5.755214319784872e-32 1.0
  outer loop
    vertex -31.83779136624208 34.49307252064032 170.85041746406503
    vertex -20.837791366241966 -5.506927479359639 170.85041746406517
    vertex -20.837791366241966 34.49307252064032 170.85041746406517
  endloop
endfacet
facet normal -4.191091917959966e-15 5.755214319784872e-32 1.0
  outer loop
    vertex -20.837791366241966 34.49307252064032 170.85041746406517
    vertex -20.837791366241966 -5.506927479359639 170.85041746406517
    vertex -20.837791366241966 -0.5069274793596485 170.85041746406517
  endloop
endfacet
facet normal -4.191091917959966e-15 5.755214319784872e-32 1.0
  outer loop
    vertex -20.837791366241966 34.49307252064032 170.85041746406517
    vertex -20.837791366241966 -0.5069274793596485 170.85041746406517
    vertex -20.837791366241966 29.493072520640375 170.85041746406517
  endloop
endfacet
facet normal 0.0 1.0 0.0
  outer loop
    vertex -31.837791366242012 34.49307252064032 -109.1495825359341
    vertex -20.837791366242083 34.49307252064032 -104.14958253593431
    vertex -20.837791366242 34.49307252064032 -109.1495825359342
  endloop
endfacet
facet normal 0.0 1.0 0.0
  outer loop
    vertex -20.837791366242083 34.49307252064032 -104.14958253593431
    vertex -31.837791366242012 34.49307252064032 -109.1495825359341
    vertex -31.83779136624208 34.49307252064032 170.85041746406503
  endloop
endfacet
facet normal 0.0 1.0 0.0
  outer loop
    vertex -20.837791366242083 34.49307252064032 -104.14958253593431
    vertex -31.83779136624208 34.49307252064032 170.85041746406503
    vertex -20.837791366241966 34.49307252064032 170.85041746406517
  endloop
endfacet
facet normal 4.191091917959966e-15 0.0 -1.0
  outer loop
    vertex -20.837791366242 34.49307252064032 -109.1495825359342
    vertex -31.837791366242012 -5.506927479359639 -109.1495825359341
    vertex -31.837791366242012 34.49307252064032 -109.1495825359341
  endloop
endfacet
facet normal 4.191091917959966e-15 0.0 -1.0
  outer loop
    vertex -31.837791366242012 -5.506927479359639 -109.1495825359341
    vertex -20.837791366242 34.49307252064032 -109.1495825359342
    vertex -20.837791366242 -5.506927479359639 -109.1495825359342
  endloop
endfacet
facet normal -1.0 0.0 4.163336342344337e-17
  outer loop
    vertex -31.837791366242012 -5.506927479359639 -109.1495825359341
    vertex -31.837791366241987 -6.506927479359639 -110.14958253593414
    vertex -31.837791366242012 -6.506927479359639 -109.1495825359341
  endloop
endfacet
facet normal -1.0 0.0 4.163336342344337e-17
  outer loop
    vertex -31.837791366241987 -6.506927479359639 -110.14958253593414
    vertex -31.837791366242012 -5.506927479359639 -109.1495825359341
    vertex -31.837791366241987 34.49307252064032 -110.14958253593414
  endloop
endfacet
facet normal -1.0 0.0 4.163336342344337e-17
  outer loop
    vertex -31.837791366241987 34.49307252064032 -110.14958253593414
    vertex -31.837791366242012 -5.506927479359639 -109.1495825359341
    vertex -31.837791366242012 34.49307252064032 -109.1495825359341
  endloop
endfacet
facet normal -1.0 -2.0930364310904864e-16 -2.914335439641036e-16
  outer loop
    vertex -31.837791366242094 -6.506927479359639 171.85041746406503
    vertex -31.83779136624208 -5.506927479359639 170.85041746406503
    vertex -31.837791366242012 -6.506927479359639 -109.1495825359341
  endloop
endfacet
facet normal -1.0 -2.0930364310904864e-16 -2.914335439641036e-16
  outer loop
    vertex -31.83779136624208 -5.506927479359639 170.85041746406503
    vertex -31.837791366242094 -6.506927479359639 171.85041746406503
    vertex -31.837791366242094 35.49307252064031 171.85041746406503
  endloop
endfacet
facet normal -1.0 -2.0930364310904864e-16 -2.914335439641036e-16
  outer loop
    vertex -31.83779136624208 -5.506927479359639 170.85041746406503
    vertex -31.837791366242094 35.49307252064031 171.85041746406503
    vertex -31.83779136624208 34.49307252064032 170.85041746406503
  endloop
endfacet
facet normal -1.0 -2.0930364310904864e-16 -2.914335439641036e-16
  outer loop
    vertex -31.83779136624208 34.49307252064032 170.85041746406503
    vertex -31.837791366242094 35.49307252064031 171.85041746406503
    vertex -31.837791366242012 34.49307252064032 -109.1495825359341
  endloop
endfacet
facet normal -1.0 -2.0930364310904864e-16 -2.914335439641036e-16
  outer loop
    vertex -31.837791366242012 34.49307252064032 -109.1495825359341
    vertex -31.837791366242094 35.49307252064031 171.85041746406503
    vertex -31.837791366241987 34.49307252064032 -110.14958253593414
  endloop
endfacet
facet normal -1.0 -2.0930364310904864e-16 -2.914335439641036e-16
  outer loop
    vertex -31.837791366241987 34.49307252064032 -110.14958253593414
    vertex -31.837791366242094 35.49307252064031 171.85041746406503
    vertex -31.837791366242023 35.49307252064031 -110.1495825359341
  endloop
endfacet
facet normal -1.0 -2.0930364310904864e-16 -2.914335439641036e-16
  outer loop
    vertex -31.837791366242012 -5.506927479359639 -109.1495825359341
    vertex -31.837791366242012 -6.506927479359639 -109.1495825359341
    vertex -31.83779136624208 -5.506927479359639 170.85041746406503
  endloop
endfacet
endsolid Syringe Ice Box
